SplineFontDB: 3.2
FontName: HoeKomikaAxis
FullName: Hoe!Komika Axis
FamilyName: Hoe!Komika Axis
Weight: Book
Copyright: (c) 1999-2001, WolfBainX & Apostrophic Labs. All rights reserved. Visit www.apsotrophiclab.com or email info@apostrophiclab.com for more info.
Version: 2.0
ItalicAngle: 0
UnderlinePosition: -125
UnderlineWidth: 50
Ascent: 800
Descent: 200
InvalidEm: 0
sfntRevision: 0x00010000
LayerCount: 2
Layer: 0 1 "Back" 1
Layer: 1 1 "Fore" 0
XUID: [1021 618 -23699139 14569685]
StyleMap: 0x0000
FSType: 0
OS2Version: 0
OS2_WeightWidthSlopeOnly: 0
OS2_UseTypoMetrics: 0
CreationTime: 992687424
ModificationTime: 1625507168
PfmFamily: 17
TTFWeight: 400
TTFWidth: 5
LineGap: 30
VLineGap: 0
Panose: 2 0 5 6 0 0 0 2 0 4
OS2TypoAscent: 876
OS2TypoAOffset: 0
OS2TypoDescent: -35
OS2TypoDOffset: 0
OS2TypoLinegap: 30
OS2WinAscent: 1380
OS2WinAOffset: 0
OS2WinDescent: 255
OS2WinDOffset: 0
HheadAscent: 1380
HheadAOffset: 0
HheadDescent: -255
HheadDOffset: 0
OS2SubXSize: 100
OS2SubYSize: 100
OS2SubXOff: 0
OS2SubYOff: 140
OS2SupXSize: 100
OS2SupYSize: 100
OS2SupXOff: 0
OS2SupYOff: 140
OS2StrikeYSize: 50
OS2StrikeYPos: 250
OS2Vendor: 'APOS'
OS2CodePages: 20000001.40000000
OS2UnicodeRanges: 80000003.00000000.00000000.00000000
Lookup: 260 0 0 "'mark' Mark Positioning in Latin lookup 0" { "'mark' Mark Positioning in Latin lookup 0-1"  } ['mark' ('DFLT' <'dflt' > 'latn' <'dflt' > ) ]
MarkAttachClasses: 1
DEI: 91125
TtTable: prep
PUSHW_4
 1
 4
 2
 0
CALL
CALL
PUSHW_6
 4
 21
 16
 12
 7
 8
CALL
PUSHW_6
 1
 53
 41
 30
 18
 8
CALL
PUSHW_6
 2
 34
 27
 19
 11
 8
CALL
PUSHW_6
 3
 34
 27
 19
 11
 8
CALL
PUSHW_3
 5
 4
 7
CALL
PUSHW_1
 0
DUP
RCVT
RDTG
ROUND[Black]
RTG
WCVTP
EndTTInstrs
TtTable: fpgm
PUSHW_1
 0
FDEF
MPPEM
PUSHW_1
 9
LT
IF
PUSHB_2
 1
 1
INSTCTRL
EIF
PUSHW_1
 511
SCANCTRL
PUSHW_1
 68
SCVTCI
PUSHW_2
 9
 3
SDS
SDB
ENDF
PUSHW_1
 1
FDEF
DUP
DUP
RCVT
ROUND[Black]
WCVTP
PUSHB_1
 1
ADD
ENDF
PUSHW_1
 2
FDEF
PUSHW_1
 1
LOOPCALL
POP
ENDF
PUSHW_1
 3
FDEF
DUP
GC[cur]
PUSHB_1
 3
CINDEX
GC[cur]

StartChar: dotaccent
Encoding: 6 6 4
Width: 331
Flags: W
LayerCount: 2
Fore
SplineSet
49 1089 m 0,0,1
 48 1057 48 1057 58 1032 c 128,-1,2
 68 1007 68 1007 86 989 c 128,-1,3
 104 971 104 971 127.5 962 c 128,-1,4
 151 953 151 953 178 955 c 0,5,6
 204 955 204 955 225 965 c 128,-1,7
 246 975 246 975 261.5 989.5 c 128,-1,8
 277 1004 277 1004 286.5 1020.5 c 128,-1,9
 296 1037 296 1037 299 1049 c 0,10,11
 305 1067 305 1067 306 1089 c 0,12,13
 307 1122 307 1122 285 1155 c 128,-1,14
 263 1188 263 1188 215 1205 c 0,15,16
 179 1216 179 1216 149.5 1210 c 128,-1,17
 120 1204 120 1204 98 1187 c 128,-1,18
 76 1170 76 1170 63.5 1144 c 128,-1,19
 51 1118 51 1118 49 1089 c 0,0,1
EndSplineSet
Validated: 41
EndChar

StartChar: ring
Encoding: 8 8 5
Width: 694
Flags: W
LayerCount: 2
Fore
SplineSet
526 1244 m 0,0,1
 506 1253 506 1253 475.5 1260 c 128,-1,2
 445 1267 445 1267 412 1271 c 0,3,4
 387 1273 387 1273 359 1268 c 128,-1,5
 331 1263 331 1263 310 1253 c 0,6,7
 263 1228 263 1228 232 1193 c 128,-1,8
 201 1158 201 1158 187 1120 c 128,-1,9
 173 1082 173 1082 176 1045.5 c 128,-1,10
 179 1009 179 1009 200 981 c 0,11,12
 208 968 208 968 224.5 958.5 c 128,-1,13
 241 949 241 949 257 944 c 0,14,15
 278 936 278 936 304 933 c 128,-1,16
 330 930 330 930 354 928 c 0,17,18
 390 925 390 925 417.5 929.5 c 128,-1,19
 445 934 445 934 470 947 c 0,20,21
 506 969 506 969 530 999.5 c 128,-1,22
 554 1030 554 1030 567.5 1063.5 c 128,-1,23
 581 1097 581 1097 583 1130.5 c 128,-1,24
 585 1164 585 1164 578 1192 c 0,25,26
 571 1208 571 1208 560 1220.5 c 128,-1,27
 549 1233 549 1233 526 1244 c 0,0,1
433 1208 m 256,28,29
 445 1206 445 1206 450.5 1192.5 c 128,-1,30
 456 1179 456 1179 456.5 1160 c 128,-1,31
 457 1141 457 1141 452.5 1119.5 c 128,-1,32
 448 1098 448 1098 440 1080 c 0,33,34
 431 1056 431 1056 419 1036.5 c 128,-1,35
 407 1017 407 1017 392.5 1003.5 c 128,-1,36
 378 990 378 990 363.5 983.5 c 128,-1,37
 349 977 349 977 336 981 c 0,38,39
 322 983 322 983 315 995.5 c 128,-1,40
 308 1008 308 1008 306.5 1025.5 c 128,-1,41
 305 1043 305 1043 309.5 1063.5 c 128,-1,42
 314 1084 314 1084 322 1102 c 0,43,44
 331 1121 331 1121 345 1140.5 c 128,-1,45
 359 1160 359 1160 374.5 1175.5 c 128,-1,46
 390 1191 390 1191 405.5 1200.5 c 128,-1,47
 421 1210 421 1210 433 1208 c 256,28,29
EndSplineSet
Validated: 41
EndChar

StartChar: caron
Encoding: 12 12 6
Width: 670
Flags: W
LayerCount: 2
Fore
SplineSet
163 1374 m 0,0,1
 146 1375 146 1375 141 1368.5 c 128,-1,2
 136 1362 136 1362 141 1345 c 0,3,4
 149 1317 149 1317 159 1281.5 c 128,-1,5
 169 1246 169 1246 179.5 1207.5 c 128,-1,6
 190 1169 190 1169 200 1129.5 c 128,-1,7
 210 1090 210 1090 217 1055 c 0,8,9
 220 1033 220 1033 225.5 1023 c 128,-1,10
 231 1013 231 1013 242 1001 c 0,11,12
 254 990 254 990 268 982 c 128,-1,13
 282 974 282 974 296 963 c 0,14,15
 309 955 309 955 320 955.5 c 128,-1,16
 331 956 331 956 345 971 c 0,17,18
 373 998 373 998 401.5 1030.5 c 128,-1,19
 430 1063 430 1063 456 1096 c 128,-1,20
 482 1129 482 1129 504.5 1159 c 128,-1,21
 527 1189 527 1189 543 1212 c 0,22,23
 560 1237 560 1237 543 1265 c 0,24,25
 532 1282 532 1282 522 1294 c 128,-1,26
 512 1306 512 1306 501 1317 c 0,27,28
 489 1330 489 1330 479 1330 c 0,29,30
 470 1330 470 1330 461 1317 c 0,31,32
 432 1279 432 1279 397 1235.5 c 128,-1,33
 362 1192 362 1192 323 1147 c 1,34,35
 309 1199 309 1199 297.5 1246 c 128,-1,36
 286 1293 286 1293 274 1326 c 0,37,38
 259 1357 259 1357 229 1365 c 0,39,40
 210 1370 210 1370 195 1372 c 128,-1,41
 180 1374 180 1374 163 1374 c 0,0,1
EndSplineSet
Validated: 41
EndChar

StartChar: fraction
Encoding: 25 25 7
Width: 844
Flags: W
LayerCount: 2
Fore
SplineSet
770 780 m 0,0,1
 763 791 763 791 761 793.5 c 128,-1,2
 759 796 759 796 757 796 c 256,3,4
 755 796 755 796 752 797.5 c 128,-1,5
 749 799 749 799 741 809 c 0,6,7
 708 851 708 851 660 812 c 0,8,9
 617 778 617 778 555.5 723 c 128,-1,10
 494 668 494 668 425 602.5 c 128,-1,11
 356 537 356 537 284.5 467 c 128,-1,12
 213 397 213 397 149.5 333 c 128,-1,13
 86 269 86 269 35.5 218 c 128,-1,14
 -15 167 -15 167 -41 139 c 0,15,16
 -50 129 -50 129 -56 120 c 128,-1,17
 -62 111 -62 111 -64 102 c 0,18,19
 -65 94 -65 94 -63.5 86 c 128,-1,20
 -62 78 -62 78 -53 70 c 0,21,22
 -48 64 -48 64 -47.5 65.5 c 128,-1,23
 -47 67 -47 67 -47 69 c 256,24,25
 -47 71 -47 71 -45 71 c 256,26,27
 -43 71 -43 71 -34 64 c 0,28,29
 -17 50 -17 50 -4.5 50.5 c 128,-1,30
 8 51 8 51 24 68 c 0,31,32
 59 101 59 101 115 151.5 c 128,-1,33
 171 202 171 202 238 261.5 c 128,-1,34
 305 321 305 321 377.5 385.5 c 128,-1,35
 450 450 450 450 519 509.5 c 128,-1,36
 588 569 588 569 647.5 620 c 128,-1,37
 707 671 707 671 748 704 c 0,38,39
 771 723 771 723 777.5 738 c 128,-1,40
 784 753 784 753 770 780 c 0,0,1
EndSplineSet
Validated: 41
EndChar

StartChar: fi
Encoding: 26 26 8
Width: 906
Flags: W
LayerCount: 2
Fore
SplineSet
-22 18 m 0,0,1
 -3 10 -3 10 22.5 1 c 128,-1,2
 48 -8 48 -8 71 -11.5 c 128,-1,3
 94 -15 94 -15 110 -11.5 c 128,-1,4
 126 -8 126 -8 127 10 c 0,5,6
 137 64 137 64 150 133.5 c 128,-1,7
 163 203 163 203 180 280 c 1,8,9
 236 292 236 292 294 303 c 128,-1,10
 352 314 352 314 409 323 c 0,11,12
 436 326 436 326 443.5 334.5 c 128,-1,13
 451 343 451 343 442 366 c 0,14,15
 437 386 437 386 430 405.5 c 128,-1,16
 423 425 423 425 410 445 c 0,17,18
 386 479 386 479 338 476 c 0,19,20
 307 475 307 475 277.5 472.5 c 128,-1,21
 248 470 248 470 219 467 c 1,22,23
 234 521 234 521 243.5 570 c 128,-1,24
 253 619 253 619 266 660 c 1,25,26
 293 663 293 663 335.5 669.5 c 128,-1,27
 378 676 378 676 427.5 683.5 c 128,-1,28
 477 691 477 691 528.5 698.5 c 128,-1,29
 580 706 580 706 623 713 c 1,30,31
 603 635 603 635 583 545 c 128,-1,32
 563 455 563 455 546 370 c 128,-1,33
 529 285 529 285 516.5 212.5 c 128,-1,34
 504 140 504 140 500 96 c 0,35,36
 495 70 495 70 502 55.5 c 128,-1,37
 509 41 509 41 532 30 c 0,38,39
 552 19 552 19 575.5 12 c 128,-1,40
 599 5 599 5 625 -2 c 0,41,42
 651 -8 651 -8 660 -3 c 128,-1,43
 669 2 669 2 674 19 c 0,44,45
 685 64 685 64 700.5 122 c 128,-1,46
 716 180 716 180 734 245 c 128,-1,47
 752 310 752 310 771.5 378 c 128,-1,48
 791 446 791 446 810.5 510.5 c 128,-1,49
 830 575 830 575 849 633.5 c 128,-1,50
 868 692 868 692 885 737 c 0,51,52
 898 768 898 768 881.5 800 c 128,-1,53
 865 832 865 832 829.5 857.5 c 128,-1,54
 794 883 794 883 746 897 c 128,-1,55
 698 911 698 911 648 906 c 0,56,57
 608 901 608 901 552.5 894.5 c 128,-1,58
 497 888 497 888 435 880.5 c 128,-1,59
 373 873 373 873 308.5 864 c 128,-1,60
 244 855 244 855 185.5 846 c 128,-1,61
 127 837 127 837 79 828.5 c 128,-1,62
 31 820 31 820 3 812 c 1,63,64
 7 763 7 763 4.5 698 c 128,-1,65
 2 633 2 633 -4.5 561.5 c 128,-1,66
 -11 490 -11 490 -20 417 c 128,-1,67
 -29 344 -29 344 -37.5 279.5 c 128,-1,68
 -46 215 -46 215 -52.5 163.5 c 128,-1,69
 -59 112 -59 112 -60 84 c 0,70,71
 -59 71 -59 71 -58 61 c 128,-1,72
 -57 51 -57 51 -53 43.5 c 128,-1,73
 -49 36 -49 36 -42 30 c 128,-1,74
 -35 24 -35 24 -22 18 c 0,0,1
EndSplineSet
Validated: 41
EndChar

StartChar: fl
Encoding: 27 27 9
Width: 1057
Flags: W
LayerCount: 2
Fore
SplineSet
928 42 m 0,0,1
 944 45 944 45 952 48 c 128,-1,2
 960 51 960 51 963 55 c 128,-1,3
 966 59 966 59 965 65.5 c 128,-1,4
 964 72 964 72 961 83 c 0,5,6
 955 120 955 120 934 155 c 0,7,8
 922 174 922 174 907.5 179.5 c 128,-1,9
 893 185 893 185 866 183 c 0,10,11
 819 180 819 180 778.5 176 c 128,-1,12
 738 172 738 172 692 164 c 1,13,14
 711 233 711 233 733.5 309 c 128,-1,15
 756 385 756 385 780 460.5 c 128,-1,16
 804 536 804 536 828 608 c 128,-1,17
 852 680 852 680 874 740 c 0,18,19
 890 781 890 781 872 810 c 128,-1,20
 854 839 854 839 819.5 857.5 c 128,-1,21
 785 876 785 876 742 884 c 128,-1,22
 699 892 699 892 665 891 c 0,23,24
 625 889 625 889 567.5 885 c 128,-1,25
 510 881 510 881 445 875 c 128,-1,26
 380 869 380 869 311.5 861 c 128,-1,27
 243 853 243 853 182 845 c 128,-1,28
 121 837 121 837 71 828.5 c 128,-1,29
 21 820 21 820 -7 812 c 1,30,31
 -2 763 -2 763 -3.5 698 c 128,-1,32
 -5 633 -5 633 -11 561.5 c 128,-1,33
 -17 490 -17 490 -25 417 c 128,-1,34
 -33 344 -33 344 -40.5 279.5 c 128,-1,35
 -48 215 -48 215 -54 163.5 c 128,-1,36
 -60 112 -60 112 -60 84 c 0,37,38
 -59 71 -59 71 -58 61 c 128,-1,39
 -57 51 -57 51 -53 43.5 c 128,-1,40
 -49 36 -49 36 -42 30 c 128,-1,41
 -35 24 -35 24 -22 18 c 0,42,43
 -3 10 -3 10 22.5 1 c 128,-1,44
 48 -8 48 -8 71 -11.5 c 128,-1,45
 94 -15 94 -15 110 -11.5 c 128,-1,46
 126 -8 126 -8 126 10 c 0,47,48
 137 64 137 64 149 133.5 c 128,-1,49
 161 203 161 203 177 280 c 1,50,51
 233 292 233 292 291 303 c 128,-1,52
 349 314 349 314 405 323 c 0,53,54
 432 326 432 326 439.5 334.5 c 128,-1,55
 447 343 447 343 438 366 c 0,56,57
 433 386 433 386 425.5 405.5 c 128,-1,58
 418 425 418 425 404 445 c 0,59,60
 382 479 382 479 333 476 c 0,61,62
 302 475 302 475 272.5 472.5 c 128,-1,63
 243 470 243 470 214 467 c 1,64,65
 228 521 228 521 237 570 c 128,-1,66
 246 619 246 619 259 660 c 1,67,68
 283 663 283 663 322.5 667.5 c 128,-1,69
 362 672 362 672 409 677 c 128,-1,70
 456 682 456 682 506.5 687 c 128,-1,71
 557 692 557 692 602 697 c 1,72,73
 582 622 582 622 562.5 541.5 c 128,-1,74
 543 461 543 461 526.5 385 c 128,-1,75
 510 309 510 309 498 242.5 c 128,-1,76
 486 176 486 176 481 129 c 0,77,78
 476 104 476 104 484 86.5 c 128,-1,79
 492 69 492 69 509 55 c 0,80,81
 531 37 531 37 544 25.5 c 128,-1,82
 557 14 557 14 574 3 c 0,83,84
 581 -2 581 -2 588.5 -6 c 128,-1,85
 596 -10 596 -10 606.5 -12.5 c 128,-1,86
 617 -15 617 -15 632.5 -14 c 128,-1,87
 648 -13 648 -13 670 -7 c 0,88,89
 730 5 730 5 797 17.5 c 128,-1,90
 864 30 864 30 928 42 c 0,0,1
EndSplineSet
Validated: 41
EndChar

StartChar: Lslash
Encoding: 28 28 10
Width: 660
Flags: W
LayerCount: 2
Fore
SplineSet
-92 382 m 0,0,1
 -153 350 -153 350 -95 323 c 0,2,3
 -73 311 -73 311 -46 301 c 128,-1,4
 -19 291 -19 291 13 281 c 0,5,6
 54 270 54 270 80 276 c 1,7,8
 72 233 72 233 67.5 195 c 128,-1,9
 63 157 63 157 60 128 c 0,10,11
 56 103 56 103 65 85.5 c 128,-1,12
 74 68 74 68 92 54 c 0,13,14
 115 36 115 36 128.5 24.5 c 128,-1,15
 142 13 142 13 159 2 c 0,16,17
 166 -3 166 -3 173.5 -7 c 128,-1,18
 181 -11 181 -11 191.5 -13.5 c 128,-1,19
 202 -16 202 -16 217.5 -15 c 128,-1,20
 233 -14 233 -14 255 -8 c 0,21,22
 315 4 315 4 381.5 16.5 c 128,-1,23
 448 29 448 29 512 41 c 0,24,25
 527 44 527 44 535 47 c 128,-1,26
 543 50 543 50 546 54 c 128,-1,27
 549 58 549 58 547.5 64.5 c 128,-1,28
 546 71 546 71 542 82 c 0,29,30
 538 99 538 99 531 117.5 c 128,-1,31
 524 136 524 136 512 154 c 0,32,33
 501 173 501 173 486 178.5 c 128,-1,34
 471 184 471 184 444 182 c 0,35,36
 397 179 397 179 356.5 175 c 128,-1,37
 316 171 316 171 271 163 c 1,38,39
 284 217 284 217 298.5 276 c 128,-1,40
 313 335 313 335 330 396 c 1,41,42
 389 422 389 422 449.5 448.5 c 128,-1,43
 510 475 510 475 570 499 c 0,44,45
 603 513 603 513 611.5 523.5 c 128,-1,46
 620 534 620 534 597 550 c 0,47,48
 579 561 579 561 560.5 576 c 128,-1,49
 542 591 542 591 512 604 c 0,50,51
 489 617 489 617 461 616 c 128,-1,52
 433 615 433 615 401 604 c 0,53,54
 397 602 397 602 393 601 c 128,-1,55
 389 600 389 600 387 599 c 1,56,57
 398 637 398 637 409 672 c 128,-1,58
 420 707 420 707 431 739 c 0,59,60
 442 765 442 765 435.5 779 c 128,-1,61
 429 793 429 793 402 812 c 0,62,63
 376 830 376 830 340 844.5 c 128,-1,64
 304 859 304 859 272 867 c 0,65,66
 243 876 243 876 227 870.5 c 128,-1,67
 211 865 211 865 200 836 c 0,68,69
 179 764 179 764 157.5 671.5 c 128,-1,70
 136 579 136 579 117 484 c 1,71,72
 54 455 54 455 0.5 428.5 c 128,-1,73
 -53 402 -53 402 -92 382 c 0,0,1
EndSplineSet
Validated: 41
EndChar

StartChar: lslash
Encoding: 29 29 11
Width: 660
Flags: W
LayerCount: 2
Fore
SplineSet
-92 382 m 0,0,1
 -153 350 -153 350 -95 323 c 0,2,3
 -73 311 -73 311 -46 301 c 128,-1,4
 -19 291 -19 291 13 281 c 0,5,6
 54 270 54 270 80 276 c 1,7,8
 72 233 72 233 67.5 195 c 128,-1,9
 63 157 63 157 60 128 c 0,10,11
 56 103 56 103 65 85.5 c 128,-1,12
 74 68 74 68 92 54 c 0,13,14
 115 36 115 36 128.5 24.5 c 128,-1,15
 142 13 142 13 159 2 c 0,16,17
 166 -3 166 -3 173.5 -7 c 128,-1,18
 181 -11 181 -11 191.5 -13.5 c 128,-1,19
 202 -16 202 -16 217.5 -15 c 128,-1,20
 233 -14 233 -14 255 -8 c 0,21,22
 315 4 315 4 381.5 16.5 c 128,-1,23
 448 29 448 29 512 41 c 0,24,25
 527 44 527 44 535 47 c 128,-1,26
 543 50 543 50 546 54 c 128,-1,27
 549 58 549 58 547.5 64.5 c 128,-1,28
 546 71 546 71 542 82 c 0,29,30
 538 99 538 99 531 117.5 c 128,-1,31
 524 136 524 136 512 154 c 0,32,33
 501 173 501 173 486 178.5 c 128,-1,34
 471 184 471 184 444 182 c 0,35,36
 397 179 397 179 356.5 175 c 128,-1,37
 316 171 316 171 271 163 c 1,38,39
 284 217 284 217 298.5 276 c 128,-1,40
 313 335 313 335 330 396 c 1,41,42
 389 422 389 422 449.5 448.5 c 128,-1,43
 510 475 510 475 570 499 c 0,44,45
 603 513 603 513 611.5 523.5 c 128,-1,46
 620 534 620 534 597 550 c 0,47,48
 579 561 579 561 560.5 576 c 128,-1,49
 542 591 542 591 512 604 c 0,50,51
 489 617 489 617 461 616 c 128,-1,52
 433 615 433 615 401 604 c 0,53,54
 397 602 397 602 393 601 c 128,-1,55
 389 600 389 600 387 599 c 1,56,57
 398 637 398 637 409 672 c 128,-1,58
 420 707 420 707 431 739 c 0,59,60
 442 765 442 765 435.5 779 c 128,-1,61
 429 793 429 793 402 812 c 0,62,63
 376 830 376 830 340 844.5 c 128,-1,64
 304 859 304 859 272 867 c 0,65,66
 243 876 243 876 227 870.5 c 128,-1,67
 211 865 211 865 200 836 c 0,68,69
 179 764 179 764 157.5 671.5 c 128,-1,70
 136 579 136 579 117 484 c 1,71,72
 54 455 54 455 0.5 428.5 c 128,-1,73
 -53 402 -53 402 -92 382 c 0,0,1
EndSplineSet
Validated: 41
EndChar

StartChar: Zcaron
Encoding: 30 30 12
Width: 562
Flags: W
LayerCount: 2
Fore
SplineSet
304 661 m 1,0,1
 246 589 246 589 188 510.5 c 128,-1,2
 130 432 130 432 78.5 358 c 128,-1,3
 27 284 27 284 -13.5 221 c 128,-1,4
 -54 158 -54 158 -77 117 c 0,5,6
 -84 105 -84 105 -83.5 94.5 c 128,-1,7
 -83 84 -83 84 -78.5 75 c 128,-1,8
 -74 66 -74 66 -66.5 58 c 128,-1,9
 -59 50 -59 50 -52 43 c 0,10,11
 -29 25 -29 25 -14 13 c 128,-1,12
 1 1 1 1 18 -11 c 0,13,14
 27 -16 27 -16 35.5 -20.5 c 128,-1,15
 44 -25 44 -25 55 -27 c 128,-1,16
 66 -29 66 -29 80 -28.5 c 128,-1,17
 94 -28 94 -28 114 -23 c 0,18,19
 174 -9 174 -9 245 3.5 c 128,-1,20
 316 16 316 16 380 28 c 0,21,22
 406 31 406 31 414 39 c 128,-1,23
 422 47 422 47 414 67 c 0,24,25
 410 84 410 84 401.5 102 c 128,-1,26
 393 120 393 120 381 139 c 0,27,28
 361 172 361 172 306 166 c 0,29,30
 265 161 265 161 228.5 155.5 c 128,-1,31
 192 150 192 150 155 141 c 1,32,33
 250 264 250 264 355.5 395 c 128,-1,34
 461 526 461 526 566 653 c 0,35,36
 586 676 586 676 588.5 696.5 c 128,-1,37
 591 717 591 717 583 740 c 0,38,39
 577 758 577 758 571.5 778.5 c 128,-1,40
 566 799 566 799 553 826 c 0,41,42
 542 849 542 849 528 857.5 c 128,-1,43
 514 866 514 866 484 865 c 0,44,45
 429 862 429 862 367 857.5 c 128,-1,46
 305 853 305 853 244 846.5 c 128,-1,47
 183 840 183 840 126.5 831 c 128,-1,48
 70 822 70 822 25 812 c 0,49,50
 5 805 5 805 -0.5 797 c 128,-1,51
 -6 789 -6 789 3 766 c 0,52,53
 9 754 9 754 16.5 740.5 c 128,-1,54
 24 727 24 727 32 713 c 128,-1,55
 40 699 40 699 47.5 687 c 128,-1,56
 55 675 55 675 61 666 c 0,57,58
 81 643 81 643 103 637 c 128,-1,59
 125 631 125 631 151 636 c 0,60,61
 186 644 186 644 222.5 648.5 c 128,-1,62
 259 653 259 653 304 661 c 1,0,1
190 1329 m 0,63,64
 173 1330 173 1330 167.5 1323.5 c 128,-1,65
 162 1317 162 1317 167 1300 c 0,66,67
 174 1273 174 1273 183.5 1237.5 c 128,-1,68
 193 1202 193 1202 203 1164 c 128,-1,69
 213 1126 213 1126 222 1087 c 128,-1,70
 231 1048 231 1048 237 1013 c 0,71,72
 240 992 240 992 245.5 982.5 c 128,-1,73
 251 973 251 973 262 960 c 0,74,75
 273 950 273 950 287 941.5 c 128,-1,76
 301 933 301 933 314 923 c 0,77,78
 327 915 327 915 338 915.5 c 128,-1,79
 349 916 349 916 363 931 c 0,80,81
 391 957 391 957 420 989 c 128,-1,82
 449 1021 449 1021 476 1053.5 c 128,-1,83
 503 1086 503 1086 525.5 1116 c 128,-1,84
 548 1146 548 1146 564 1169 c 0,85,86
 582 1193 582 1193 565 1221 c 0,87,88
 555 1238 555 1238 545.5 1249.5 c 128,-1,89
 536 1261 536 1261 525 1272 c 0,90,91
 513 1285 513 1285 503 1285 c 0,92,93
 494 1285 494 1285 485 1272 c 0,94,95
 455 1234 455 1234 419.5 1191.5 c 128,-1,96
 384 1149 384 1149 345 1105 c 1,97,98
 332 1156 332 1156 321.5 1202.5 c 128,-1,99
 311 1249 311 1249 300 1281 c 1,100,101
 285 1312 285 1312 256 1320 c 0,102,103
 237 1325 237 1325 221.5 1327 c 128,-1,104
 206 1329 206 1329 190 1329 c 0,63,64
EndSplineSet
Validated: 2097193
EndChar

StartChar: zcaron
Encoding: 31 31 13
Width: 562
Flags: W
LayerCount: 2
Fore
SplineSet
304 661 m 1,0,1
 246 589 246 589 188 510.5 c 128,-1,2
 130 432 130 432 78.5 358 c 128,-1,3
 27 284 27 284 -13.5 221 c 128,-1,4
 -54 158 -54 158 -77 117 c 0,5,6
 -84 105 -84 105 -83.5 94.5 c 128,-1,7
 -83 84 -83 84 -78.5 75 c 128,-1,8
 -74 66 -74 66 -66.5 58 c 128,-1,9
 -59 50 -59 50 -52 43 c 0,10,11
 -29 25 -29 25 -14 13 c 128,-1,12
 1 1 1 1 18 -11 c 0,13,14
 27 -16 27 -16 35.5 -20.5 c 128,-1,15
 44 -25 44 -25 55 -27 c 128,-1,16
 66 -29 66 -29 80 -28.5 c 128,-1,17
 94 -28 94 -28 114 -23 c 0,18,19
 174 -9 174 -9 245 3.5 c 128,-1,20
 316 16 316 16 380 28 c 0,21,22
 406 31 406 31 414 39 c 128,-1,23
 422 47 422 47 414 67 c 0,24,25
 410 84 410 84 401.5 102 c 128,-1,26
 393 120 393 120 381 139 c 0,27,28
 361 172 361 172 306 166 c 0,29,30
 265 161 265 161 228.5 155.5 c 128,-1,31
 192 150 192 150 155 141 c 1,32,33
 250 264 250 264 355.5 395 c 128,-1,34
 461 526 461 526 566 653 c 0,35,36
 586 676 586 676 588.5 696.5 c 128,-1,37
 591 717 591 717 583 740 c 0,38,39
 577 758 577 758 571.5 778.5 c 128,-1,40
 566 799 566 799 553 826 c 0,41,42
 542 849 542 849 528 857.5 c 128,-1,43
 514 866 514 866 484 865 c 0,44,45
 429 862 429 862 367 857.5 c 128,-1,46
 305 853 305 853 244 846.5 c 128,-1,47
 183 840 183 840 126.5 831 c 128,-1,48
 70 822 70 822 25 812 c 0,49,50
 5 805 5 805 -0.5 797 c 128,-1,51
 -6 789 -6 789 3 766 c 0,52,53
 9 754 9 754 16.5 740.5 c 128,-1,54
 24 727 24 727 32 713 c 128,-1,55
 40 699 40 699 47.5 687 c 128,-1,56
 55 675 55 675 61 666 c 0,57,58
 81 643 81 643 103 637 c 128,-1,59
 125 631 125 631 151 636 c 0,60,61
 186 644 186 644 222.5 648.5 c 128,-1,62
 259 653 259 653 304 661 c 1,0,1
190 1329 m 0,63,64
 173 1330 173 1330 167.5 1323.5 c 128,-1,65
 162 1317 162 1317 167 1300 c 0,66,67
 174 1273 174 1273 183.5 1237.5 c 128,-1,68
 193 1202 193 1202 203 1164 c 128,-1,69
 213 1126 213 1126 222 1087 c 128,-1,70
 231 1048 231 1048 237 1013 c 0,71,72
 240 992 240 992 245.5 982.5 c 128,-1,73
 251 973 251 973 262 960 c 0,74,75
 273 950 273 950 287 941.5 c 128,-1,76
 301 933 301 933 314 923 c 0,77,78
 327 915 327 915 338 915.5 c 128,-1,79
 349 916 349 916 363 931 c 0,80,81
 391 957 391 957 420 989 c 128,-1,82
 449 1021 449 1021 476 1053.5 c 128,-1,83
 503 1086 503 1086 525.5 1116 c 128,-1,84
 548 1146 548 1146 564 1169 c 0,85,86
 582 1193 582 1193 565 1221 c 0,87,88
 555 1238 555 1238 545.5 1249.5 c 128,-1,89
 536 1261 536 1261 525 1272 c 0,90,91
 513 1285 513 1285 503 1285 c 0,92,93
 494 1285 494 1285 485 1272 c 0,94,95
 455 1234 455 1234 419.5 1191.5 c 128,-1,96
 384 1149 384 1149 345 1105 c 1,97,98
 332 1156 332 1156 321.5 1202.5 c 128,-1,99
 311 1249 311 1249 300 1281 c 1,100,101
 285 1312 285 1312 256 1320 c 0,102,103
 237 1325 237 1325 221.5 1327 c 128,-1,104
 206 1329 206 1329 190 1329 c 0,63,64
EndSplineSet
Validated: 2097193
EndChar

StartChar: exclam
Encoding: 33 33 14
Width: 400
Flags: W
LayerCount: 2
Fore
SplineSet
331 864 m 0,0,1
 305 882 305 882 269.5 897 c 128,-1,2
 234 912 234 912 204 920 c 0,3,4
 172 931 172 931 156.5 924 c 128,-1,5
 141 917 141 917 133 886 c 0,6,7
 116 822 116 822 97 741 c 128,-1,8
 78 660 78 660 60 577 c 128,-1,9
 42 494 42 494 27.5 415.5 c 128,-1,10
 13 337 13 337 5 279 c 0,11,12
 0 250 0 250 7.5 235.5 c 128,-1,13
 15 221 15 221 38 209 c 0,14,15
 60 198 60 198 83.5 190.5 c 128,-1,16
 107 183 107 183 135 178 c 0,17,18
 158 172 158 172 168.5 177 c 128,-1,19
 179 182 179 182 184 203 c 0,20,21
 199 263 199 263 218.5 332.5 c 128,-1,22
 238 402 238 402 261.5 477 c 128,-1,23
 285 552 285 552 310.5 629 c 128,-1,24
 336 706 336 706 362 781 c 0,25,26
 371 808 371 808 364.5 826.5 c 128,-1,27
 358 845 358 845 331 864 c 0,0,1
-44 64 m 0,28,29
 -46 16 -46 16 -13 -10 c 128,-1,30
 20 -36 20 -36 67 -35 c 0,31,32
 89 -35 89 -35 106.5 -27.5 c 128,-1,33
 124 -20 124 -20 136.5 -9.5 c 128,-1,34
 149 1 149 1 157.5 13.5 c 128,-1,35
 166 26 166 26 169 35 c 0,36,37
 173 47 173 47 172.5 63 c 128,-1,38
 172 79 172 79 164 95 c 128,-1,39
 156 111 156 111 139 124.5 c 128,-1,40
 122 138 122 138 95 145 c 0,41,42
 63 154 63 154 37.5 150.5 c 128,-1,43
 12 147 12 147 -6 134.5 c 128,-1,44
 -24 122 -24 122 -33.5 103.5 c 128,-1,45
 -43 85 -43 85 -44 64 c 0,28,29
EndSplineSet
Validated: 41
EndChar

StartChar: quotedbl
Encoding: 34 34 15
Width: 561
Flags: W
LayerCount: 2
Fore
SplineSet
194 662 m 0,0,1
 205 681 205 681 218.5 707.5 c 128,-1,2
 232 734 232 734 243 764 c 0,3,4
 253 786 253 786 261.5 810.5 c 128,-1,5
 270 835 270 835 275.5 858 c 128,-1,6
 281 881 281 881 283.5 900 c 128,-1,7
 286 919 286 919 284 930 c 0,8,9
 281 952 281 952 260 971 c 0,10,11
 242 988 242 988 222 1000.5 c 128,-1,12
 202 1013 202 1013 179 1024 c 0,13,14
 154 1038 154 1038 137.5 1035.5 c 128,-1,15
 121 1033 121 1033 116 1004 c 0,16,17
 108 966 108 966 96.5 919 c 128,-1,18
 85 872 85 872 71.5 824 c 128,-1,19
 58 776 58 776 45.5 733 c 128,-1,20
 33 690 33 690 24 661 c 0,21,22
 15 623 15 623 59 617 c 0,23,24
 79 614 79 614 99.5 615.5 c 128,-1,25
 120 617 120 617 135 621 c 0,26,27
 153 623 153 623 168 634 c 128,-1,28
 183 645 183 645 194 662 c 0,0,1
435 625 m 0,29,30
 449 641 449 641 467 666 c 128,-1,31
 485 691 485 691 502 720 c 128,-1,32
 519 749 519 749 534.5 778.5 c 128,-1,33
 550 808 550 808 560 834 c 0,34,35
 564 851 564 851 566.5 861.5 c 128,-1,36
 569 872 569 872 569 877 c 0,37,38
 570 892 570 892 553 919 c 0,39,40
 539 934 539 934 522 948.5 c 128,-1,41
 505 963 505 963 482 977 c 0,42,43
 435 1011 435 1011 415 963 c 0,44,45
 401 929 401 929 381.5 884.5 c 128,-1,46
 362 840 362 840 341 795 c 128,-1,47
 320 750 320 750 299.5 709 c 128,-1,48
 279 668 279 668 264 642 c 0,49,50
 244 604 244 604 294 595 c 0,51,52
 313 593 313 593 332 591 c 128,-1,53
 351 589 351 589 371 592 c 0,54,55
 408 594 408 594 435 625 c 0,29,30
EndSplineSet
Validated: 41
EndChar

StartChar: numbersign
Encoding: 35 35 16
Width: 717
Flags: W
LayerCount: 2
Fore
SplineSet
656 494 m 0,0,1
 681 496 681 496 686.5 503 c 128,-1,2
 692 510 692 510 680 530 c 0,3,4
 671 544 671 544 663 555 c 128,-1,5
 655 566 655 566 643.5 573 c 128,-1,6
 632 580 632 580 615.5 584 c 128,-1,7
 599 588 599 588 574 588 c 1,8,9
 583 609 583 609 589 627 c 128,-1,10
 595 645 595 645 602 662 c 0,11,12
 619 707 619 707 603 740 c 128,-1,13
 587 773 587 773 549 800 c 0,14,15
 506 831 506 831 490 787 c 0,16,17
 473 742 473 742 455.5 689.5 c 128,-1,18
 438 637 438 637 422 581 c 1,19,20
 392 578 392 578 360 575.5 c 128,-1,21
 328 573 328 573 294 570 c 1,22,23
 306 606 306 606 314 636 c 0,24,25
 328 682 328 682 308.5 714 c 128,-1,26
 289 746 289 746 249 772 c 0,27,28
 208 800 208 800 193 758 c 0,29,30
 179 713 179 713 165.5 660.5 c 128,-1,31
 152 608 152 608 138 550 c 1,32,33
 94 542 94 542 57 537 c 128,-1,34
 20 532 20 532 -9 524 c 0,35,36
 -35 518 -35 518 -38 510 c 128,-1,37
 -41 502 -41 502 -25 482 c 0,38,39
 -12 465 -12 465 0 452.5 c 128,-1,40
 12 440 12 440 26.5 432.5 c 128,-1,41
 41 425 41 425 59.5 423 c 128,-1,42
 78 421 78 421 104 426 c 1,43,-1
 109 426 l 1,44,45
 101 393 101 393 96.5 363 c 128,-1,46
 92 333 92 333 85 304 c 1,47,48
 53 296 53 296 25 292 c 128,-1,49
 -3 288 -3 288 -30 280 c 0,50,51
 -53 274 -53 274 -55 266.5 c 128,-1,52
 -57 259 -57 259 -43 240 c 0,53,54
 -19 212 -19 212 4.5 198 c 128,-1,55
 28 184 28 184 65 189 c 1,56,-1
 65 175 l 2,57,58
 62 152 62 152 65.5 135 c 128,-1,59
 69 118 69 118 78 105 c 128,-1,60
 87 92 87 92 100.5 83 c 128,-1,61
 114 74 114 74 131 67 c 0,62,63
 151 59 151 59 159.5 60.5 c 128,-1,64
 168 62 168 62 173 80 c 0,65,66
 181 110 181 110 188 143.5 c 128,-1,67
 195 177 195 177 203 216 c 1,68,69
 235 223 235 223 266 226.5 c 128,-1,70
 297 230 297 230 329 238 c 1,71,72
 326 225 326 225 325 215 c 128,-1,73
 324 205 324 205 319 195 c 1,74,75
 318 182 318 182 317 171.5 c 128,-1,76
 316 161 316 161 318 153 c 0,77,78
 321 128 321 128 336 112 c 128,-1,79
 351 96 351 96 377 85 c 0,80,81
 395 77 395 77 405 78.5 c 128,-1,82
 415 80 415 80 422 98 c 0,83,84
 430 131 430 131 441.5 170 c 128,-1,85
 453 209 453 209 467 257 c 1,86,87
 495 260 495 260 519.5 262.5 c 128,-1,88
 544 265 544 265 570 267 c 0,89,90
 593 270 593 270 597.5 278 c 128,-1,91
 602 286 602 286 590 303 c 0,92,93
 582 316 582 316 574 325 c 128,-1,94
 566 334 566 334 556 340 c 128,-1,95
 546 346 546 346 532 349 c 128,-1,96
 518 352 518 352 497 353 c 1,97,98
 506 385 506 385 516.5 418 c 128,-1,99
 527 451 527 451 538 485 c 1,100,101
 570 488 570 488 599 489.5 c 128,-1,102
 628 491 628 491 656 494 c 0,0,1
388 468 m 1,103,104
 378 434 378 434 370 404 c 128,-1,105
 362 374 362 374 355 343 c 1,106,107
 325 339 325 339 293.5 335.5 c 128,-1,108
 262 332 262 332 230 327 c 1,109,110
 238 359 238 359 245 388 c 128,-1,111
 252 417 252 417 261 451 c 1,112,113
 290 457 290 457 322 460 c 128,-1,114
 354 463 354 463 388 468 c 1,103,104
EndSplineSet
Validated: 41
EndChar

StartChar: dollar
Encoding: 36 36 17
Width: 553
Flags: W
LayerCount: 2
Fore
SplineSet
222 744 m 1,0,1
 202 743 202 743 185 738 c 128,-1,2
 168 733 168 733 154 725 c 0,3,4
 94 690 94 690 54 634.5 c 128,-1,5
 14 579 14 579 -5 525 c 1,6,7
 -19 465 -19 465 3.5 418 c 128,-1,8
 26 371 26 371 69 338 c 0,9,10
 100 314 100 314 137.5 293 c 128,-1,11
 175 272 175 272 206 255 c 128,-1,12
 237 238 237 238 253.5 224.5 c 128,-1,13
 270 211 270 211 258 201 c 0,14,15
 249 193 249 193 231.5 192 c 128,-1,16
 214 191 214 191 189.5 196 c 128,-1,17
 165 201 165 201 136 212.5 c 128,-1,18
 107 224 107 224 76 241 c 0,19,20
 64 249 64 249 49 254 c 128,-1,21
 34 259 34 259 18.5 260 c 128,-1,22
 3 261 3 261 -12.5 258 c 128,-1,23
 -28 255 -28 255 -40 248 c 0,24,25
 -54 238 -54 238 -53 223 c 0,26,27
 -53 210 -53 210 -21 178 c 0,28,29
 3 153 3 153 29 137 c 128,-1,30
 55 121 55 121 82 108 c 1,31,32
 78 96 78 96 77 84.5 c 128,-1,33
 76 73 76 73 75 59 c 0,34,35
 73 23 73 23 86 -11 c 128,-1,36
 99 -45 99 -45 134 -62 c 0,37,38
 154 -72 154 -72 163.5 -69.5 c 128,-1,39
 173 -67 173 -67 177 -50 c 0,40,41
 182 -24 182 -24 190 10.5 c 128,-1,42
 198 45 198 45 207 77 c 1,43,44
 208 76 208 76 219 76 c 2,45,-1
 232 76 l 2,46,47
 273 76 273 76 303 86.5 c 128,-1,48
 333 97 333 97 354.5 113 c 128,-1,49
 376 129 376 129 390 148 c 128,-1,50
 404 167 404 167 413 183 c 0,51,52
 428 223 428 223 411 252.5 c 128,-1,53
 394 282 394 282 360 307.5 c 128,-1,54
 326 333 326 333 283.5 357 c 128,-1,55
 241 381 241 381 206 410 c 0,56,57
 185 429 185 429 180.5 452 c 128,-1,58
 176 475 176 475 182 497.5 c 128,-1,59
 188 520 188 520 201.5 540.5 c 128,-1,60
 215 561 215 561 231 575.5 c 128,-1,61
 247 590 247 590 262.5 598 c 128,-1,62
 278 606 278 606 288 602 c 0,63,64
 295 598 295 598 295 586 c 0,65,66
 299 565 299 565 294.5 536.5 c 128,-1,67
 290 508 290 508 286 487 c 0,68,69
 284 466 284 466 290 449.5 c 128,-1,70
 296 433 296 433 308.5 420 c 128,-1,71
 321 407 321 407 338.5 396.5 c 128,-1,72
 356 386 356 386 377 378 c 0,73,74
 407 367 407 367 424 393 c 0,75,76
 431 408 431 408 438 428.5 c 128,-1,77
 445 449 445 449 450 472 c 128,-1,78
 455 495 455 495 458.5 518 c 128,-1,79
 462 541 462 541 463 559 c 0,80,81
 464 582 464 582 457.5 609 c 128,-1,82
 451 636 451 636 419 665 c 0,83,84
 394 686 394 686 373 698 c 1,85,86
 380 721 380 721 385.5 745 c 128,-1,87
 391 769 391 769 396 789 c 0,88,89
 407 836 407 836 389.5 870 c 128,-1,90
 372 904 372 904 338 927 c 0,91,92
 295 957 295 957 276 914 c 0,93,94
 264 883 264 883 250 836 c 128,-1,95
 236 789 236 789 222 744 c 1,0,1
EndSplineSet
Validated: 41
EndChar

StartChar: percent
Encoding: 37 37 18
Width: 889
Flags: W
LayerCount: 2
Fore
SplineSet
723 672 m 0,0,1
 755 708 755 708 750.5 743.5 c 128,-1,2
 746 779 746 779 718 813 c 0,3,4
 689 853 689 853 659 818 c 0,5,6
 631 788 631 788 597.5 765.5 c 128,-1,7
 564 743 564 743 531 728.5 c 128,-1,8
 498 714 498 714 467 708 c 128,-1,9
 436 702 436 702 412 704 c 0,10,11
 354 709 354 709 323 750 c 0,12,13
 297 785 297 785 281 803 c 1,14,15
 263 817 263 817 238 828.5 c 128,-1,16
 213 840 213 840 181 847 c 0,17,18
 161 851 161 851 135.5 845.5 c 128,-1,19
 110 840 110 840 92 827 c 0,20,21
 53 796 53 796 26.5 749.5 c 128,-1,22
 0 703 0 703 -11.5 652 c 128,-1,23
 -23 601 -23 601 -18.5 551.5 c 128,-1,24
 -14 502 -14 502 8 465 c 0,25,26
 19 448 19 448 34 432.5 c 128,-1,27
 49 417 49 417 64 407 c 0,28,29
 83 396 83 396 106 389.5 c 128,-1,30
 129 383 129 383 150 378 c 0,31,32
 211 371 211 371 257 403 c 0,33,34
 281 421 281 421 297.5 448 c 128,-1,35
 314 475 314 475 324.5 506 c 128,-1,36
 335 537 335 537 339.5 570.5 c 128,-1,37
 344 604 344 604 344 636 c 1,38,39
 386 622 386 622 430.5 626.5 c 128,-1,40
 475 631 475 631 516 653 c 1,41,42
 458 584 458 584 397 506.5 c 128,-1,43
 336 429 336 429 280.5 356.5 c 128,-1,44
 225 284 225 284 180 221.5 c 128,-1,45
 135 159 135 159 109 120 c 0,46,47
 85 80 85 80 94.5 55 c 128,-1,48
 104 30 104 30 133 8 c 0,49,50
 150 -2 150 -2 158.5 -3.5 c 128,-1,51
 167 -5 167 -5 180 8 c 0,52,53
 203 42 203 42 242.5 94 c 128,-1,54
 282 146 282 146 330.5 206.5 c 128,-1,55
 379 267 379 267 433.5 333 c 128,-1,56
 488 399 488 399 540.5 461 c 128,-1,57
 593 523 593 523 640.5 578 c 128,-1,58
 688 633 688 633 723 672 c 0,0,1
764 291 m 0,59,60
 762 311 762 311 752 330 c 128,-1,61
 742 349 742 349 723 365 c 0,62,63
 709 376 709 376 684.5 386.5 c 128,-1,64
 660 397 660 397 635 403 c 0,65,66
 615 406 615 406 590 401.5 c 128,-1,67
 565 397 565 397 547 386 c 0,68,69
 513 364 513 364 488 332 c 128,-1,70
 463 300 463 300 447.5 264 c 128,-1,71
 432 228 432 228 425.5 190.5 c 128,-1,72
 419 153 419 153 423.5 120 c 128,-1,73
 428 87 428 87 443 60.5 c 128,-1,74
 458 34 458 34 484 20 c 0,75,76
 501 10 501 10 521.5 4.5 c 128,-1,77
 542 -1 542 -1 564 -4 c 0,78,79
 618 -13 618 -13 664 16 c 0,80,81
 688 32 688 32 706 55 c 128,-1,82
 724 78 724 78 736.5 104.5 c 128,-1,83
 749 131 749 131 756 159.5 c 128,-1,84
 763 188 763 188 765 217 c 0,85,86
 767 237 767 237 766.5 255.5 c 128,-1,87
 766 274 766 274 764 291 c 0,59,60
202 750 m 0,88,89
 213 746 213 746 216.5 729 c 128,-1,90
 220 712 220 712 220 689 c 0,91,92
 221 666 221 666 218 638 c 128,-1,93
 215 610 215 610 210 581 c 0,94,95
 196 513 196 513 174 482 c 128,-1,96
 152 451 152 451 131 459 c 0,97,98
 110 466 110 466 107 511 c 128,-1,99
 104 556 104 556 118 621 c 0,100,101
 124 644 124 644 134.5 668.5 c 128,-1,102
 145 693 145 693 157.5 712.5 c 128,-1,103
 170 732 170 732 182 743 c 128,-1,104
 194 754 194 754 202 750 c 0,88,89
645 319 m 0,105,106
 652 316 652 316 655 301 c 128,-1,107
 658 286 658 286 656.5 264.5 c 128,-1,108
 655 243 655 243 649.5 217.5 c 128,-1,109
 644 192 644 192 635 170 c 0,110,111
 616 113 616 113 592.5 85 c 128,-1,112
 569 57 569 57 551 64 c 0,113,114
 530 71 530 71 532 109 c 0,115,116
 533 130 533 130 538.5 154 c 128,-1,117
 544 178 544 178 555 206 c 0,118,119
 562 227 562 227 573.5 248.5 c 128,-1,120
 585 270 585 270 598.5 287 c 128,-1,121
 612 304 612 304 624.5 313.5 c 128,-1,122
 637 323 637 323 645 319 c 0,105,106
EndSplineSet
Validated: 41
EndChar

StartChar: ampersand
Encoding: 38 38 19
Width: 778
Flags: W
LayerCount: 2
Fore
SplineSet
462 56 m 1,0,1
 479 44 479 44 488 35 c 0,2,3
 503 24 503 24 514 17.5 c 128,-1,4
 525 11 525 11 534.5 7 c 128,-1,5
 544 3 544 3 553.5 2 c 128,-1,6
 563 1 563 1 574 2 c 0,7,8
 597 6 597 6 611 12.5 c 128,-1,9
 625 19 625 19 642 30 c 0,10,11
 660 41 660 41 661 50.5 c 128,-1,12
 662 60 662 60 641 77 c 0,13,14
 625 91 625 91 610 106 c 128,-1,15
 595 121 595 121 576 138 c 1,16,17
 584 146 584 146 590.5 154 c 128,-1,18
 597 162 597 162 606 170 c 0,19,20
 619 187 619 187 629 204.5 c 128,-1,21
 639 222 639 222 644 240 c 128,-1,22
 649 258 649 258 647.5 276 c 128,-1,23
 646 294 646 294 636 312 c 0,24,25
 627 327 627 327 611 327 c 256,26,27
 595 327 595 327 570 309 c 0,28,29
 544 289 544 289 522 272.5 c 128,-1,30
 500 256 500 256 476 239 c 1,31,32
 450 268 450 268 424.5 297 c 128,-1,33
 399 326 399 326 376 357 c 1,34,35
 428 386 428 386 481 418.5 c 128,-1,36
 534 451 534 451 568 489 c 0,37,38
 635 556 635 556 631.5 636.5 c 128,-1,39
 628 717 628 717 550 798 c 0,40,41
 517 833 517 833 487 851.5 c 128,-1,42
 457 870 457 870 427.5 877.5 c 128,-1,43
 398 885 398 885 367.5 883 c 128,-1,44
 337 881 337 881 303 874 c 0,45,46
 267 866 267 866 232 851.5 c 128,-1,47
 197 837 197 837 166.5 816.5 c 128,-1,48
 136 796 136 796 112 770 c 128,-1,49
 88 744 88 744 73 714 c 0,50,51
 57 682 57 682 51 652 c 128,-1,52
 45 622 45 622 48.5 591.5 c 128,-1,53
 52 561 52 561 65.5 528.5 c 128,-1,54
 79 496 79 496 102 459 c 0,55,56
 108 449 108 449 117 436 c 128,-1,57
 126 423 126 423 137 406 c 1,58,59
 91 380 91 380 52.5 352.5 c 128,-1,60
 14 325 14 325 -13 293 c 0,61,62
 -39 261 -39 261 -51 229 c 128,-1,63
 -63 197 -63 197 -57.5 165 c 128,-1,64
 -52 133 -52 133 -28 101 c 128,-1,65
 -4 69 -4 69 41 37 c 0,66,67
 83 10 83 10 120.5 -2 c 128,-1,68
 158 -14 158 -14 192.5 -16.5 c 128,-1,69
 227 -19 227 -19 258 -13.5 c 128,-1,70
 289 -8 289 -8 316 0 c 0,71,72
 395 18 395 18 462 56 c 1,0,1
284 488 m 1,73,-1
 280 496 l 1,74,75
 239 568 239 568 271 624 c 0,76,77
 280 640 280 640 296.5 656.5 c 128,-1,78
 313 673 313 673 334 687 c 128,-1,79
 355 701 355 701 378.5 711.5 c 128,-1,80
 402 722 402 722 425 727 c 1,81,82
 444 706 444 706 448 682.5 c 128,-1,83
 452 659 452 659 446 636.5 c 128,-1,84
 440 614 440 614 427 594.5 c 128,-1,85
 414 575 414 575 398 563 c 0,86,87
 377 543 377 543 347.5 524 c 128,-1,88
 318 505 318 505 284 488 c 1,73,-1
346 164 m 1,89,90
 272 128 272 128 217.5 116 c 128,-1,91
 163 104 163 104 144 122 c 0,92,93
 135 129 135 129 135 143 c 0,94,95
 134 168 134 168 158 201.5 c 128,-1,96
 182 235 182 235 241 277 c 1,97,98
 269 245 269 245 294 217.5 c 128,-1,99
 319 190 319 190 346 164 c 1,89,90
EndSplineSet
Validated: 41
EndChar

StartChar: quotesingle
Encoding: 39 39 20
Width: 318
Flags: W
LayerCount: 2
Fore
SplineSet
196 625 m 0,0,1
 210 641 210 641 227 666 c 128,-1,2
 244 691 244 691 261 720 c 128,-1,3
 278 749 278 749 292.5 778.5 c 128,-1,4
 307 808 307 808 316 834 c 0,5,6
 320 851 320 851 322.5 861.5 c 128,-1,7
 325 872 325 872 325 877 c 0,8,9
 325 893 325 893 307 919 c 0,10,11
 293 934 293 934 276 948.5 c 128,-1,12
 259 963 259 963 236 977 c 0,13,14
 188 1011 188 1011 169 963 c 0,15,16
 155 928 155 928 136 884 c 128,-1,17
 117 840 117 840 96.5 795.5 c 128,-1,18
 76 751 76 751 57 710 c 128,-1,19
 38 669 38 669 25 642 c 0,20,21
 7 604 7 604 55 595 c 0,22,23
 75 593 75 593 93.5 591 c 128,-1,24
 112 589 112 589 131 592 c 0,25,26
 169 594 169 594 196 625 c 0,0,1
EndSplineSet
Validated: 41
EndChar

StartChar: parenleft
Encoding: 40 40 21
Width: 364
Flags: W
LayerCount: 2
Fore
SplineSet
211 931 m 0,0,1
 125 829 125 829 74 710.5 c 128,-1,2
 23 592 23 592 7.5 473 c 128,-1,3
 -8 354 -8 354 12 241.5 c 128,-1,4
 32 129 32 129 89 38 c 0,5,6
 120 -7 120 -7 157.5 -20.5 c 128,-1,7
 195 -34 195 -34 232 -32 c 0,8,9
 254 -29 254 -29 258 -25 c 128,-1,10
 262 -21 262 -21 252 -4 c 0,11,12
 208 70 208 70 194 161 c 128,-1,13
 180 252 180 252 191 347.5 c 128,-1,14
 202 443 202 443 235 538 c 128,-1,15
 268 633 268 633 318 714 c 0,16,17
 380 814 380 814 287 926 c 0,18,19
 246 976 246 976 211 931 c 0,0,1
EndSplineSet
Validated: 41
EndChar

StartChar: parenright
Encoding: 41 41 22
Width: 406
Flags: W
LayerCount: 2
Fore
SplineSet
290 747 m 0,0,1
 273 812 273 812 225 860 c 128,-1,2
 177 908 177 908 92 923 c 0,3,4
 71 927 71 927 60 925 c 128,-1,5
 49 923 49 923 45 916 c 128,-1,6
 41 909 41 909 43 897.5 c 128,-1,7
 45 886 45 886 50 871 c 0,8,9
 75 794 75 794 87 711 c 128,-1,10
 99 628 99 628 98.5 545 c 128,-1,11
 98 462 98 462 86.5 382 c 128,-1,12
 75 302 75 302 52.5 231 c 128,-1,13
 30 160 30 160 -2 100 c 128,-1,14
 -34 40 -34 40 -74 -2 c 1,15,16
 -95 -31 -95 -31 -52 -35 c 0,17,18
 36 -42 36 -42 88 0 c 0,19,20
 151 54 151 54 199 139.5 c 128,-1,21
 247 225 247 225 275 326 c 128,-1,22
 303 427 303 427 308 536 c 128,-1,23
 313 645 313 645 290 747 c 0,0,1
EndSplineSet
Validated: 41
EndChar

StartChar: asterisk
Encoding: 42 42 23
Width: 712
Flags: W
LayerCount: 2
Fore
SplineSet
621 545 m 0,0,1
 663 553 663 553 638 587 c 0,2,3
 616 619 616 619 584 633.5 c 128,-1,4
 552 648 552 648 493 640 c 0,5,6
 473 637 473 637 453 634.5 c 128,-1,7
 433 632 433 632 413 628 c 1,8,9
 418 650 418 650 425.5 673 c 128,-1,10
 433 696 433 696 442 722 c 0,11,12
 457 767 457 767 438.5 801 c 128,-1,13
 420 835 420 835 379 862 c 0,14,15
 338 892 338 892 323 848 c 0,16,17
 306 797 306 797 293 751.5 c 128,-1,18
 280 706 280 706 270 662 c 1,19,20
 251 677 251 677 235 693 c 128,-1,21
 219 709 219 709 197 727 c 0,22,23
 155 765 155 765 114.5 769.5 c 128,-1,24
 74 774 74 774 35 756 c 0,25,26
 -5 737 -5 737 30 704 c 0,27,28
 74 664 74 664 111.5 631.5 c 128,-1,29
 149 599 149 599 185 570 c 1,30,31
 132 556 132 556 86.5 540.5 c 128,-1,32
 41 525 41 525 3 511 c 0,33,34
 -22 503 -22 503 -22.5 493.5 c 128,-1,35
 -23 484 -23 484 -6 467 c 0,36,37
 9 451 9 451 24.5 438.5 c 128,-1,38
 40 426 40 426 57.5 419 c 128,-1,39
 75 412 75 412 95 412 c 256,40,41
 115 412 115 412 138 420 c 128,-1,42
 161 428 161 428 183 434 c 128,-1,43
 205 440 205 440 228 447 c 1,44,45
 224 434 224 434 223 421 c 128,-1,46
 222 408 222 408 219 392 c 0,47,48
 215 367 215 367 218.5 348.5 c 128,-1,49
 222 330 222 330 231 316.5 c 128,-1,50
 240 303 240 303 254 294 c 128,-1,51
 268 285 268 285 285 278 c 0,52,53
 308 267 308 267 316 269 c 128,-1,54
 324 271 324 271 329 291 c 0,55,56
 339 330 339 330 346.5 364 c 128,-1,57
 354 398 354 398 362 435 c 1,58,59
 380 422 380 422 398.5 407.5 c 128,-1,60
 417 393 417 393 440 379 c 0,61,62
 490 344 490 344 523 344 c 0,63,64
 557 344 557 344 588 360 c 0,65,66
 607 373 607 373 608.5 380 c 128,-1,67
 610 387 610 387 590 403 c 0,68,69
 552 433 552 433 518.5 458 c 128,-1,70
 485 483 485 483 453 510 c 1,71,72
 496 520 496 520 536.5 529 c 128,-1,73
 577 538 577 538 621 545 c 0,0,1
EndSplineSet
Validated: 41
EndChar

StartChar: plus
Encoding: 43 43 24
Width: 732
Flags: W
LayerCount: 2
Fore
SplineSet
581 329 m 0,0,1
 603 329 603 329 610 336 c 128,-1,2
 617 343 617 343 609 363 c 0,3,4
 602 380 602 380 596 395.5 c 128,-1,5
 590 411 590 411 577 431 c 0,6,7
 557 464 557 464 514 466 c 0,8,9
 463 468 463 468 386 466 c 1,10,11
 393 489 393 489 401 510.5 c 128,-1,12
 409 532 409 532 415 552 c 0,13,14
 425 573 425 573 422 585.5 c 128,-1,15
 419 598 419 598 400 615 c 0,16,17
 384 632 384 632 358 647.5 c 128,-1,18
 332 663 332 663 306 673 c 0,19,20
 286 681 286 681 271.5 671.5 c 128,-1,21
 257 662 257 662 250 645 c 0,22,23
 236 608 236 608 223 559.5 c 128,-1,24
 210 511 210 511 196 455 c 1,25,26
 132 452 132 452 74 445.5 c 128,-1,27
 16 439 16 439 -26 431 c 0,28,29
 -44 428 -44 428 -57.5 419 c 128,-1,30
 -71 410 -71 410 -61 391 c 0,31,32
 -52 371 -52 371 -34.5 346.5 c 128,-1,33
 -17 322 -17 322 -1 306 c 0,34,35
 8 298 8 298 15.5 293 c 128,-1,36
 23 288 23 288 30.5 286 c 128,-1,37
 38 284 38 284 46 284.5 c 128,-1,38
 54 285 54 285 66 287 c 0,39,40
 89 291 89 291 114.5 294.5 c 128,-1,41
 140 298 140 298 166 301 c 1,42,43
 161 271 161 271 159 246 c 128,-1,44
 157 221 157 221 155 202 c 0,45,46
 152 167 152 167 187 150 c 0,47,48
 209 138 209 138 226 130.5 c 128,-1,49
 243 123 243 123 262 115 c 0,50,51
 284 106 284 106 291.5 109 c 128,-1,52
 299 112 299 112 304 132 c 0,53,54
 312 170 312 170 322 218 c 128,-1,55
 332 266 332 266 346 318 c 1,56,57
 406 324 406 324 464.5 325.5 c 128,-1,58
 523 327 523 327 581 329 c 0,0,1
EndSplineSet
Validated: 41
EndChar

StartChar: comma
Encoding: 44 44 25
Width: 313
Flags: W
LayerCount: 2
Fore
SplineSet
56 -115 m 0,0,1
 66 -105 66 -105 81 -89 c 128,-1,2
 96 -73 96 -73 111 -55 c 128,-1,3
 126 -37 126 -37 140 -18.5 c 128,-1,4
 154 0 154 0 163 17 c 0,5,6
 174 34 174 34 173.5 46.5 c 128,-1,7
 173 59 173 59 156 73 c 0,8,9
 137 90 137 90 115 102.5 c 128,-1,10
 93 115 93 115 70 126 c 0,11,12
 47 136 47 136 33 134 c 128,-1,13
 19 132 19 132 9 114 c 0,14,15
 -14 59 -14 59 -45.5 8.5 c 128,-1,16
 -77 -42 -77 -42 -103 -89 c 0,17,18
 -119 -117 -119 -117 -83 -127 c 0,19,20
 -64 -134 -64 -134 -42.5 -137.5 c 128,-1,21
 -21 -141 -21 -141 1 -140 c 0,22,23
 17 -138 17 -138 29.5 -133.5 c 128,-1,24
 42 -129 42 -129 56 -115 c 0,0,1
EndSplineSet
Validated: 41
EndChar

StartChar: hyphen
Encoding: 45 45 26
Width: 592
Flags: W
LayerCount: 2
Fore
SplineSet
-105 530 m 0,0,1
 -154 521 -154 521 -118 467 c 0,2,3
 -104 444 -104 444 -88.5 422.5 c 128,-1,4
 -73 401 -73 401 -51 378 c 0,5,6
 -30 355 -30 355 -12 348 c 128,-1,7
 6 341 6 341 27 347 c 0,8,9
 103 367 103 367 192.5 376.5 c 128,-1,10
 282 386 282 386 369 392 c 0,11,12
 394 393 394 393 401 401 c 128,-1,13
 408 409 408 409 398 434 c 0,14,15
 388 454 388 454 378.5 476 c 128,-1,16
 369 498 369 498 354 524 c 0,17,18
 338 546 338 546 320.5 557 c 128,-1,19
 303 568 303 568 280 568 c 0,20,21
 230 568 230 568 176.5 564.5 c 128,-1,22
 123 561 123 561 71 556 c 128,-1,23
 19 551 19 551 -26.5 544 c 128,-1,24
 -72 537 -72 537 -105 530 c 0,0,1
EndSplineSet
Validated: 41
EndChar

StartChar: period
Encoding: 46 46 27
Width: 331
Flags: W
LayerCount: 2
Fore
SplineSet
-30 73 m 0,0,1
 -31 50 -31 50 -23 31.5 c 128,-1,2
 -15 13 -15 13 0 0.5 c 128,-1,3
 15 -12 15 -12 35.5 -19 c 128,-1,4
 56 -26 56 -26 79 -25 c 0,5,6
 101 -25 101 -25 119 -17.5 c 128,-1,7
 137 -10 137 -10 150 0.5 c 128,-1,8
 163 11 163 11 171 23 c 128,-1,9
 179 35 179 35 182 44 c 0,10,11
 187 59 187 59 187 73 c 0,12,13
 188 96 188 96 169.5 119.5 c 128,-1,14
 151 143 151 143 110 156 c 0,15,16
 79 164 79 164 54 160 c 128,-1,17
 29 156 29 156 11 143.5 c 128,-1,18
 -7 131 -7 131 -18 112.5 c 128,-1,19
 -29 94 -29 94 -30 73 c 0,0,1
EndSplineSet
Validated: 41
EndChar

StartChar: slash
Encoding: 47 47 28
Width: 531
Flags: W
LayerCount: 2
Fore
SplineSet
520 801 m 0,0,1
 498 821 498 821 475 838.5 c 128,-1,2
 452 856 452 856 427 871 c 0,3,4
 379 907 379 907 350 857 c 0,5,6
 322 816 322 816 285 751 c 128,-1,7
 248 686 248 686 207.5 609.5 c 128,-1,8
 167 533 167 533 126 452 c 128,-1,9
 85 371 85 371 49.5 297.5 c 128,-1,10
 14 224 14 224 -13.5 165.5 c 128,-1,11
 -41 107 -41 107 -55 76 c 0,12,13
 -65 53 -65 53 -62 36 c 0,14,15
 -60 28 -60 28 -55 20.5 c 128,-1,16
 -50 13 -50 13 -39 7 c 0,17,18
 -25 -2 -25 -2 -9.5 -11 c 128,-1,19
 6 -20 6 -20 28 -31 c 0,20,21
 51 -42 51 -42 62.5 -38.5 c 128,-1,22
 74 -35 74 -35 82 -18 c 0,23,24
 103 19 103 19 136.5 78 c 128,-1,25
 170 137 170 137 211 206.5 c 128,-1,26
 252 276 252 276 297 350.5 c 128,-1,27
 342 425 342 425 384.5 495.5 c 128,-1,28
 427 566 427 566 464.5 625.5 c 128,-1,29
 502 685 502 685 528 725 c 0,30,31
 543 748 543 748 543 763 c 0,32,33
 543 779 543 779 520 801 c 0,0,1
EndSplineSet
Validated: 41
EndChar

StartChar: zero
Encoding: 48 48 29
Width: 685
Flags: W
LayerCount: 2
Fore
SplineSet
532 786 m 0,0,1
 499 812 499 812 448.5 829.5 c 128,-1,2
 398 847 398 847 341 856 c 0,3,4
 299 863 299 863 250.5 850.5 c 128,-1,5
 202 838 202 838 166 810 c 0,6,7
 113 767 113 767 74.5 711.5 c 128,-1,8
 36 656 36 656 10.5 593.5 c 128,-1,9
 -15 531 -15 531 -27.5 465 c 128,-1,10
 -40 399 -40 399 -41 335.5 c 128,-1,11
 -42 272 -42 272 -31 214 c 128,-1,12
 -20 156 -20 156 1 110 c 0,13,14
 17 82 17 82 43.5 60 c 128,-1,15
 70 38 70 38 93 26 c 0,16,17
 129 9 129 9 168 0 c 128,-1,18
 207 -9 207 -9 243 -12 c 0,19,20
 300 -17 300 -17 343 -8 c 128,-1,21
 386 1 386 1 427 35 c 0,22,23
 485 85 485 85 525.5 159.5 c 128,-1,24
 566 234 566 234 589 318 c 128,-1,25
 612 402 612 402 618 487.5 c 128,-1,26
 624 573 624 573 613 645 c 0,27,28
 605 686 605 686 588 720 c 128,-1,29
 571 754 571 754 532 786 c 0,0,1
376 684 m 0,30,31
 396 678 396 678 404 643 c 128,-1,32
 412 608 412 608 410 557 c 0,33,34
 409 507 409 507 401.5 454.5 c 128,-1,35
 394 402 394 402 382 354 c 0,36,37
 369 297 369 297 349 250 c 128,-1,38
 329 203 329 203 306.5 170.5 c 128,-1,39
 284 138 284 138 260.5 123 c 128,-1,40
 237 108 237 108 216 114 c 0,41,42
 194 121 194 121 181.5 150 c 128,-1,43
 169 179 169 179 165.5 220.5 c 128,-1,44
 162 262 162 262 167.5 312 c 128,-1,45
 173 362 173 362 186 412 c 0,46,47
 200 464 200 464 223.5 515.5 c 128,-1,48
 247 567 247 567 274 606.5 c 128,-1,49
 301 646 301 646 328 668 c 128,-1,50
 355 690 355 690 376 684 c 0,30,31
EndSplineSet
Validated: 41
EndChar

StartChar: one
Encoding: 49 49 30
Width: 387
Flags: W
LayerCount: 2
Fore
SplineSet
332 724 m 0,0,1
 342 750 342 750 335 764 c 128,-1,2
 328 778 328 778 301 796 c 0,3,4
 272 816 272 816 243.5 829.5 c 128,-1,5
 215 843 215 843 185 851 c 0,6,7
 170 855 170 855 159 856 c 128,-1,8
 148 857 148 857 139.5 854 c 128,-1,9
 131 851 131 851 123.5 844 c 128,-1,10
 116 837 116 837 106 825 c 0,11,12
 86 798 86 798 63 761.5 c 128,-1,13
 40 725 40 725 23 690 c 0,14,15
 16 675 16 675 15 665.5 c 128,-1,16
 14 656 14 656 19.5 648 c 128,-1,17
 25 640 25 640 38 632.5 c 128,-1,18
 51 625 51 625 71 615 c 1,19,20
 56 548 56 548 41.5 470.5 c 128,-1,21
 27 393 27 393 15.5 319.5 c 128,-1,22
 4 246 4 246 -3.5 183.5 c 128,-1,23
 -11 121 -11 121 -13 84 c 0,24,25
 -15 58 -15 58 -9 43 c 128,-1,26
 -3 28 -3 28 16 17 c 0,27,28
 40 5 40 5 63.5 -0.5 c 128,-1,29
 87 -6 87 -6 111 -12 c 0,30,31
 137 -19 137 -19 145.5 -14 c 128,-1,32
 154 -9 154 -9 159 8 c 0,33,34
 167 52 167 52 178.5 109 c 128,-1,35
 190 166 190 166 204.5 230 c 128,-1,36
 219 294 219 294 235.5 361.5 c 128,-1,37
 252 429 252 429 268.5 494 c 128,-1,38
 285 559 285 559 301.5 618 c 128,-1,39
 318 677 318 677 332 724 c 0,0,1
EndSplineSet
Validated: 41
EndChar

StartChar: two
Encoding: 50 50 31
Width: 619
Flags: W
LayerCount: 2
Fore
SplineSet
221 144 m 1,0,1
 267 177 267 177 314 217 c 128,-1,2
 361 257 361 257 403.5 300 c 128,-1,3
 446 343 446 343 482 386 c 128,-1,4
 518 429 518 429 542 468 c 0,5,6
 564 502 564 502 579.5 534.5 c 128,-1,7
 595 567 595 567 601 599.5 c 128,-1,8
 607 632 607 632 601 665 c 128,-1,9
 595 698 595 698 574 734 c 0,10,11
 558 758 558 758 530.5 783.5 c 128,-1,12
 503 809 503 809 466.5 827.5 c 128,-1,13
 430 846 430 846 386.5 854.5 c 128,-1,14
 343 863 343 863 294 854 c 0,15,16
 211 839 211 839 141 784.5 c 128,-1,17
 71 730 71 730 23 650 c 0,18,19
 10 625 10 625 5 608 c 128,-1,20
 0 591 0 591 2.5 579.5 c 128,-1,21
 5 568 5 568 13.5 561 c 128,-1,22
 22 554 22 554 35 550 c 0,23,24
 57 542 57 542 82 538.5 c 128,-1,25
 107 535 107 535 131.5 536 c 128,-1,26
 156 537 156 537 179 544 c 128,-1,27
 202 551 202 551 221 565 c 0,28,29
 246 589 246 589 272 611.5 c 128,-1,30
 298 634 298 634 321 649 c 128,-1,31
 344 664 344 664 363 669.5 c 128,-1,32
 382 675 382 675 394 666 c 0,33,34
 407 657 407 657 393.5 626 c 128,-1,35
 380 595 380 595 347 549.5 c 128,-1,36
 314 504 314 504 266 449 c 128,-1,37
 218 394 218 394 163 338.5 c 128,-1,38
 108 283 108 283 50 230.5 c 128,-1,39
 -8 178 -8 178 -61 139 c 0,40,41
 -73 130 -73 130 -76.5 121 c 128,-1,42
 -80 112 -80 112 -78 102.5 c 128,-1,43
 -76 93 -76 93 -70.5 84 c 128,-1,44
 -65 75 -65 75 -58 68 c 0,45,46
 -50 59 -50 59 -39.5 48.5 c 128,-1,47
 -29 38 -29 38 -18 28 c 128,-1,48
 -7 18 -7 18 4 9 c 128,-1,49
 15 0 15 0 24 -6 c 0,50,51
 31 -12 31 -12 38 -16 c 128,-1,52
 45 -20 45 -20 54.5 -22 c 128,-1,53
 64 -24 64 -24 78 -23.5 c 128,-1,54
 92 -23 92 -23 114 -19 c 0,55,56
 143 -13 143 -13 187 -6 c 128,-1,57
 231 1 231 1 279 7 c 128,-1,58
 327 13 327 13 374.5 18 c 128,-1,59
 422 23 422 23 458 25 c 0,60,61
 481 28 481 28 487.5 34 c 128,-1,62
 494 40 494 40 486 58 c 0,63,64
 481 73 481 73 470.5 92 c 128,-1,65
 460 111 460 111 448 126 c 0,66,67
 435 144 435 144 420 151.5 c 128,-1,68
 405 159 405 159 382 158 c 0,69,70
 350 157 350 157 306 154 c 128,-1,71
 262 151 262 151 221 144 c 1,0,1
EndSplineSet
Validated: 41
EndChar

StartChar: three
Encoding: 51 51 32
Width: 649
Flags: W
LayerCount: 2
Fore
SplineSet
382 391 m 1,0,1
 431 411 431 411 470.5 433 c 128,-1,2
 510 455 510 455 539 481 c 0,3,4
 563 502 563 502 579.5 533.5 c 128,-1,5
 596 565 596 565 599 603 c 128,-1,6
 602 641 602 641 588.5 683 c 128,-1,7
 575 725 575 725 540 769 c 0,8,9
 505 810 505 810 470 831 c 128,-1,10
 435 852 435 852 401 859.5 c 128,-1,11
 367 867 367 867 336 864.5 c 128,-1,12
 305 862 305 862 278 857 c 0,13,14
 242 849 242 849 207.5 833 c 128,-1,15
 173 817 173 817 143 797 c 128,-1,16
 113 777 113 777 88 754 c 128,-1,17
 63 731 63 731 47 710 c 0,18,19
 21 677 21 677 57 645 c 0,20,21
 75 631 75 631 101 621 c 128,-1,22
 127 611 127 611 155 608 c 128,-1,23
 183 605 183 605 210 609.5 c 128,-1,24
 237 614 237 614 257 629 c 0,25,26
 272 638 272 638 287.5 646.5 c 128,-1,27
 303 655 303 655 319 662.5 c 128,-1,28
 335 670 335 670 349 674.5 c 128,-1,29
 363 679 363 679 375 679 c 0,30,31
 393 679 393 679 400 668 c 0,32,33
 412 653 412 653 399 629.5 c 128,-1,34
 386 606 386 606 346 577.5 c 128,-1,35
 306 549 306 549 238.5 516.5 c 128,-1,36
 171 484 171 484 72 453 c 0,37,38
 32 439 32 439 60 397 c 0,39,40
 91 349 91 349 135.5 325 c 128,-1,41
 180 301 180 301 227 307 c 0,42,43
 264 312 264 312 286.5 310 c 128,-1,44
 309 308 309 308 329 292 c 0,45,46
 338 284 338 284 343.5 270 c 128,-1,47
 349 256 349 256 347.5 238 c 128,-1,48
 346 220 346 220 337 200 c 128,-1,49
 328 180 328 180 309 160 c 0,50,51
 289 140 289 140 266 128.5 c 128,-1,52
 243 117 243 117 214.5 115.5 c 128,-1,53
 186 114 186 114 151.5 122.5 c 128,-1,54
 117 131 117 131 74 152 c 0,55,56
 44 166 44 166 5.5 169.5 c 128,-1,57
 -33 173 -33 173 -64 154 c 0,58,59
 -73 149 -73 149 -78 142.5 c 128,-1,60
 -83 136 -83 136 -81.5 127 c 128,-1,61
 -80 118 -80 118 -69.5 105.5 c 128,-1,62
 -59 93 -59 93 -37 76 c 0,63,64
 34 18 34 18 103 -3 c 128,-1,65
 172 -24 172 -24 235 -24 c 0,66,67
 318 -24 318 -24 385 -1 c 128,-1,68
 452 22 452 22 506 85 c 0,69,70
 529 113 529 113 541 146 c 128,-1,71
 553 179 553 179 550.5 213 c 128,-1,72
 548 247 548 247 529.5 281 c 128,-1,73
 511 315 511 315 473 347 c 0,74,75
 453 364 453 364 430.5 373.5 c 128,-1,76
 408 383 408 383 382 391 c 1,0,1
EndSplineSet
Validated: 41
EndChar

StartChar: four
Encoding: 52 52 33
Width: 711
Flags: W
LayerCount: 2
Fore
SplineSet
535 387 m 1,0,1
 562 475 562 475 587 555 c 128,-1,2
 612 635 612 635 634 698 c 0,3,4
 645 724 645 724 639 738.5 c 128,-1,5
 633 753 633 753 607 771 c 0,6,7
 592 780 592 780 566 793.5 c 128,-1,8
 540 807 540 807 512.5 821 c 128,-1,9
 485 835 485 835 459 846.5 c 128,-1,10
 433 858 433 858 418 864 c 0,11,12
 389 872 389 872 372 869 c 128,-1,13
 355 866 355 866 331 847 c 0,14,15
 300 819 300 819 265 783 c 128,-1,16
 230 747 230 747 193 706.5 c 128,-1,17
 156 666 156 666 120 623 c 128,-1,18
 84 580 84 580 51 538 c 128,-1,19
 18 496 18 496 -9.5 457 c 128,-1,20
 -37 418 -37 418 -56 385 c 0,21,22
 -70 362 -70 362 -68.5 343.5 c 128,-1,23
 -67 325 -67 325 -53 305 c 0,24,25
 -33 282 -33 282 -10 258.5 c 128,-1,26
 13 235 13 235 37 217 c 0,27,28
 58 198 58 198 76.5 197 c 128,-1,29
 95 196 95 196 117 200 c 0,30,31
 158 206 158 206 201 211 c 128,-1,32
 244 216 244 216 289 221 c 1,33,34
 270 128 270 128 262 78 c 0,35,36
 257 52 257 52 264 38.5 c 128,-1,37
 271 25 271 25 292 11 c 0,38,39
 314 0 314 0 337.5 -8.5 c 128,-1,40
 361 -17 361 -17 381 -22 c 0,41,42
 406 -27 406 -27 415.5 -22.5 c 128,-1,43
 425 -18 425 -18 430 1 c 0,44,45
 441 49 441 49 457 108.5 c 128,-1,46
 473 168 473 168 493 238 c 1,47,48
 516 239 516 239 539.5 240 c 128,-1,49
 563 241 563 241 587 242 c 0,50,51
 612 245 612 245 619.5 252.5 c 128,-1,52
 627 260 627 260 622 280 c 0,53,54
 614 299 614 299 610 314.5 c 128,-1,55
 606 330 606 330 595 350 c 0,56,57
 579 385 579 385 535 387 c 1,0,1
132 363 m 1,58,59
 160 396 160 396 192 433.5 c 128,-1,60
 224 471 224 471 258.5 508.5 c 128,-1,61
 293 546 293 546 330 582.5 c 128,-1,62
 367 619 367 619 404 652 c 1,63,64
 383 586 383 586 365.5 516.5 c 128,-1,65
 348 447 348 447 328 379 c 1,66,67
 277 375 277 375 226 371.5 c 128,-1,68
 175 368 175 368 132 363 c 1,58,59
EndSplineSet
Validated: 41
EndChar

StartChar: five
Encoding: 53 53 34
Width: 589
Flags: W
LayerCount: 2
Fore
SplineSet
302 636 m 1,0,1
 372 644 372 644 437 652 c 128,-1,2
 502 660 502 660 561 667 c 0,3,4
 591 671 591 671 599 679 c 128,-1,5
 607 687 607 687 599 713 c 0,6,7
 594 736 594 736 590 761 c 128,-1,8
 586 786 586 786 574 810 c 0,9,10
 556 855 556 855 497 852 c 0,11,12
 422 849 422 849 345.5 844 c 128,-1,13
 269 839 269 839 186 826 c 0,14,15
 129 815 129 815 110 769 c 0,16,17
 71 667 71 667 44.5 585 c 128,-1,18
 18 503 18 503 4 439 c 0,19,20
 -3 410 -3 410 4 393.5 c 128,-1,21
 11 377 11 377 26 366 c 0,22,23
 50 350 50 350 64 341.5 c 128,-1,24
 78 333 78 333 97 320 c 0,25,26
 104 314 104 314 110 310.5 c 128,-1,27
 116 307 116 307 123 306.5 c 128,-1,28
 130 306 130 306 140 307.5 c 128,-1,29
 150 309 150 309 166 314 c 0,30,31
 180 318 180 318 199 321 c 128,-1,32
 218 324 218 324 237 324 c 256,33,34
 256 324 256 324 271 322 c 128,-1,35
 286 320 286 320 293 316 c 0,36,37
 298 309 298 309 303.5 292 c 128,-1,38
 309 275 309 275 308 252 c 0,39,40
 308 230 308 230 299.5 206 c 128,-1,41
 291 182 291 182 277 162 c 0,42,43
 266 147 266 147 251 135 c 128,-1,44
 236 123 236 123 214.5 119.5 c 128,-1,45
 193 116 193 116 164.5 124 c 128,-1,46
 136 132 136 132 98 156 c 0,47,48
 84 165 84 165 65.5 170 c 128,-1,49
 47 175 47 175 27.5 175.5 c 128,-1,50
 8 176 8 176 -11.5 172 c 128,-1,51
 -31 168 -31 168 -46 159 c 0,52,53
 -66 148 -66 148 -61 133 c 1,54,55
 -60 116 -60 116 -19 79 c 1,56,57
 25 28 25 28 84.5 8.5 c 128,-1,58
 144 -11 144 -11 207 -10 c 0,59,60
 264 -9 264 -9 307 5 c 128,-1,61
 350 19 350 19 381 39.5 c 128,-1,62
 412 60 412 60 432 83.5 c 128,-1,63
 452 107 452 107 462 127 c 0,64,65
 511 222 511 222 492.5 296 c 128,-1,66
 474 370 474 370 403 411 c 0,67,68
 321 455 321 455 230 455 c 1,69,70
 244 497 244 497 262 542.5 c 128,-1,71
 280 588 280 588 302 636 c 1,0,1
EndSplineSet
Validated: 41
EndChar

StartChar: six
Encoding: 54 54 35
Width: 612
Flags: W
LayerCount: 2
Fore
SplineSet
270 485 m 1,0,1
 317 557 317 557 377 623.5 c 128,-1,2
 437 690 437 690 510 750 c 0,3,4
 535 773 535 773 530 788 c 128,-1,5
 525 803 525 803 500 818 c 0,6,7
 488 824 488 824 471 831 c 128,-1,8
 454 838 454 838 435 844.5 c 128,-1,9
 416 851 416 851 396.5 856.5 c 128,-1,10
 377 862 377 862 361 865 c 0,11,12
 344 868 344 868 332.5 868.5 c 128,-1,13
 321 869 321 869 312 866 c 128,-1,14
 303 863 303 863 294 856.5 c 128,-1,15
 285 850 285 850 273 840 c 0,16,17
 172 754 172 754 108.5 663.5 c 128,-1,18
 45 573 45 573 9.5 489 c 128,-1,19
 -26 405 -26 405 -38 332.5 c 128,-1,20
 -50 260 -50 260 -48 209 c 0,21,22
 -47 171 -47 171 -37.5 140.5 c 128,-1,23
 -28 110 -28 110 -8.5 85 c 128,-1,24
 11 60 11 60 42 40 c 128,-1,25
 73 20 73 20 117 4 c 0,26,27
 162 -10 162 -10 198 -15 c 128,-1,28
 234 -20 234 -20 262.5 -18 c 128,-1,29
 291 -16 291 -16 313 -8 c 128,-1,30
 335 0 335 0 354 11 c 0,31,32
 383 29 383 29 411.5 59 c 128,-1,33
 440 89 440 89 462 128 c 128,-1,34
 484 167 484 167 497 212 c 128,-1,35
 510 257 510 257 507 305 c 0,36,37
 507 330 507 330 501 353 c 128,-1,38
 495 376 495 376 480 396 c 128,-1,39
 465 416 465 416 439.5 434 c 128,-1,40
 414 452 414 452 375 467 c 0,41,42
 350 477 350 477 324 482 c 128,-1,43
 298 487 298 487 270 485 c 1,0,1
160 274 m 1,44,45
 174 295 174 295 191.5 311 c 128,-1,46
 209 327 209 327 227 336.5 c 128,-1,47
 245 346 245 346 262 348.5 c 128,-1,48
 279 351 279 351 293 346 c 0,49,50
 323 333 323 333 320.5 294 c 128,-1,51
 318 255 318 255 294 206 c 0,52,53
 266 149 266 149 231.5 124 c 128,-1,54
 197 99 197 99 165 114 c 0,55,56
 139 125 139 125 139 167 c 256,57,58
 139 209 139 209 160 274 c 1,44,45
EndSplineSet
Validated: 41
EndChar

StartChar: seven
Encoding: 55 55 36
Width: 643
Flags: W
LayerCount: 2
Fore
SplineSet
379 672 m 1,0,1
 329 603 329 603 282 530.5 c 128,-1,2
 235 458 235 458 192 385 c 128,-1,3
 149 312 149 312 112 240.5 c 128,-1,4
 75 169 75 169 47 103 c 0,5,6
 39 79 39 79 40.5 65 c 128,-1,7
 42 51 42 51 60 34 c 0,8,9
 79 17 79 17 102 3 c 128,-1,10
 125 -11 125 -11 148 -22 c 0,11,12
 171 -31 171 -31 182 -29 c 128,-1,13
 193 -27 193 -27 201 -10 c 0,14,15
 240 65 240 65 289.5 148.5 c 128,-1,16
 339 232 339 232 393.5 316 c 128,-1,17
 448 400 448 400 505 480.5 c 128,-1,18
 562 561 562 561 617 632 c 0,19,20
 638 658 638 658 637.5 680.5 c 128,-1,21
 637 703 637 703 620 727 c 0,22,23
 606 746 606 746 589 770.5 c 128,-1,24
 572 795 572 795 549 821 c 0,25,26
 530 847 530 847 509.5 854.5 c 128,-1,27
 489 862 489 862 458 862 c 0,28,29
 405 860 405 860 343 856 c 128,-1,30
 281 852 281 852 220 846 c 128,-1,31
 159 840 159 840 103 832 c 128,-1,32
 47 824 47 824 5 812 c 0,33,34
 -14 807 -14 807 -19 798 c 128,-1,35
 -24 789 -24 789 -8 767 c 0,36,37
 -2 756 -2 756 7 743 c 128,-1,38
 16 730 16 730 26 717.5 c 128,-1,39
 36 705 36 705 45.5 693.5 c 128,-1,40
 55 682 55 682 62 673 c 0,41,42
 85 652 85 652 109 646.5 c 128,-1,43
 133 641 133 641 156 646 c 0,44,45
 175 648 175 648 202.5 651.5 c 128,-1,46
 230 655 230 655 260 659 c 128,-1,47
 290 663 290 663 321 666.5 c 128,-1,48
 352 670 352 670 379 672 c 1,0,1
EndSplineSet
Validated: 41
EndChar

StartChar: eight
Encoding: 56 56 37
Width: 654
Flags: W
LayerCount: 2
Fore
SplineSet
592 522 m 0,0,1
 618 558 618 558 625 594.5 c 128,-1,2
 632 631 632 631 622.5 666 c 128,-1,3
 613 701 613 701 589 733.5 c 128,-1,4
 565 766 565 766 530 795 c 0,5,6
 471 841 471 841 408.5 857.5 c 128,-1,7
 346 874 346 874 280 849 c 0,8,9
 202 819 202 819 142.5 771 c 128,-1,10
 83 723 83 723 48 660 c 0,11,12
 7 587 7 587 29.5 523 c 128,-1,13
 52 459 52 459 131 406 c 1,14,15
 96 384 96 384 64 360.5 c 128,-1,16
 32 337 32 337 7 310.5 c 128,-1,17
 -18 284 -18 284 -33.5 254 c 128,-1,18
 -49 224 -49 224 -52 191 c 0,19,20
 -57 128 -57 128 -13.5 76.5 c 128,-1,21
 30 25 30 25 118 0 c 0,22,23
 164 -14 164 -14 212.5 -17.5 c 128,-1,24
 261 -21 261 -21 307 -12.5 c 128,-1,25
 353 -4 353 -4 395 18 c 128,-1,26
 437 40 437 40 471 79 c 0,27,28
 501 116 501 116 518.5 153 c 128,-1,29
 536 190 536 190 533 228 c 128,-1,30
 530 266 530 266 501.5 305 c 128,-1,31
 473 344 473 344 412 383 c 1,32,33
 472 416 472 416 519 449 c 128,-1,34
 566 482 566 482 592 522 c 0,0,1
279 307 m 1,35,36
 301 291 301 291 310.5 274 c 128,-1,37
 320 257 320 257 320.5 239 c 128,-1,38
 321 221 321 221 314 202.5 c 128,-1,39
 307 184 307 184 295 165 c 0,40,41
 268 125 268 125 234.5 109.5 c 128,-1,42
 201 94 201 94 176 102 c 0,43,44
 167 105 167 105 159 111.5 c 128,-1,45
 151 118 151 118 146.5 128 c 128,-1,46
 142 138 142 138 142 151 c 0,47,48
 142 165 142 165 150 182 c 0,49,50
 167 216 167 216 199 248 c 128,-1,51
 231 280 231 280 279 307 c 1,35,36
377 703 m 1,52,53
 440 655 440 655 407.5 602 c 128,-1,54
 375 549 375 549 260 478 c 1,55,56
 240 497 240 497 236.5 522.5 c 128,-1,57
 233 548 233 548 247.5 577.5 c 128,-1,58
 262 607 262 607 294 639 c 128,-1,59
 326 671 326 671 377 703 c 1,52,53
EndSplineSet
Validated: 41
EndChar

StartChar: nine
Encoding: 57 57 38
Width: 609
Flags: W
LayerCount: 2
Fore
SplineSet
192 257 m 1,0,1
 114 158 114 158 12 78 c 0,2,3
 1 70 1 70 -2 63.5 c 128,-1,4
 -5 57 -5 57 -3 51 c 128,-1,5
 -1 45 -1 45 4.5 39.5 c 128,-1,6
 10 34 10 34 18 28 c 0,7,8
 41 13 41 13 59.5 5.5 c 128,-1,9
 78 -2 78 -2 102 -12 c 0,10,11
 128 -23 128 -23 145.5 -18 c 128,-1,12
 163 -13 163 -13 184 0 c 0,13,14
 265 50 265 50 336 125 c 128,-1,15
 407 200 407 200 460.5 283 c 128,-1,16
 514 366 514 366 544 449.5 c 128,-1,17
 574 533 574 533 573 601 c 0,18,19
 571 646 571 646 557.5 680.5 c 128,-1,20
 544 715 544 715 518.5 743.5 c 128,-1,21
 493 772 493 772 456 795 c 128,-1,22
 419 818 419 818 371 839 c 0,23,24
 322 858 322 858 282 862.5 c 128,-1,25
 242 867 242 867 210 861.5 c 128,-1,26
 178 856 178 856 152 843.5 c 128,-1,27
 126 831 126 831 106 817 c 0,28,29
 68 788 68 788 37 742.5 c 128,-1,30
 6 697 6 697 -13.5 644 c 128,-1,31
 -33 591 -33 591 -37.5 534.5 c 128,-1,32
 -42 478 -42 478 -28 426 c 0,33,34
 -16 368 -16 368 21.5 330 c 128,-1,35
 59 292 59 292 136 268 c 0,36,37
 150 263 150 263 164 261.5 c 128,-1,38
 178 260 178 260 192 257 c 1,0,1
284 407 m 1,39,40
 244 369 244 369 204 383 c 0,41,42
 187 388 187 388 178 403.5 c 128,-1,43
 169 419 169 419 167 441 c 128,-1,44
 165 463 165 463 169.5 490 c 128,-1,45
 174 517 174 517 183 545 c 0,46,47
 195 576 195 576 211.5 604.5 c 128,-1,48
 228 633 228 633 247 654 c 128,-1,49
 266 675 266 675 285 685 c 128,-1,50
 304 695 304 695 321 689 c 0,51,52
 340 681 340 681 346.5 656 c 128,-1,53
 353 631 353 631 347.5 593.5 c 128,-1,54
 342 556 342 556 326 508 c 128,-1,55
 310 460 310 460 284 407 c 1,39,40
EndSplineSet
Validated: 41
EndChar

StartChar: colon
Encoding: 58 58 39
Width: 369
Flags: W
LayerCount: 2
Fore
SplineSet
20 406 m 0,0,1
 18 380 18 380 27 359.5 c 128,-1,2
 36 339 36 339 52.5 324 c 128,-1,3
 69 309 69 309 91 301.5 c 128,-1,4
 113 294 113 294 137 294 c 256,5,6
 161 294 161 294 179.5 302.5 c 128,-1,7
 198 311 198 311 212 323.5 c 128,-1,8
 226 336 226 336 234.5 349.5 c 128,-1,9
 243 363 243 363 247 374 c 0,10,11
 251 387 251 387 251 406 c 0,12,13
 252 433 252 433 233.5 459.5 c 128,-1,14
 215 486 215 486 171 499 c 0,15,16
 139 508 139 508 112 503.5 c 128,-1,17
 85 499 85 499 65 485.5 c 128,-1,18
 45 472 45 472 33 451 c 128,-1,19
 21 430 21 430 20 406 c 0,0,1
-46 84 m 0,20,21
 -49 61 -49 61 -43.5 43 c 128,-1,22
 -38 25 -38 25 -25 11.5 c 128,-1,23
 -12 -2 -12 -2 6 -11 c 128,-1,24
 24 -20 24 -20 46 -23 c 0,25,26
 91 -31 91 -31 123.5 -14 c 128,-1,27
 156 3 156 3 165 35 c 0,28,29
 168 48 168 48 167.5 66 c 128,-1,30
 167 84 167 84 159.5 101.5 c 128,-1,31
 152 119 152 119 135.5 134 c 128,-1,32
 119 149 119 149 90 157 c 0,33,34
 60 164 60 164 36 161 c 128,-1,35
 12 158 12 158 -5.5 147.5 c 128,-1,36
 -23 137 -23 137 -33 120.5 c 128,-1,37
 -43 104 -43 104 -46 84 c 0,20,21
EndSplineSet
Validated: 41
EndChar

StartChar: semicolon
Encoding: 59 59 40
Width: 390
Flags: W
LayerCount: 2
Fore
SplineSet
90 -138 m 0,0,1
 99 -127 99 -127 110 -108.5 c 128,-1,2
 121 -90 121 -90 132 -68 c 128,-1,3
 143 -46 143 -46 153 -23 c 128,-1,4
 163 0 163 0 169 20 c 1,5,6
 183 46 183 46 164.5 71 c 128,-1,7
 146 96 146 96 101 123 c 0,8,9
 81 136 81 136 63 146.5 c 128,-1,10
 45 157 45 157 30.5 160.5 c 128,-1,11
 16 164 16 164 6.5 159 c 128,-1,12
 -3 154 -3 154 -6 137 c 0,13,14
 -20 70 -20 70 -39 8.5 c 128,-1,15
 -58 -53 -58 -53 -75 -108 c 0,16,17
 -87 -141 -87 -141 -44 -153 c 1,18,19
 0 -170 0 -170 40 -169 c 0,20,21
 57 -167 57 -167 68.5 -161 c 128,-1,22
 80 -155 80 -155 90 -138 c 0,0,1
-63 495 m 0,23,24
 -57 463 -57 463 -43.5 437.5 c 128,-1,25
 -30 412 -30 412 -10.5 394 c 128,-1,26
 9 376 9 376 32 366.5 c 128,-1,27
 55 357 55 357 80 357 c 0,28,29
 106 357 106 357 123.5 367.5 c 128,-1,30
 141 378 141 378 152 393 c 128,-1,31
 163 408 163 408 168.5 424.5 c 128,-1,32
 174 441 174 441 176 454 c 0,33,34
 178 472 178 472 174.5 494.5 c 128,-1,35
 171 517 171 517 159 539 c 128,-1,36
 147 561 147 561 125 580 c 128,-1,37
 103 599 103 599 69 610 c 0,38,39
 36 622 36 622 10 616 c 128,-1,40
 -16 610 -16 610 -33.5 592.5 c 128,-1,41
 -51 575 -51 575 -59 549 c 128,-1,42
 -67 523 -67 523 -63 495 c 0,23,24
EndSplineSet
Validated: 41
EndChar

StartChar: less
Encoding: 60 60 41
Width: 522
Flags: W
LayerCount: 2
Fore
SplineSet
403 481 m 0,0,1
 426 488 426 488 429 498 c 128,-1,2
 432 508 432 508 418 525 c 0,3,4
 394 555 394 555 360 586 c 0,5,6
 346 598 346 598 334.5 602 c 128,-1,7
 323 606 323 606 308.5 604.5 c 128,-1,8
 294 603 294 603 275 596 c 128,-1,9
 256 589 256 589 228 580 c 0,10,11
 202 570 202 570 174 558 c 128,-1,12
 146 546 146 546 119 534 c 128,-1,13
 92 522 92 522 67 510 c 128,-1,14
 42 498 42 498 23 488 c 0,15,16
 6 481 6 481 -3 467.5 c 128,-1,17
 -12 454 -12 454 -16 437.5 c 128,-1,18
 -20 421 -20 421 -21 403.5 c 128,-1,19
 -22 386 -22 386 -25 370 c 0,20,21
 -27 365 -27 365 -27 357 c 0,22,23
 -27 350 -27 350 -25 339 c 0,24,25
 -22 328 -22 328 -7 320 c 0,26,27
 74 290 74 290 153.5 259 c 128,-1,28
 233 228 233 228 303 193 c 0,29,30
 325 182 325 182 334.5 185 c 128,-1,31
 344 188 344 188 353 206 c 0,32,33
 363 228 363 228 369 268 c 0,34,35
 371 287 371 287 362.5 298 c 128,-1,36
 354 309 354 309 335 320 c 0,37,38
 306 336 306 336 267 353.5 c 128,-1,39
 228 371 228 371 180 391 c 1,40,41
 237 415 237 415 292 438 c 128,-1,42
 347 461 347 461 403 481 c 0,0,1
EndSplineSet
Validated: 41
EndChar

StartChar: equal
Encoding: 61 61 42
Width: 654
Flags: W
LayerCount: 2
Fore
SplineSet
100 421 m 0,0,1
 207 434 207 434 314 436.5 c 128,-1,2
 421 439 421 439 535 437 c 0,3,4
 558 435 558 435 566 441.5 c 128,-1,5
 574 448 574 448 569 468 c 0,6,7
 564 485 564 485 558 501 c 128,-1,8
 552 517 552 517 543 537 c 0,9,10
 527 570 527 570 479 574 c 0,11,12
 431 579 431 579 372 580.5 c 128,-1,13
 313 582 313 582 252 581.5 c 128,-1,14
 191 581 191 581 131.5 577.5 c 128,-1,15
 72 574 72 574 23 568 c 0,16,17
 3 565 3 565 -8.5 555 c 128,-1,18
 -20 545 -20 545 -11 523 c 0,19,20
 -3 505 -3 505 9 485 c 128,-1,21
 21 465 21 465 32 448 c 0,22,23
 46 428 46 428 60.5 423.5 c 128,-1,24
 75 419 75 419 100 421 c 0,0,1
96 196 m 0,25,26
 195 212 195 212 297.5 221.5 c 128,-1,27
 400 231 400 231 507 234 c 0,28,29
 530 235 530 235 537 241 c 128,-1,30
 544 247 544 247 537 266 c 0,31,32
 532 282 532 282 525.5 297 c 128,-1,33
 519 312 519 312 506 329 c 0,34,35
 488 360 488 360 446 360 c 0,36,37
 397 361 397 361 341 359.5 c 128,-1,38
 285 358 285 358 227 354 c 128,-1,39
 169 350 169 350 113 343.5 c 128,-1,40
 57 337 57 337 8 329 c 0,41,42
 -12 326 -12 326 -21 315 c 128,-1,43
 -30 304 -30 304 -19 284 c 0,44,45
 -9 269 -9 269 3 250.5 c 128,-1,46
 15 232 15 232 28 217 c 0,47,48
 42 201 42 201 56.5 196 c 128,-1,49
 71 191 71 191 96 196 c 0,25,26
EndSplineSet
Validated: 41
EndChar

StartChar: greater
Encoding: 62 62 43
Width: 555
Flags: W
LayerCount: 2
Fore
SplineSet
465 420 m 0,0,1
 473 445 473 445 465 454.5 c 128,-1,2
 457 464 457 464 438 474 c 0,3,4
 395 495 395 495 347.5 515.5 c 128,-1,5
 300 536 300 536 253 555 c 128,-1,6
 206 574 206 574 162 590 c 128,-1,7
 118 606 118 606 84 617 c 0,8,9
 65 623 65 623 51.5 619.5 c 128,-1,10
 38 616 38 616 34 599 c 0,11,12
 32 578 32 578 33 552 c 128,-1,13
 34 526 34 526 39 509 c 0,14,15
 43 498 43 498 46.5 491.5 c 128,-1,16
 50 485 50 485 55 480 c 128,-1,17
 60 475 60 475 67.5 471.5 c 128,-1,18
 75 468 75 468 87 465 c 0,19,20
 125 451 125 451 163 437.5 c 128,-1,21
 201 424 201 424 239 407 c 1,22,23
 170 388 170 388 107 366.5 c 128,-1,24
 44 345 44 345 0 326 c 0,25,26
 -14 319 -14 319 -20.5 309.5 c 128,-1,27
 -27 300 -27 300 -13 284 c 0,28,29
 6 266 6 266 25 248.5 c 128,-1,30
 44 231 44 231 61 219 c 0,31,32
 80 206 80 206 91.5 205 c 128,-1,33
 103 204 103 204 120 213 c 0,34,35
 180 238 180 238 243 258 c 128,-1,36
 306 278 306 278 386 301 c 0,37,38
 397 305 397 305 405 308.5 c 128,-1,39
 413 312 413 312 419 316.5 c 128,-1,40
 425 321 425 321 429 327.5 c 128,-1,41
 433 334 433 334 438 344 c 0,42,43
 446 360 446 360 452.5 379 c 128,-1,44
 459 398 459 398 465 420 c 0,0,1
EndSplineSet
Validated: 41
EndChar

StartChar: question
Encoding: 63 63 44
Width: 679
Flags: W
LayerCount: 2
Fore
SplineSet
127 202 m 0,0,1
 148 193 148 193 173 183 c 128,-1,2
 198 173 198 173 219 169 c 128,-1,3
 240 165 240 165 253.5 169.5 c 128,-1,4
 267 174 267 174 266 193 c 0,5,6
 272 235 272 235 289.5 265.5 c 128,-1,7
 307 296 307 296 331.5 319 c 128,-1,8
 356 342 356 342 385 360 c 128,-1,9
 414 378 414 378 443.5 395.5 c 128,-1,10
 473 413 473 413 500.5 431.5 c 128,-1,11
 528 450 528 450 550 474 c 128,-1,12
 572 498 572 498 590.5 531 c 128,-1,13
 609 564 609 564 613.5 603.5 c 128,-1,14
 618 643 618 643 604.5 688 c 128,-1,15
 591 733 591 733 551 782 c 0,16,17
 532 807 532 807 503.5 829.5 c 128,-1,18
 475 852 475 852 438.5 867 c 128,-1,19
 402 882 402 882 359 887 c 128,-1,20
 316 892 316 892 269 883 c 0,21,22
 191 869 191 869 124.5 820 c 128,-1,23
 58 771 58 771 8 695 c 0,24,25
 -8 671 -8 671 -14 654.5 c 128,-1,26
 -20 638 -20 638 -17.5 627 c 128,-1,27
 -15 616 -15 616 -6.5 608.5 c 128,-1,28
 2 601 2 601 15 596 c 0,29,30
 65 575 65 575 117.5 578.5 c 128,-1,31
 170 582 170 582 205 611 c 0,32,33
 229 630 229 630 252.5 649.5 c 128,-1,34
 276 669 276 669 298.5 684.5 c 128,-1,35
 321 700 321 700 343.5 710 c 128,-1,36
 366 720 366 720 389 720 c 0,37,38
 405 720 405 720 419 711.5 c 128,-1,39
 433 703 433 703 436 683 c 0,40,41
 440 654 440 654 413 614 c 128,-1,42
 386 574 386 574 311 529 c 0,43,44
 282 510 282 510 245.5 486 c 128,-1,45
 209 462 209 462 177 431 c 128,-1,46
 145 400 145 400 122 360 c 128,-1,47
 99 320 99 320 96 268 c 0,48,49
 93 242 93 242 99 228 c 128,-1,50
 105 214 105 214 127 202 c 0,0,1
45 65 m 0,51,52
 43 42 43 42 50.5 25 c 128,-1,53
 58 8 58 8 72.5 -4.5 c 128,-1,54
 87 -17 87 -17 106.5 -24 c 128,-1,55
 126 -31 126 -31 148 -34 c 0,56,57
 198 -41 198 -41 229 -23 c 128,-1,58
 260 -5 260 -5 268 23 c 0,59,60
 270 26 270 26 270 35 c 2,61,-1
 270 50 l 2,62,63
 270 62 270 62 266.5 73.5 c 128,-1,64
 263 85 263 85 254 96 c 128,-1,65
 245 107 245 107 229.5 116.5 c 128,-1,66
 214 126 214 126 190 133 c 0,67,68
 158 142 158 142 131.5 140 c 128,-1,69
 105 138 105 138 86 127.5 c 128,-1,70
 67 117 67 117 56.5 100.5 c 128,-1,71
 46 84 46 84 45 65 c 0,51,52
EndSplineSet
Validated: 41
EndChar

StartChar: at
Encoding: 64 64 45
Width: 892
Flags: W
LayerCount: 2
Fore
SplineSet
789 312 m 0,0,1
 815 380 815 380 817.5 453.5 c 128,-1,2
 820 527 820 527 794.5 594 c 128,-1,3
 769 661 769 661 713.5 716.5 c 128,-1,4
 658 772 658 772 569 805 c 0,5,6
 508 828 508 828 443.5 835.5 c 128,-1,7
 379 843 379 843 316.5 833.5 c 128,-1,8
 254 824 254 824 196 798.5 c 128,-1,9
 138 773 138 773 91.5 731.5 c 128,-1,10
 45 690 45 690 12 632 c 128,-1,11
 -21 574 -21 574 -34 500 c 0,12,13
 -50 393 -50 393 -28.5 311.5 c 128,-1,14
 -7 230 -7 230 37 171 c 128,-1,15
 81 112 81 112 139.5 75 c 128,-1,16
 198 38 198 38 256 22 c 0,17,18
 324 1 324 1 375 0.5 c 128,-1,19
 426 0 426 0 462 11 c 0,20,21
 474 15 474 15 475.5 23 c 128,-1,22
 477 31 477 31 469 41 c 0,23,24
 454 56 454 56 430.5 66.5 c 128,-1,25
 407 77 407 77 384 82 c 0,26,27
 368 85 368 85 354 85.5 c 128,-1,28
 340 86 340 86 325 86.5 c 128,-1,29
 310 87 310 87 293.5 89 c 128,-1,30
 277 91 277 91 256 96 c 0,31,32
 237 101 237 101 215 113 c 128,-1,33
 193 125 193 125 171.5 144.5 c 128,-1,34
 150 164 150 164 132 192.5 c 128,-1,35
 114 221 114 221 103.5 258 c 128,-1,36
 93 295 93 295 92.5 341.5 c 128,-1,37
 92 388 92 388 106 445 c 0,38,39
 128 538 128 538 176 603 c 128,-1,40
 224 668 224 668 284 704 c 128,-1,41
 344 740 344 740 410.5 747.5 c 128,-1,42
 477 755 477 755 536 734 c 0,43,44
 581 717 581 717 610.5 690.5 c 128,-1,45
 640 664 640 664 657 631.5 c 128,-1,46
 674 599 674 599 680.5 563 c 128,-1,47
 687 527 687 527 686.5 491.5 c 128,-1,48
 686 456 686 456 680 423 c 128,-1,49
 674 390 674 390 666 364 c 0,50,51
 651 317 651 317 633 282.5 c 128,-1,52
 615 248 615 248 597.5 227 c 128,-1,53
 580 206 580 206 564 199.5 c 128,-1,54
 548 193 548 193 537 201 c 0,55,56
 530 206 530 206 530 223 c 0,57,58
 531 243 531 243 538 276 c 128,-1,59
 545 309 545 309 554.5 343.5 c 128,-1,60
 564 378 564 378 572.5 407.5 c 128,-1,61
 581 437 581 437 585 451 c 0,62,63
 588 464 588 464 589 474.5 c 128,-1,64
 590 485 590 485 586 494 c 128,-1,65
 582 503 582 503 571.5 512 c 128,-1,66
 561 521 561 521 542 531 c 1,67,68
 534 560 534 560 514 581.5 c 128,-1,69
 494 603 494 603 465 613 c 0,70,71
 425 625 425 625 383 613.5 c 128,-1,72
 341 602 341 602 304.5 572 c 128,-1,73
 268 542 268 542 239 496 c 128,-1,74
 210 450 210 450 195 394 c 0,75,76
 179 341 179 341 184 302.5 c 128,-1,77
 189 264 189 264 207 237.5 c 128,-1,78
 225 211 225 211 251 194.5 c 128,-1,79
 277 178 277 178 304 171 c 0,80,81
 346 160 346 160 382 164.5 c 128,-1,82
 418 169 418 169 446 191 c 1,83,84
 474 149 474 149 528 137 c 0,85,86
 561 127 561 127 596.5 128 c 128,-1,87
 632 129 632 129 666.5 147.5 c 128,-1,88
 701 166 701 166 732.5 205.5 c 128,-1,89
 764 245 764 245 789 312 c 0,0,1
482 511 m 1,90,91
 465 449 465 449 446 396.5 c 128,-1,92
 427 344 427 344 408 306.5 c 128,-1,93
 389 269 389 269 370 249.5 c 128,-1,94
 351 230 351 230 335 235 c 0,95,96
 326 237 326 237 318.5 245 c 128,-1,97
 311 253 311 253 308.5 269 c 128,-1,98
 306 285 306 285 309 310 c 128,-1,99
 312 335 312 335 323 371 c 0,100,101
 334 408 334 408 353.5 440.5 c 128,-1,102
 373 473 373 473 394 496 c 128,-1,103
 415 519 415 519 433 531.5 c 128,-1,104
 451 544 451 544 459 542 c 0,105,106
 477 534 477 534 482 511 c 1,90,91
EndSplineSet
Validated: 41
EndChar

StartChar: A
Encoding: 65 65 46
Width: 718
Flags: W
AnchorPoint: "top" 433 980 basechar 0
LayerCount: 2
Fore
SplineSet
417 189 m 1,0,1
 420 148 420 148 423 113.5 c 128,-1,2
 426 79 426 79 430 50 c 0,3,4
 434 22 434 22 443.5 11 c 128,-1,5
 453 0 453 0 477 -7 c 0,6,7
 500 -15 500 -15 522 -16.5 c 128,-1,8
 544 -18 544 -18 570 -18 c 256,9,10
 596 -18 596 -18 603.5 -11 c 128,-1,11
 611 -4 611 -4 611 14 c 0,12,13
 610 100 610 100 610.5 200.5 c 128,-1,14
 611 301 611 301 613 401 c 128,-1,15
 615 501 615 501 619 593 c 128,-1,16
 623 685 623 685 629 756 c 0,17,18
 632 785 632 785 623.5 803 c 128,-1,19
 615 821 615 821 584 832 c 0,20,21
 561 838 561 838 538.5 845 c 128,-1,22
 516 852 516 852 489.5 858 c 128,-1,23
 463 864 463 864 431 868.5 c 128,-1,24
 399 873 399 873 358 875 c 0,25,26
 311 879 311 879 287 862 c 128,-1,27
 263 845 263 845 248 818 c 0,28,29
 206 743 206 743 159.5 646.5 c 128,-1,30
 113 550 113 550 68.5 451 c 128,-1,31
 24 352 24 352 -14.5 259 c 128,-1,32
 -53 166 -53 166 -77 97 c 0,33,34
 -83 76 -83 76 -82.5 63.5 c 128,-1,35
 -82 51 -82 51 -77 43 c 128,-1,36
 -72 35 -72 35 -63 29.5 c 128,-1,37
 -54 24 -54 24 -42 16 c 0,38,39
 -26 8 -26 8 -10.5 1.5 c 128,-1,40
 5 -5 5 -5 18 -10 c 0,41,42
 41 -18 41 -18 52.5 -15 c 128,-1,43
 64 -12 64 -12 72 5 c 0,44,45
 86 37 86 37 101 70.5 c 128,-1,46
 116 104 116 104 136 143 c 1,47,48
 193 158 193 158 267.5 168.5 c 128,-1,49
 342 179 342 179 417 189 c 1,0,1
226 329 m 1,50,51
 273 424 273 424 319.5 512.5 c 128,-1,52
 366 601 366 601 406 674 c 1,53,54
 404 594 404 594 405 512.5 c 128,-1,55
 406 431 406 431 408 349 c 1,56,57
 362 346 362 346 316.5 341 c 128,-1,58
 271 336 271 336 226 329 c 1,50,51
EndSplineSet
Validated: 41
EndChar

StartChar: B
Encoding: 66 66 47
Width: 694
Flags: W
LayerCount: 2
Fore
SplineSet
480 383 m 1,0,1
 514 400 514 400 539 418.5 c 128,-1,2
 564 437 564 437 588 455 c 0,3,4
 610 474 610 474 629 495.5 c 128,-1,5
 648 517 648 517 661 542 c 128,-1,6
 674 567 674 567 679.5 594 c 128,-1,7
 685 621 685 621 680 650 c 0,8,9
 669 703 669 703 645.5 743 c 128,-1,10
 622 783 622 783 587 818 c 0,11,12
 560 844 560 844 518 857.5 c 128,-1,13
 476 871 476 871 425.5 874 c 128,-1,14
 375 877 375 877 319 871 c 128,-1,15
 263 865 263 865 208.5 852 c 128,-1,16
 154 839 154 839 104 821 c 128,-1,17
 54 803 54 803 16 782 c 1,18,19
 14 705 14 705 6.5 619.5 c 128,-1,20
 -1 534 -1 534 -10.5 449.5 c 128,-1,21
 -20 365 -20 365 -28 286.5 c 128,-1,22
 -36 208 -36 208 -39 146 c 0,23,24
 -41 127 -41 127 -39 115 c 128,-1,25
 -37 103 -37 103 -32 93.5 c 128,-1,26
 -27 84 -27 84 -18.5 75.5 c 128,-1,27
 -10 67 -10 67 1 55 c 0,28,29
 31 32 31 32 53.5 17.5 c 128,-1,30
 76 3 76 3 106 -10 c 0,31,32
 122 -19 122 -19 134 -23 c 128,-1,33
 146 -27 146 -27 158.5 -28 c 128,-1,34
 171 -29 171 -29 184.5 -27 c 128,-1,35
 198 -25 198 -25 217 -20 c 0,36,37
 253 -11 253 -11 293 2.5 c 128,-1,38
 333 16 333 16 372.5 33 c 128,-1,39
 412 50 412 50 447.5 71 c 128,-1,40
 483 92 483 92 509 115 c 0,41,42
 547 145 547 145 564 176.5 c 128,-1,43
 581 208 581 208 576 253 c 0,44,45
 568 291 568 291 543.5 327 c 128,-1,46
 519 363 519 363 480 383 c 1,0,1
216 454 m 1,47,48
 230 507 230 507 240 554 c 128,-1,49
 250 601 250 601 264 644 c 1,50,51
 307 664 307 664 344 674 c 128,-1,52
 381 684 381 684 409.5 685.5 c 128,-1,53
 438 687 438 687 456 680.5 c 128,-1,54
 474 674 474 674 478 661 c 0,55,56
 482 645 482 645 466 618.5 c 128,-1,57
 450 592 450 592 415.5 562.5 c 128,-1,58
 381 533 381 533 330.5 504 c 128,-1,59
 280 475 280 475 216 454 c 1,47,48
178 288 m 1,60,61
 218 301 218 301 251 305.5 c 128,-1,62
 284 310 284 310 309 307 c 128,-1,63
 334 304 334 304 349 296 c 128,-1,64
 364 288 364 288 369 278 c 0,65,66
 373 261 373 261 358.5 240.5 c 128,-1,67
 344 220 344 220 314 199.5 c 128,-1,68
 284 179 284 179 241 160.5 c 128,-1,69
 198 142 198 142 146 129 c 1,70,71
 153 169 153 169 161.5 207.5 c 128,-1,72
 170 246 170 246 178 288 c 1,60,61
EndSplineSet
Validated: 41
EndChar

StartChar: C
Encoding: 67 67 48
Width: 642
Flags: W
LayerCount: 2
Fore
SplineSet
474 210 m 0,0,1
 379 237 379 237 320 177 c 0,2,3
 238 93 238 93 198 106 c 0,4,5
 177 112 177 112 166 140 c 128,-1,6
 155 168 155 168 153 208.5 c 128,-1,7
 151 249 151 249 157.5 298.5 c 128,-1,8
 164 348 164 348 177 398 c 0,9,10
 191 446 191 446 215.5 502 c 128,-1,11
 240 558 240 558 268 604.5 c 128,-1,12
 296 651 296 651 323 680 c 128,-1,13
 350 709 350 709 370 703 c 0,14,15
 390 695 390 695 394 669 c 128,-1,16
 398 643 398 643 397 611 c 0,17,18
 397 593 397 593 400 572 c 0,19,20
 404 547 404 547 413 528 c 128,-1,21
 422 509 422 509 437 494.5 c 128,-1,22
 452 480 452 480 475 469.5 c 128,-1,23
 498 459 498 459 530 453 c 0,24,25
 547 450 547 450 557 451 c 128,-1,26
 567 452 567 452 572.5 456 c 128,-1,27
 578 460 578 460 581 467 c 128,-1,28
 584 474 584 474 587 482 c 0,29,30
 593 500 593 500 598 522.5 c 128,-1,31
 603 545 603 545 606 569.5 c 128,-1,32
 609 594 609 594 610.5 619 c 128,-1,33
 612 644 612 644 611 667 c 0,34,35
 610 687 610 687 607 704.5 c 128,-1,36
 604 722 604 722 596.5 738 c 128,-1,37
 589 754 589 754 576.5 769.5 c 128,-1,38
 564 785 564 785 545 801 c 0,39,40
 525 814 525 814 500 826.5 c 128,-1,41
 475 839 475 839 447 849.5 c 128,-1,42
 419 860 419 860 389 867.5 c 128,-1,43
 359 875 359 875 331 878 c 0,44,45
 293 881 293 881 250 870 c 128,-1,46
 207 859 207 859 165 823 c 0,47,48
 113 778 113 778 72.5 718.5 c 128,-1,49
 32 659 32 659 3 592 c 128,-1,50
 -26 525 -26 525 -42.5 454.5 c 128,-1,51
 -59 384 -59 384 -62 317.5 c 128,-1,52
 -65 251 -65 251 -54.5 192.5 c 128,-1,53
 -44 134 -44 134 -18 91 c 0,54,55
 -3 63 -3 63 24 42 c 128,-1,56
 51 21 51 21 78 10 c 0,57,58
 108 0 108 0 146 -11.5 c 128,-1,59
 184 -23 184 -23 231 -26 c 0,60,61
 253 -28 253 -28 276.5 -26 c 128,-1,62
 300 -24 300 -24 321.5 -19 c 128,-1,63
 343 -14 343 -14 362.5 -6 c 128,-1,64
 382 2 382 2 396 11 c 0,65,66
 424 31 424 31 452 61 c 128,-1,67
 480 91 480 91 498 127 c 0,68,69
 515 158 515 158 513.5 179 c 128,-1,70
 512 200 512 200 474 210 c 0,0,1
EndSplineSet
Validated: 41
EndChar

StartChar: D
Encoding: 68 68 49
Width: 733
Flags: W
LayerCount: 2
Fore
SplineSet
16 792 m 1,0,-1
 -42 157 l 2,1,2
 -45 132 -45 132 -43 116 c 128,-1,3
 -41 100 -41 100 -34.5 89 c 128,-1,4
 -28 78 -28 78 -19 69.5 c 128,-1,5
 -10 61 -10 61 0 52 c 0,6,7
 27 32 27 32 48 18.5 c 128,-1,8
 69 5 69 5 97 -9 c 0,9,10
 153 -36 153 -36 204 -18 c 0,11,12
 304 10 304 10 383 57 c 128,-1,13
 462 104 462 104 519.5 163 c 128,-1,14
 577 222 577 222 613 289 c 128,-1,15
 649 356 649 356 663.5 423.5 c 128,-1,16
 678 491 678 491 671 555 c 128,-1,17
 664 619 664 619 636 673 c 0,18,19
 603 741 603 741 555 782 c 128,-1,20
 507 823 507 823 450.5 843.5 c 128,-1,21
 394 864 394 864 333.5 866.5 c 128,-1,22
 273 869 273 869 215 859.5 c 128,-1,23
 157 850 157 850 105.5 831.5 c 128,-1,24
 54 813 54 813 16 792 c 1,0,-1
150 139 m 1,25,26
 175 269 175 269 202 396.5 c 128,-1,27
 229 524 229 524 264 655 c 1,28,29
 329 676 329 676 374 659 c 128,-1,30
 419 642 419 642 437 608 c 128,-1,31
 455 574 455 574 451 513 c 0,32,33
 448 469 448 469 430 418 c 128,-1,34
 412 367 412 367 376 316 c 128,-1,35
 340 265 340 265 284 218.5 c 128,-1,36
 228 172 228 172 150 139 c 1,25,26
EndSplineSet
Validated: 41
EndChar

StartChar: E
Encoding: 69 69 50
Width: 577
Flags: W
AnchorPoint: "top" 287 940 basechar 0
LayerCount: 2
Fore
SplineSet
41 798 m 1,0,-1
 -54 133 l 2,1,2
 -56 106 -56 106 -46.5 87 c 128,-1,3
 -37 68 -37 68 -20 54 c 0,4,5
 1 36 1 36 16.5 24.5 c 128,-1,6
 32 13 32 13 49 2 c 0,7,8
 64 -8 64 -8 84.5 -13.5 c 128,-1,9
 105 -19 105 -19 145 -9 c 0,10,11
 205 2 205 2 271 15 c 128,-1,12
 337 28 337 28 401 40 c 0,13,14
 428 45 428 45 433 52.5 c 128,-1,15
 438 60 438 60 433 80 c 0,16,17
 425 98 425 98 418.5 115.5 c 128,-1,18
 412 133 412 133 400 153 c 0,19,20
 389 171 389 171 373.5 177 c 128,-1,21
 358 183 358 183 330 181 c 0,22,23
 280 178 280 178 237.5 173 c 128,-1,24
 195 168 195 168 148 160 c 1,25,26
 156 188 156 188 163 216.5 c 128,-1,27
 170 245 170 245 178 277 c 1,28,29
 236 289 236 289 298.5 299 c 128,-1,30
 361 309 361 309 421 320 c 0,31,32
 449 326 449 326 455.5 334 c 128,-1,33
 462 342 462 342 454 365 c 0,34,35
 449 385 449 385 442.5 404.5 c 128,-1,36
 436 424 436 424 424 444 c 0,37,38
 413 464 413 464 397 470 c 128,-1,39
 381 476 381 476 353 475 c 0,40,41
 319 474 319 474 289 472 c 128,-1,42
 259 470 259 470 229 466 c 1,43,44
 245 519 245 519 258 567.5 c 128,-1,45
 271 616 271 616 286 661 c 1,46,47
 357 671 357 671 421 678 c 128,-1,48
 485 685 485 685 545 692 c 0,49,50
 574 696 574 696 582 705 c 128,-1,51
 590 714 590 714 586 740 c 0,52,53
 581 763 581 763 576 782.5 c 128,-1,54
 571 802 571 802 558 826 c 1,55,56
 542 871 542 871 485 870 c 0,57,58
 425 868 425 868 364.5 860.5 c 128,-1,59
 304 853 304 853 246.5 843 c 128,-1,60
 189 833 189 833 136.5 821 c 128,-1,61
 84 809 84 809 41 798 c 1,0,-1
EndSplineSet
Validated: 41
EndChar

StartChar: F
Encoding: 70 70 51
Width: 570
Flags: W
LayerCount: 2
Fore
SplineSet
543 692 m 0,0,1
 573 696 573 696 580 704.5 c 128,-1,2
 587 713 587 713 583 739 c 0,3,4
 579 782 579 782 552 827 c 0,5,6
 543 841 543 841 535 849.5 c 128,-1,7
 527 858 527 858 518.5 862.5 c 128,-1,8
 510 867 510 867 499.5 868.5 c 128,-1,9
 489 870 489 870 474 870 c 0,10,11
 414 868 414 868 352.5 863 c 128,-1,12
 291 858 291 858 232 850.5 c 128,-1,13
 173 843 173 843 119.5 833.5 c 128,-1,14
 66 824 66 824 23 812 c 1,15,16
 26 763 26 763 22 698 c 128,-1,17
 18 633 18 633 9.5 561.5 c 128,-1,18
 1 490 1 490 -10 417 c 128,-1,19
 -21 344 -21 344 -31 279.5 c 128,-1,20
 -41 215 -41 215 -48.5 163.5 c 128,-1,21
 -56 112 -56 112 -57 84 c 0,22,23
 -57 58 -57 58 -52 44 c 128,-1,24
 -47 30 -47 30 -22 18 c 0,25,26
 -3 10 -3 10 22.5 1 c 128,-1,27
 48 -8 48 -8 71 -11.5 c 128,-1,28
 94 -15 94 -15 110 -11.5 c 128,-1,29
 126 -8 126 -8 127 10 c 0,30,31
 139 64 139 64 153.5 133.5 c 128,-1,32
 168 203 168 203 187 280 c 1,33,34
 244 292 244 292 302 303 c 128,-1,35
 360 314 360 314 417 323 c 0,36,37
 444 326 444 326 451.5 334.5 c 128,-1,38
 459 343 459 343 451 366 c 0,39,40
 446 386 446 386 439.5 405.5 c 128,-1,41
 433 425 433 425 421 445 c 0,42,43
 399 479 399 479 350 476 c 0,44,45
 319 475 319 475 289.5 472.5 c 128,-1,46
 260 470 260 470 231 467 c 1,47,48
 248 521 248 521 258.5 570 c 128,-1,49
 269 619 269 619 283 660 c 1,50,51
 354 670 354 670 418.5 677 c 128,-1,52
 483 684 483 684 543 692 c 0,0,1
EndSplineSet
Validated: 41
EndChar

StartChar: G
Encoding: 71 71 52
Width: 663
Flags: W
LayerCount: 2
Fore
SplineSet
594 478 m 0,0,1
 598 494 598 494 601.5 518 c 128,-1,2
 605 542 605 542 607.5 568 c 128,-1,3
 610 594 610 594 610.5 620 c 128,-1,4
 611 646 611 646 610 667 c 0,5,6
 605 707 605 707 591 739 c 128,-1,7
 577 771 577 771 543 798 c 0,8,9
 525 813 525 813 502.5 825.5 c 128,-1,10
 480 838 480 838 454.5 847.5 c 128,-1,11
 429 857 429 857 402 864 c 128,-1,12
 375 871 375 871 349 874 c 0,13,14
 331 877 331 877 310 877 c 256,15,16
 289 877 289 877 267.5 874 c 128,-1,17
 246 871 246 871 225 863 c 128,-1,18
 204 855 204 855 186 841 c 0,19,20
 130 800 130 800 85.5 742 c 128,-1,21
 41 684 41 684 8.5 617.5 c 128,-1,22
 -24 551 -24 551 -43 480.5 c 128,-1,23
 -62 410 -62 410 -67 342 c 128,-1,24
 -72 274 -72 274 -62 213.5 c 128,-1,25
 -52 153 -52 153 -26 108 c 0,26,27
 -12 80 -12 80 12.5 56.5 c 128,-1,28
 37 33 37 33 63 19 c 0,29,30
 136 -13 136 -13 213 -23 c 0,31,32
 257 -29 257 -29 297 -22.5 c 128,-1,33
 337 -16 337 -16 373 4 c 0,34,35
 429 37 429 37 477 98 c 128,-1,36
 525 159 525 159 562 249 c 0,37,38
 571 275 571 275 570.5 293 c 128,-1,39
 570 311 570 311 553 334 c 0,40,41
 544 346 544 346 533.5 360 c 128,-1,42
 523 374 523 374 511 387 c 0,43,44
 493 407 493 407 472 412.5 c 128,-1,45
 451 418 451 418 417 413 c 0,46,47
 388 408 388 408 348 403.5 c 128,-1,48
 308 399 308 399 271 391 c 0,49,50
 251 388 251 388 235 385.5 c 128,-1,51
 219 383 219 383 208 378.5 c 128,-1,52
 197 374 197 374 192.5 366.5 c 128,-1,53
 188 359 188 359 192 346 c 0,54,55
 211 289 211 289 243.5 265 c 128,-1,56
 276 241 276 241 336 244 c 1,57,58
 320 211 320 211 302 182.5 c 128,-1,59
 284 154 284 154 265 134 c 128,-1,60
 246 114 246 114 226.5 105 c 128,-1,61
 207 96 207 96 189 102 c 0,62,63
 168 109 168 109 156 139.5 c 128,-1,64
 144 170 144 170 142 213 c 128,-1,65
 140 256 140 256 147.5 306.5 c 128,-1,66
 155 357 155 357 172 405 c 0,67,68
 191 465 191 465 218 520.5 c 128,-1,69
 245 576 245 576 273.5 618 c 128,-1,70
 302 660 302 660 329.5 682.5 c 128,-1,71
 357 705 357 705 377 699 c 0,72,73
 387 696 387 696 390.5 683 c 128,-1,74
 394 670 394 670 398 651 c 0,75,76
 399 641 399 641 400 631 c 128,-1,77
 401 621 401 621 401 610 c 0,78,79
 400 599 400 599 400.5 589.5 c 128,-1,80
 401 580 401 580 403 570 c 0,81,82
 408 519 408 519 440.5 488 c 128,-1,83
 473 457 473 457 543 447 c 0,84,85
 568 445 568 445 577.5 451.5 c 128,-1,86
 587 458 587 458 594 478 c 0,0,1
EndSplineSet
Validated: 41
EndChar

StartChar: H
Encoding: 72 72 53
Width: 678
Flags: W
LayerCount: 2
Fore
SplineSet
687 739 m 0,0,1
 695 765 695 765 689.5 779 c 128,-1,2
 684 793 684 793 658 812 c 0,3,4
 630 830 630 830 599 844.5 c 128,-1,5
 568 859 568 859 539 867 c 0,6,7
 508 876 508 876 491.5 871.5 c 128,-1,8
 475 867 475 867 466 835 c 0,9,10
 443 750 443 750 419.5 645.5 c 128,-1,11
 396 541 396 541 371 435 c 1,12,13
 333 432 333 432 292.5 429 c 128,-1,14
 252 426 252 426 210 421 c 1,15,16
 230 509 230 509 247.5 586 c 128,-1,17
 265 663 265 663 281 720 c 0,18,19
 284 733 284 733 285 743 c 128,-1,20
 286 753 286 753 282.5 761 c 128,-1,21
 279 769 279 769 270.5 777 c 128,-1,22
 262 785 262 785 247 794 c 0,23,24
 220 812 220 812 183.5 827.5 c 128,-1,25
 147 843 147 843 115 852 c 0,26,27
 86 863 86 863 71 857 c 128,-1,28
 56 851 56 851 48 819 c 0,29,30
 36 735 36 735 24.5 635.5 c 128,-1,31
 13 536 13 536 1 436 c 128,-1,32
 -11 336 -11 336 -24 244 c 128,-1,33
 -37 152 -37 152 -52 83 c 0,34,35
 -58 57 -58 57 -48 42.5 c 128,-1,36
 -38 28 -38 28 -15 17 c 0,37,38
 4 6 4 6 30.5 -1 c 128,-1,39
 57 -8 57 -8 82 -15 c 0,40,41
 108 -21 108 -21 116.5 -16 c 128,-1,42
 125 -11 125 -11 129 6 c 0,43,44
 137 54 137 54 147 114.5 c 128,-1,45
 157 175 157 175 173 244 c 1,46,47
 215 251 215 251 255.5 256.5 c 128,-1,48
 296 262 296 262 338 268 c 1,49,50
 327 210 327 210 319 163 c 128,-1,51
 311 116 311 116 307 80 c 1,52,53
 298 44 298 44 321 26.5 c 128,-1,54
 344 9 344 9 385 -3 c 0,55,56
 405 -8 405 -8 422.5 -12.5 c 128,-1,57
 440 -17 440 -17 453 -17.5 c 128,-1,58
 466 -18 466 -18 473.5 -13.5 c 128,-1,59
 481 -9 481 -9 481 5 c 0,60,61
 501 88 501 88 526.5 185 c 128,-1,62
 552 282 552 282 579.5 380 c 128,-1,63
 607 478 607 478 635 571 c 128,-1,64
 663 664 663 664 687 739 c 0,0,1
EndSplineSet
Validated: 41
EndChar

StartChar: I
Encoding: 73 73 54
Width: 312
Flags: W
AnchorPoint: "top" 173 947 basechar 0
LayerCount: 2
Fore
SplineSet
259 794 m 0,0,1
 232 812 232 812 196 828 c 128,-1,2
 160 844 160 844 129 852 c 0,3,4
 98 861 98 861 82.5 854.5 c 128,-1,5
 67 848 67 848 58 819 c 0,6,7
 47 772 47 772 34 709.5 c 128,-1,8
 21 647 21 647 8.5 577 c 128,-1,9
 -4 507 -4 507 -16 434 c 128,-1,10
 -28 361 -28 361 -37.5 295 c 128,-1,11
 -47 229 -47 229 -53.5 173.5 c 128,-1,12
 -60 118 -60 118 -62 83 c 0,13,14
 -65 57 -65 57 -57.5 42.5 c 128,-1,15
 -50 28 -50 28 -27 17 c 0,16,17
 -6 6 -6 6 17.5 -1 c 128,-1,18
 41 -8 41 -8 67 -15 c 0,19,20
 93 -21 93 -21 101.5 -16 c 128,-1,21
 110 -11 110 -11 115 6 c 0,22,23
 124 51 124 51 136.5 108.5 c 128,-1,24
 149 166 149 166 164 230.5 c 128,-1,25
 179 295 179 295 195 362.5 c 128,-1,26
 211 430 211 430 227.5 494.5 c 128,-1,27
 244 559 244 559 260.5 617 c 128,-1,28
 277 675 277 675 291 720 c 0,29,30
 298 747 298 747 292.5 761 c 128,-1,31
 287 775 287 775 259 794 c 0,0,1
EndSplineSet
Validated: 41
EndChar

StartChar: J
Encoding: 74 74 55
Width: 627
Flags: W
LayerCount: 2
Fore
SplineSet
138 -13 m 0,0,1
 213 -30 213 -30 261.5 -20.5 c 128,-1,2
 310 -11 310 -11 345 10 c 0,3,4
 389 38 389 38 427 100 c 128,-1,5
 465 162 465 162 497.5 254 c 128,-1,6
 530 346 530 346 558 467 c 128,-1,7
 586 588 586 588 611 735 c 0,8,9
 614 748 614 748 614.5 757.5 c 128,-1,10
 615 767 615 767 611.5 775 c 128,-1,11
 608 783 608 783 600 790.5 c 128,-1,12
 592 798 592 798 577 808 c 0,13,14
 548 826 548 826 511.5 840 c 128,-1,15
 475 854 475 854 445 862 c 0,16,17
 414 870 414 870 397.5 863.5 c 128,-1,18
 381 857 381 857 375 827 c 0,19,20
 366 764 366 764 353.5 686 c 128,-1,21
 341 608 341 608 326 527.5 c 128,-1,22
 311 447 311 447 294 370.5 c 128,-1,23
 277 294 277 294 258 234.5 c 128,-1,24
 239 175 239 175 219 139 c 128,-1,25
 199 103 199 103 178 104 c 0,26,27
 154 107 154 107 148 129.5 c 128,-1,28
 142 152 142 152 138 202 c 0,29,30
 135 280 135 280 18 327 c 0,31,32
 -17 343 -17 343 -32.5 326.5 c 128,-1,33
 -48 310 -48 310 -54 275 c 0,34,35
 -60 229 -60 229 -57 193.5 c 128,-1,36
 -54 158 -54 158 -38 125 c 0,37,38
 -28 102 -28 102 -14 81 c 128,-1,39
 0 60 0 60 21 42 c 128,-1,40
 42 24 42 24 70.5 10 c 128,-1,41
 99 -4 99 -4 138 -13 c 0,0,1
EndSplineSet
Validated: 41
EndChar

StartChar: K
Encoding: 75 75 56
Width: 664
Flags: W
LayerCount: 2
Fore
SplineSet
332 303 m 1,0,1
 376 345 376 345 425 393 c 128,-1,2
 474 441 474 441 519.5 489.5 c 128,-1,3
 565 538 565 538 603.5 584.5 c 128,-1,4
 642 631 642 631 665 669 c 0,5,6
 684 700 684 700 686.5 721 c 128,-1,7
 689 742 689 742 681 764 c 0,8,9
 668 791 668 791 653.5 814 c 128,-1,10
 639 837 639 837 617 856 c 0,11,12
 596 874 596 874 579 874 c 0,13,14
 564 874 564 874 547 852 c 0,15,16
 521 820 521 820 480.5 774 c 128,-1,17
 440 728 440 728 393.5 677 c 128,-1,18
 347 626 347 626 298 573.5 c 128,-1,19
 249 521 249 521 207 475 c 1,20,21
 224 553 224 553 239 618.5 c 128,-1,22
 254 684 254 684 269 735 c 0,23,24
 273 748 273 748 274 757.5 c 128,-1,25
 275 767 275 767 271 775 c 128,-1,26
 267 783 267 783 258 790.5 c 128,-1,27
 249 798 249 798 234 808 c 0,28,29
 207 826 207 826 170.5 842 c 128,-1,30
 134 858 134 858 102 866 c 0,31,32
 73 875 73 875 57 868.5 c 128,-1,33
 41 862 41 862 33 834 c 0,34,35
 23 787 23 787 12 723 c 128,-1,36
 1 659 1 659 -10 587.5 c 128,-1,37
 -21 516 -21 516 -31 441.5 c 128,-1,38
 -41 367 -41 367 -49 299 c 128,-1,39
 -57 231 -57 231 -62 174.5 c 128,-1,40
 -67 118 -67 118 -68 83 c 0,41,42
 -70 46 -70 46 -50 28 c 128,-1,43
 -30 10 -30 10 15 -2 c 0,44,45
 37 -8 37 -8 55.5 -13.5 c 128,-1,46
 74 -19 74 -19 87 -19.5 c 128,-1,47
 100 -20 100 -20 107 -14.5 c 128,-1,48
 114 -9 114 -9 114 6 c 0,49,50
 122 51 122 51 132 106 c 128,-1,51
 142 161 142 161 155 227 c 1,52,53
 176 197 176 197 200.5 166.5 c 128,-1,54
 225 136 225 136 247.5 109 c 128,-1,55
 270 82 270 82 289 61 c 128,-1,56
 308 40 308 40 319 28 c 0,57,58
 346 -1 346 -1 373 -5 c 128,-1,59
 400 -9 400 -9 426 -2 c 0,60,61
 443 0 443 0 460.5 5 c 128,-1,62
 478 10 478 10 491 17 c 0,63,64
 513 27 513 27 516.5 37.5 c 128,-1,65
 520 48 520 48 503 65 c 0,66,67
 487 83 487 83 466 110 c 128,-1,68
 445 137 445 137 422 169 c 128,-1,69
 399 201 399 201 375.5 235.5 c 128,-1,70
 352 270 352 270 332 303 c 1,0,1
EndSplineSet
Validated: 41
EndChar

StartChar: L
Encoding: 76 76 57
Width: 532
Flags: W
LayerCount: 2
Fore
SplineSet
383 41 m 0,0,1
 414 47 414 47 417.5 54 c 128,-1,2
 421 61 421 61 414 82 c 0,3,4
 410 99 410 99 402.5 117.5 c 128,-1,5
 395 136 395 136 383 154 c 0,6,7
 371 173 371 173 356.5 178.5 c 128,-1,8
 342 184 342 184 314 182 c 0,9,10
 267 179 267 179 227 175 c 128,-1,11
 187 171 187 171 141 163 c 1,12,13
 157 232 157 232 175.5 307.5 c 128,-1,14
 194 383 194 383 214.5 459 c 128,-1,15
 235 535 235 535 255.5 607 c 128,-1,16
 276 679 276 679 296 739 c 0,17,18
 305 765 305 765 298.5 779 c 128,-1,19
 292 793 292 793 266 812 c 0,20,21
 239 830 239 830 203 844.5 c 128,-1,22
 167 859 167 859 136 867 c 0,23,24
 105 876 105 876 89.5 870.5 c 128,-1,25
 74 865 74 865 64 836 c 0,26,27
 50 785 50 785 35.5 724 c 128,-1,28
 21 663 21 663 7 597 c 128,-1,29
 -7 531 -7 531 -19 464.5 c 128,-1,30
 -31 398 -31 398 -41 336 c 128,-1,31
 -51 274 -51 274 -58 220.5 c 128,-1,32
 -65 167 -65 167 -68 128 c 0,33,34
 -72 103 -72 103 -63 85.5 c 128,-1,35
 -54 68 -54 68 -37 54 c 0,36,37
 -14 36 -14 36 0 24.5 c 128,-1,38
 14 13 14 13 31 2 c 0,39,40
 38 -3 38 -3 45.5 -7 c 128,-1,41
 53 -11 53 -11 64 -13.5 c 128,-1,42
 75 -16 75 -16 90 -15 c 128,-1,43
 105 -14 105 -14 127 -8 c 0,44,45
 187 4 187 4 253.5 16.5 c 128,-1,46
 320 29 320 29 383 41 c 0,0,1
EndSplineSet
Validated: 41
EndChar

StartChar: M
Encoding: 77 77 58
Width: 924
Flags: W
LayerCount: 2
Fore
SplineSet
187 489 m 1,0,1
 202 389 202 389 220.5 295 c 128,-1,2
 239 201 239 201 259 129 c 0,3,4
 264 112 264 112 268.5 101 c 128,-1,5
 273 90 273 90 279 82.5 c 128,-1,6
 285 75 285 75 293 70.5 c 128,-1,7
 301 66 301 66 312 62 c 0,8,9
 342 52 342 52 382 44 c 0,10,11
 395 41 395 41 403 41.5 c 128,-1,12
 411 42 411 42 416 45 c 128,-1,13
 421 48 421 48 424.5 54.5 c 128,-1,14
 428 61 428 61 433 72 c 0,15,16
 449 107 449 107 475.5 159.5 c 128,-1,17
 502 212 502 212 533.5 271 c 128,-1,18
 565 330 565 330 598.5 391 c 128,-1,19
 632 452 632 452 662 504 c 1,20,21
 645 445 645 445 630.5 382 c 128,-1,22
 616 319 616 319 604 261.5 c 128,-1,23
 592 204 592 204 583 156.5 c 128,-1,24
 574 109 574 109 570 79 c 0,25,26
 565 54 565 54 572.5 39 c 128,-1,27
 580 24 580 24 603 13 c 0,28,29
 621 3 621 3 645 -4 c 128,-1,30
 669 -11 669 -11 692 -16 c 0,31,32
 718 -22 718 -22 727 -14 c 128,-1,33
 736 -6 736 -6 743 12 c 0,34,35
 751 47 751 47 765 100 c 128,-1,36
 779 153 779 153 796.5 216 c 128,-1,37
 814 279 814 279 833.5 348 c 128,-1,38
 853 417 853 417 872.5 484 c 128,-1,39
 892 551 892 551 911 612 c 128,-1,40
 930 673 930 673 945 720 c 0,41,42
 956 753 956 753 948.5 771.5 c 128,-1,43
 941 790 941 790 912 804 c 0,44,45
 868 824 868 824 822.5 839 c 128,-1,46
 777 854 777 854 736 865 c 0,47,48
 701 875 701 875 678.5 873 c 128,-1,49
 656 871 656 871 638 855.5 c 128,-1,50
 620 840 620 840 603 810.5 c 128,-1,51
 586 781 586 781 563 735 c 0,52,53
 540 695 540 695 515.5 650 c 128,-1,54
 491 605 491 605 468 560 c 128,-1,55
 445 515 445 515 423.5 472 c 128,-1,56
 402 429 402 429 386 393 c 1,57,58
 370 496 370 496 361 555 c 128,-1,59
 352 614 352 614 347.5 646 c 128,-1,60
 343 678 343 678 341.5 690.5 c 128,-1,61
 340 703 340 703 340 712 c 0,62,63
 336 731 336 731 332.5 746 c 128,-1,64
 329 761 329 761 321 773.5 c 128,-1,65
 313 786 313 786 299 796.5 c 128,-1,66
 285 807 285 807 261 816 c 0,67,68
 223 830 223 830 185.5 840 c 128,-1,69
 148 850 148 850 94 858 c 0,70,71
 59 863 59 863 42.5 854.5 c 128,-1,72
 26 846 26 846 17 812 c 0,73,74
 8 765 8 765 -1.5 703.5 c 128,-1,75
 -11 642 -11 642 -20.5 573 c 128,-1,76
 -30 504 -30 504 -38 433 c 128,-1,77
 -46 362 -46 362 -52.5 296 c 128,-1,78
 -59 230 -59 230 -62.5 173.5 c 128,-1,79
 -66 117 -66 117 -66 78 c 0,80,81
 -68 52 -68 52 -59 38 c 128,-1,82
 -50 24 -50 24 -25 12 c 0,83,84
 -5 2 -5 2 18.5 -5.5 c 128,-1,85
 42 -13 42 -13 65 -18 c 0,86,87
 89 -23 89 -23 98 -17.5 c 128,-1,88
 107 -12 107 -12 111 6 c 0,89,90
 115 49 115 49 122.5 104 c 128,-1,91
 130 159 130 159 140 222 c 128,-1,92
 150 285 150 285 162 353 c 128,-1,93
 174 421 174 421 187 489 c 1,0,1
EndSplineSet
Validated: 41
EndChar

StartChar: N
Encoding: 78 78 59
Width: 702
Flags: W
LayerCount: 2
Fore
SplineSet
392 327 m 1,0,1
 381 378 381 378 370 433.5 c 128,-1,2
 359 489 359 489 349 541.5 c 128,-1,3
 339 594 339 594 331 639 c 128,-1,4
 323 684 323 684 318 713 c 0,5,6
 312 751 312 751 299 770.5 c 128,-1,7
 286 790 286 790 255 803 c 0,8,9
 217 821 217 821 182 832 c 128,-1,10
 147 843 147 843 110 854 c 0,11,12
 79 862 79 862 61 854.5 c 128,-1,13
 43 847 43 847 36 817 c 0,14,15
 25 765 25 765 13.5 698 c 128,-1,16
 2 631 2 631 -9 559 c 128,-1,17
 -20 487 -20 487 -29.5 414.5 c 128,-1,18
 -39 342 -39 342 -46.5 278.5 c 128,-1,19
 -54 215 -54 215 -58.5 165 c 128,-1,20
 -63 115 -63 115 -65 88 c 0,21,22
 -67 62 -67 62 -59.5 47.5 c 128,-1,23
 -52 33 -52 33 -30 22 c 0,24,25
 -7 8 -7 8 17.5 1.5 c 128,-1,26
 42 -5 42 -5 66 -11 c 0,27,28
 92 -18 92 -18 101 -13.5 c 128,-1,29
 110 -9 110 -9 114 8 c 0,30,31
 119 44 119 44 127.5 92.5 c 128,-1,32
 136 141 136 141 146.5 197.5 c 128,-1,33
 157 254 157 254 168.5 316 c 128,-1,34
 180 378 180 378 191 440 c 1,35,36
 204 388 204 388 219 336.5 c 128,-1,37
 234 285 234 285 249 237.5 c 128,-1,38
 264 190 264 190 278.5 149 c 128,-1,39
 293 108 293 108 307 77 c 0,40,41
 325 34 325 34 369 17 c 0,42,43
 417 0 417 0 463 -9 c 0,44,45
 517 -21 517 -21 523 17 c 0,46,47
 539 87 539 87 561.5 179.5 c 128,-1,48
 584 272 584 272 608.5 369 c 128,-1,49
 633 466 633 466 658 560 c 128,-1,50
 683 654 683 654 706 728 c 0,51,52
 714 754 714 754 710.5 772.5 c 128,-1,53
 707 791 707 791 678 809 c 0,54,55
 661 820 661 820 648 827 c 128,-1,56
 635 834 635 834 623.5 839 c 128,-1,57
 612 844 612 844 600 847 c 128,-1,58
 588 850 588 850 573 854 c 0,59,60
 541 862 541 862 524.5 855 c 128,-1,61
 508 848 508 848 500 819 c 0,62,63
 471 712 471 712 441.5 585 c 128,-1,64
 412 458 412 458 392 327 c 1,0,1
EndSplineSet
Validated: 41
EndChar

StartChar: O
Encoding: 79 79 60
Width: 694
Flags: W
AnchorPoint: "top" 367 947 basechar 0
LayerCount: 2
Fore
SplineSet
541 790 m 0,0,1
 507 817 507 817 455.5 836 c 128,-1,2
 404 855 404 855 347 864 c 0,3,4
 303 871 303 871 254.5 857 c 128,-1,5
 206 843 206 843 171 816 c 0,6,7
 119 771 119 771 79.5 714.5 c 128,-1,8
 40 658 40 658 13 595 c 128,-1,9
 -14 532 -14 532 -28 465.5 c 128,-1,10
 -42 399 -42 399 -43 335 c 128,-1,11
 -44 271 -44 271 -32 213 c 128,-1,12
 -20 155 -20 155 4 109 c 0,13,14
 19 81 19 81 45 59 c 128,-1,15
 71 37 71 37 98 23 c 0,16,17
 131 6 131 6 171 -2.5 c 128,-1,18
 211 -11 211 -11 249 -15 c 0,19,20
 306 -21 306 -21 350 -10.5 c 128,-1,21
 394 0 394 0 434 31 c 0,22,23
 493 83 493 83 533.5 158 c 128,-1,24
 574 233 574 233 597.5 317.5 c 128,-1,25
 621 402 621 402 627 487.5 c 128,-1,26
 633 573 633 573 622 646 c 0,27,28
 614 690 614 690 596.5 724.5 c 128,-1,29
 579 759 579 759 541 790 c 0,0,1
380 690 m 0,30,31
 400 684 400 684 409.5 648.5 c 128,-1,32
 419 613 419 613 419 563 c 0,33,34
 419 514 419 514 411 457.5 c 128,-1,35
 403 401 403 401 390 354 c 0,36,37
 375 297 375 297 354.5 248.5 c 128,-1,38
 334 200 334 200 311 167 c 128,-1,39
 288 134 288 134 265 118 c 128,-1,40
 242 102 242 102 221 109 c 0,41,42
 198 116 198 116 186 147 c 128,-1,43
 174 178 174 178 172 221.5 c 128,-1,44
 170 265 170 265 176 315.5 c 128,-1,45
 182 366 182 366 196 413 c 0,46,47
 210 461 210 461 232.5 512.5 c 128,-1,48
 255 564 255 564 281 606 c 128,-1,49
 307 648 307 648 333 672.5 c 128,-1,50
 359 697 359 697 380 690 c 0,30,31
EndSplineSet
Validated: 41
EndChar

StartChar: P
Encoding: 80 80 61
Width: 708
Flags: W
LayerCount: 2
Fore
SplineSet
185 215 m 1,0,1
 245 231 245 231 306.5 253.5 c 128,-1,2
 368 276 368 276 424 304 c 128,-1,3
 480 332 480 332 527.5 364 c 128,-1,4
 575 396 575 396 609 430 c 0,5,6
 630 451 630 451 647.5 473 c 128,-1,7
 665 495 665 495 676.5 519 c 128,-1,8
 688 543 688 543 691.5 570 c 128,-1,9
 695 597 695 597 688 628 c 0,10,11
 672 691 672 691 643.5 734.5 c 128,-1,12
 615 778 615 778 581 816 c 0,13,14
 552 844 552 844 512.5 855.5 c 128,-1,15
 473 867 473 867 427 866 c 128,-1,16
 381 865 381 865 331.5 853.5 c 128,-1,17
 282 842 282 842 233 824.5 c 128,-1,18
 184 807 184 807 138 785.5 c 128,-1,19
 92 764 92 764 54 744 c 0,20,21
 44 739 44 739 36.5 694.5 c 128,-1,22
 29 650 29 650 23 584 c 128,-1,23
 17 518 17 518 11 440 c 128,-1,24
 5 362 5 362 -1 289.5 c 128,-1,25
 -7 217 -7 217 -14.5 160 c 128,-1,26
 -22 103 -22 103 -31 79 c 0,27,28
 -37 53 -37 53 -27.5 37 c 128,-1,29
 -18 21 -18 21 1 10.5 c 128,-1,30
 20 0 20 0 44.5 -6.5 c 128,-1,31
 69 -13 69 -13 95 -20 c 0,32,33
 121 -25 121 -25 130 -20 c 128,-1,34
 139 -15 139 -15 144 1 c 0,35,36
 152 52 152 52 162.5 105 c 128,-1,37
 173 158 173 158 185 215 c 1,0,1
228 403 m 1,38,39
 243 466 243 466 257.5 524 c 128,-1,40
 272 582 272 582 288 636 c 1,41,42
 325 652 325 652 360.5 660 c 128,-1,43
 396 668 396 668 424.5 669 c 128,-1,44
 453 670 453 670 471.5 663.5 c 128,-1,45
 490 657 490 657 493 645 c 0,46,47
 501 623 501 623 487 591 c 128,-1,48
 473 559 473 559 439 524.5 c 128,-1,49
 405 490 405 490 352 457.5 c 128,-1,50
 299 425 299 425 228 403 c 1,38,39
EndSplineSet
Validated: 41
EndChar

StartChar: Q
Encoding: 81 81 62
Width: 693
Flags: W
LayerCount: 2
Fore
SplineSet
552 38 m 0,0,1
 538 53 538 53 526.5 69 c 128,-1,2
 515 85 515 85 499 102 c 1,3,4
 540 157 540 157 567.5 226 c 128,-1,5
 595 295 595 295 610 368 c 128,-1,6
 625 441 625 441 627.5 513 c 128,-1,7
 630 585 630 585 620 646 c 0,8,9
 612 690 612 690 595.5 724.5 c 128,-1,10
 579 759 579 759 541 790 c 0,11,12
 507 817 507 817 455.5 836 c 128,-1,13
 404 855 404 855 347 864 c 0,14,15
 303 871 303 871 254.5 857 c 128,-1,16
 206 843 206 843 172 816 c 0,17,18
 119 771 119 771 79.5 714.5 c 128,-1,19
 40 658 40 658 13 595 c 128,-1,20
 -14 532 -14 532 -27.5 465.5 c 128,-1,21
 -41 399 -41 399 -42.5 335 c 128,-1,22
 -44 271 -44 271 -32 213 c 128,-1,23
 -20 155 -20 155 4 109 c 0,24,25
 19 81 19 81 45 59 c 128,-1,26
 71 37 71 37 98 23 c 0,27,28
 131 6 131 6 170 -3 c 128,-1,29
 209 -12 209 -12 249 -15 c 0,30,31
 285 -17 285 -17 318 -15 c 128,-1,32
 351 -13 351 -13 379 0 c 1,33,34
 384 -3 384 -3 388 -6 c 128,-1,35
 392 -9 392 -9 397 -14 c 0,36,37
 429 -40 429 -40 474 -33 c 0,38,39
 492 -29 492 -29 510 -23.5 c 128,-1,40
 528 -18 528 -18 546 -8 c 0,41,42
 565 1 565 1 567 11 c 128,-1,43
 569 21 569 21 552 38 c 0,0,1
265 119 m 1,44,45
 241 101 241 101 221 109 c 0,46,47
 204 116 204 116 193 134.5 c 128,-1,48
 182 153 182 153 177 180.5 c 128,-1,49
 172 208 172 208 171.5 242 c 128,-1,50
 171 276 171 276 175 314 c 0,51,52
 188 389 188 389 213.5 464 c 128,-1,53
 239 539 239 539 279 604 c 0,54,55
 299 636 299 636 319.5 658.5 c 128,-1,56
 340 681 340 681 358 688.5 c 128,-1,57
 376 696 376 696 390 686.5 c 128,-1,58
 404 677 404 677 410 647 c 0,59,60
 416 621 416 621 417.5 585 c 128,-1,61
 419 549 419 549 415.5 509 c 128,-1,62
 412 469 412 469 405 428.5 c 128,-1,63
 398 388 398 388 388 354 c 0,64,65
 372 277 372 277 341 220 c 1,66,67
 313 215 313 215 290.5 208.5 c 128,-1,68
 268 202 268 202 251 193 c 0,69,70
 214 176 214 176 240 148 c 0,71,72
 246 140 246 140 251.5 133 c 128,-1,73
 257 126 257 126 265 119 c 1,44,45
EndSplineSet
Validated: 41
EndChar

StartChar: R
Encoding: 82 82 63
Width: 727
Flags: W
LayerCount: 2
Fore
SplineSet
181 234 m 1,0,1
 207 202 207 202 239 170.5 c 128,-1,2
 271 139 271 139 303 110 c 128,-1,3
 335 81 335 81 365 57 c 128,-1,4
 395 33 395 33 418 17 c 0,5,6
 453 -4 453 -4 479.5 -6.5 c 128,-1,7
 506 -9 506 -9 528 -3 c 0,8,9
 546 0 546 0 558.5 2.5 c 128,-1,10
 571 5 571 5 589 19 c 0,11,12
 604 30 604 30 606 40 c 128,-1,13
 608 50 608 50 588 67 c 0,14,15
 563 87 563 87 534.5 114 c 128,-1,16
 506 141 506 141 477 170 c 128,-1,17
 448 199 448 199 420.5 228 c 128,-1,18
 393 257 393 257 370 283 c 1,19,20
 482 333 482 333 562.5 391 c 128,-1,21
 643 449 643 449 678 518 c 0,22,23
 701 561 701 561 688 628 c 0,24,25
 672 691 672 691 643.5 734.5 c 128,-1,26
 615 778 615 778 580 816 c 0,27,28
 536 859 536 859 477.5 868.5 c 128,-1,29
 419 878 419 878 353.5 866.5 c 128,-1,30
 288 855 288 855 220.5 828 c 128,-1,31
 153 801 153 801 91 773 c 0,32,33
 78 766 78 766 66 737.5 c 128,-1,34
 54 709 54 709 44 665.5 c 128,-1,35
 34 622 34 622 25 567.5 c 128,-1,36
 16 513 16 513 8.5 455 c 128,-1,37
 1 397 1 397 -5.5 339 c 128,-1,38
 -12 281 -12 281 -17 230.5 c 128,-1,39
 -22 180 -22 180 -25.5 140 c 128,-1,40
 -29 100 -29 100 -31 79 c 0,41,42
 -33 53 -33 53 -26 37.5 c 128,-1,43
 -19 22 -19 22 0 11 c 0,44,45
 19 1 19 1 40 -3 c 128,-1,46
 61 -7 61 -7 88 -14 c 0,47,48
 111 -19 111 -19 119.5 -14 c 128,-1,49
 128 -9 128 -9 133 7 c 0,50,51
 144 61 144 61 155.5 117 c 128,-1,52
 167 173 167 173 181 234 c 1,0,1
288 640 m 1,53,54
 327 659 327 659 362 666 c 128,-1,55
 397 673 397 673 426 673 c 0,56,57
 485 673 485 673 497 645 c 0,58,59
 503 628 503 628 487 597 c 128,-1,60
 471 566 471 566 435 531.5 c 128,-1,61
 399 497 399 497 345.5 463.5 c 128,-1,62
 292 430 292 430 223 407 c 1,63,64
 242 473 242 473 257 531 c 128,-1,65
 272 589 272 589 288 640 c 1,53,54
EndSplineSet
Validated: 41
EndChar

StartChar: S
Encoding: 83 83 64
Width: 601
Flags: W
LayerCount: 2
Fore
SplineSet
-83 199 m 0,0,1
 -102 188 -102 188 -102 169 c 0,2,3
 -100 151 -100 151 -57 114 c 0,4,5
 24 39 24 39 100 8.5 c 128,-1,6
 176 -22 176 -22 256 -20 c 0,7,8
 316 -19 316 -19 359 -5 c 128,-1,9
 402 9 402 9 432 29.5 c 128,-1,10
 462 50 462 50 480 74 c 128,-1,11
 498 98 498 98 508 119 c 0,12,13
 524 148 524 148 518.5 173.5 c 128,-1,14
 513 199 513 199 492.5 222.5 c 128,-1,15
 472 246 472 246 440.5 268 c 128,-1,16
 409 290 409 290 373.5 312.5 c 128,-1,17
 338 335 338 335 302.5 359 c 128,-1,18
 267 383 267 383 238 410 c 0,19,20
 215 430 215 430 209 456 c 128,-1,21
 203 482 203 482 208 509 c 128,-1,22
 213 536 213 536 227.5 563 c 128,-1,23
 242 590 242 590 260.5 613 c 128,-1,24
 279 636 279 636 299 654 c 128,-1,25
 319 672 319 672 335 681 c 0,26,27
 354 694 354 694 362 692 c 128,-1,28
 370 690 370 690 371.5 677 c 128,-1,29
 373 664 373 664 369 643.5 c 128,-1,30
 365 623 365 623 359.5 600.5 c 128,-1,31
 354 578 354 578 348.5 555.5 c 128,-1,32
 343 533 343 533 342 516 c 0,33,34
 332 433 332 433 468 385 c 0,35,36
 491 376 491 376 504 381 c 128,-1,37
 517 386 517 386 528 406 c 0,38,39
 539 428 539 428 550 458 c 128,-1,40
 561 488 561 488 570 520.5 c 128,-1,41
 579 553 579 553 586 585 c 128,-1,42
 593 617 593 617 596 644 c 0,43,44
 596 659 596 659 595.5 675.5 c 128,-1,45
 595 692 595 692 590.5 710 c 128,-1,46
 586 728 586 728 575.5 746.5 c 128,-1,47
 565 765 565 765 545 783 c 0,48,49
 515 812 515 812 470 835 c 128,-1,50
 425 858 425 858 380 874 c 0,51,52
 350 883 350 883 322.5 884.5 c 128,-1,53
 295 886 295 886 271.5 882 c 128,-1,54
 248 878 248 878 229 869.5 c 128,-1,55
 210 861 210 861 197 852 c 0,56,57
 161 830 161 830 126 798 c 128,-1,58
 91 766 91 766 62 729 c 128,-1,59
 33 692 33 692 11.5 653 c 128,-1,60
 -10 614 -10 614 -19 580 c 0,61,62
 -32 540 -32 540 -31 503 c 128,-1,63
 -30 466 -30 466 -18 433.5 c 128,-1,64
 -6 401 -6 401 15.5 373.5 c 128,-1,65
 37 346 37 346 64 324 c 0,66,67
 89 303 89 303 119.5 283 c 128,-1,68
 150 263 150 263 180.5 244 c 128,-1,69
 211 225 211 225 238.5 207.5 c 128,-1,70
 266 190 266 190 284.5 175.5 c 128,-1,71
 303 161 303 161 309.5 149 c 128,-1,72
 316 137 316 137 305 130 c 0,73,74
 277 108 277 108 214.5 123 c 128,-1,75
 152 138 152 138 68 189 c 0,76,77
 53 199 53 199 34.5 204.5 c 128,-1,78
 16 210 16 210 -4.5 211.5 c 128,-1,79
 -25 213 -25 213 -45 209.5 c 128,-1,80
 -65 206 -65 206 -83 199 c 0,0,1
EndSplineSet
Validated: 41
EndChar

StartChar: T
Encoding: 84 84 65
Width: 664
Flags: W
LayerCount: 2
Fore
SplineSet
642 702 m 0,0,1
 673 704 673 704 678.5 712.5 c 128,-1,2
 684 721 684 721 678 744 c 0,3,4
 671 770 671 770 658 797 c 128,-1,5
 645 824 645 824 625 847 c 0,6,7
 615 860 615 860 601.5 865.5 c 128,-1,8
 588 871 588 871 557 871 c 0,9,10
 498 869 498 869 423.5 863.5 c 128,-1,11
 349 858 349 858 271.5 850 c 128,-1,12
 194 842 194 842 119.5 832 c 128,-1,13
 45 822 45 822 -14 810 c 0,14,15
 -33 805 -33 805 -39 797.5 c 128,-1,16
 -45 790 -45 790 -33 767 c 0,17,18
 -22 745 -22 745 -4.5 713 c 128,-1,19
 13 681 13 681 34 660 c 0,20,21
 54 639 54 639 70 634.5 c 128,-1,22
 86 630 86 630 111 636 c 0,23,24
 129 641 129 641 156 644.5 c 128,-1,25
 183 648 183 648 212 653 c 1,26,27
 197 585 197 585 182 505.5 c 128,-1,28
 167 426 167 426 154.5 348 c 128,-1,29
 142 270 142 270 133 200 c 128,-1,30
 124 130 124 130 121 82 c 0,31,32
 117 63 117 63 122 49.5 c 128,-1,33
 127 36 127 36 138.5 26 c 128,-1,34
 150 16 150 16 167 9 c 128,-1,35
 184 2 184 2 205 -4 c 128,-1,36
 226 -10 226 -10 243 -15 c 128,-1,37
 260 -20 260 -20 273 -20.5 c 128,-1,38
 286 -21 286 -21 293.5 -16.5 c 128,-1,39
 301 -12 301 -12 303 2 c 0,40,41
 317 75 317 75 335.5 159 c 128,-1,42
 354 243 354 243 375 331.5 c 128,-1,43
 396 420 396 420 418.5 510 c 128,-1,44
 441 600 441 600 462 684 c 1,45,46
 511 689 511 689 557 693.5 c 128,-1,47
 603 698 603 698 642 702 c 0,0,1
EndSplineSet
Validated: 41
EndChar

StartChar: U
Encoding: 85 85 66
Width: 676
Flags: W
AnchorPoint: "top" 327 927 basechar 0
LayerCount: 2
Fore
SplineSet
-5 102 m 0,0,1
 11 74 11 74 33 55 c 128,-1,2
 55 36 55 36 80 22 c 0,3,4
 138 -10 138 -10 228 -16 c 0,5,6
 273 -19 273 -19 308 -12.5 c 128,-1,7
 343 -6 343 -6 378 11 c 0,8,9
 427 39 427 39 467 101 c 128,-1,10
 507 163 507 163 541 255 c 128,-1,11
 575 347 575 347 605.5 466.5 c 128,-1,12
 636 586 636 586 666 729 c 0,13,14
 669 742 669 742 670 751.5 c 128,-1,15
 671 761 671 761 668 769 c 128,-1,16
 665 777 665 777 657.5 784.5 c 128,-1,17
 650 792 650 792 636 801 c 0,18,19
 609 817 609 817 576.5 833.5 c 128,-1,20
 544 850 544 850 515.5 857.5 c 128,-1,21
 487 865 487 865 467 859 c 128,-1,22
 447 853 447 853 445 823 c 0,23,24
 433 761 433 761 418 682 c 128,-1,25
 403 603 403 603 384.5 521.5 c 128,-1,26
 366 440 366 440 344.5 363 c 128,-1,27
 323 286 323 286 299.5 227.5 c 128,-1,28
 276 169 276 169 250 136 c 128,-1,29
 224 103 224 103 197 110 c 0,30,31
 175 116 175 116 167.5 147 c 128,-1,32
 160 178 160 178 162.5 225 c 128,-1,33
 165 272 165 272 175.5 331 c 128,-1,34
 186 390 186 390 201 452 c 128,-1,35
 216 514 216 514 233.5 574.5 c 128,-1,36
 251 635 251 635 267 687 c 0,37,38
 284 748 284 748 230 787 c 0,39,40
 204 806 204 806 176.5 820 c 128,-1,41
 149 834 149 834 119 843 c 0,42,43
 87 854 87 854 71.5 848 c 128,-1,44
 56 842 56 842 48 813 c 0,45,46
 30 749 30 749 13.5 681.5 c 128,-1,47
 -3 614 -3 614 -16 547 c 128,-1,48
 -29 480 -29 480 -37 415 c 128,-1,49
 -45 350 -45 350 -45 292 c 256,50,51
 -45 234 -45 234 -35.5 185.5 c 128,-1,52
 -26 137 -26 137 -5 102 c 0,0,1
EndSplineSet
Validated: 41
EndChar

StartChar: V
Encoding: 86 86 67
Width: 699
Flags: W
LayerCount: 2
Fore
SplineSet
700 718 m 0,0,1
 709 740 709 740 708.5 757 c 128,-1,2
 708 774 708 774 699 788 c 128,-1,3
 690 802 690 802 674 813.5 c 128,-1,4
 658 825 658 825 638 836 c 0,5,6
 619 848 619 848 600.5 856.5 c 128,-1,7
 582 865 582 865 565.5 867.5 c 128,-1,8
 549 870 549 870 536 863.5 c 128,-1,9
 523 857 523 857 515 839 c 0,10,11
 452 681 452 681 389.5 520 c 128,-1,12
 327 359 327 359 261 214 c 1,13,14
 250 287 250 287 240.5 361.5 c 128,-1,15
 231 436 231 436 223 505 c 128,-1,16
 215 574 215 574 207.5 636 c 128,-1,17
 200 698 200 698 194 747 c 0,18,19
 185 811 185 811 119 835 c 0,20,21
 92 846 92 846 67.5 850 c 128,-1,22
 43 854 43 854 14 854 c 0,23,24
 -16 854 -16 854 -22.5 843 c 128,-1,25
 -29 832 -29 832 -27 805 c 0,26,27
 -5 600 -5 600 22.5 428.5 c 128,-1,28
 50 257 50 257 85 120 c 0,29,30
 91 96 91 96 110.5 67.5 c 128,-1,31
 130 39 130 39 167 22 c 0,32,33
 200 6 200 6 230 -4 c 128,-1,34
 260 -14 260 -14 295 -24 c 0,35,36
 330 -33 330 -33 349 -26.5 c 128,-1,37
 368 -20 368 -20 382 4 c 0,38,39
 404 45 404 45 432 102 c 128,-1,40
 460 159 460 159 491 224 c 128,-1,41
 522 289 522 289 553 358 c 128,-1,42
 584 427 584 427 612 492.5 c 128,-1,43
 640 558 640 558 663 616 c 128,-1,44
 686 674 686 674 700 718 c 0,0,1
EndSplineSet
Validated: 41
EndChar

StartChar: W
Encoding: 87 87 68
Width: 961
Flags: W
LayerCount: 2
Fore
SplineSet
164 262 m 1,0,1
 164 322 164 322 165.5 388.5 c 128,-1,2
 167 455 167 455 169.5 516.5 c 128,-1,3
 172 578 172 578 174.5 628 c 128,-1,4
 177 678 177 678 178 704 c 0,5,6
 179 717 179 717 178 732.5 c 128,-1,7
 177 748 177 748 172.5 762.5 c 128,-1,8
 168 777 168 777 159 790 c 128,-1,9
 150 803 150 803 135 812 c 0,10,11
 109 827 109 827 79 835.5 c 128,-1,12
 49 844 49 844 12 852 c 0,13,14
 -20 859 -20 859 -31 850 c 128,-1,15
 -42 841 -42 841 -43 809 c 0,16,17
 -43 752 -43 752 -42 685.5 c 128,-1,18
 -41 619 -41 619 -38 549.5 c 128,-1,19
 -35 480 -35 480 -31 410 c 128,-1,20
 -27 340 -27 340 -22 276 c 0,21,22
 -17 215 -17 215 -10.5 161.5 c 128,-1,23
 -4 108 -4 108 4 67 c 0,24,25
 7 39 7 39 17.5 25.5 c 128,-1,26
 28 12 28 12 52 4 c 0,27,28
 78 -4 78 -4 106.5 -11.5 c 128,-1,29
 135 -19 135 -19 166 -24 c 0,30,31
 189 -27 189 -27 202.5 -23.5 c 128,-1,32
 216 -20 216 -20 228 0 c 0,33,34
 239 25 239 25 257 63.5 c 128,-1,35
 275 102 275 102 296.5 147 c 128,-1,36
 318 192 318 192 342 239.5 c 128,-1,37
 366 287 366 287 389 331 c 1,38,39
 389 296 389 296 392.5 259 c 128,-1,40
 396 222 396 222 400 186.5 c 128,-1,41
 404 151 404 151 408.5 121 c 128,-1,42
 413 91 413 91 416 70 c 0,43,44
 420 49 420 49 432 31.5 c 128,-1,45
 444 14 444 14 472 4 c 0,46,47
 486 1 486 1 497.5 -2.5 c 128,-1,48
 509 -6 509 -6 520.5 -9 c 128,-1,49
 532 -12 532 -12 545 -15.5 c 128,-1,50
 558 -19 558 -19 576 -22 c 0,51,52
 608 -27 608 -27 625 -22 c 128,-1,53
 642 -17 642 -17 652 2 c 0,54,55
 670 43 670 43 695 98 c 128,-1,56
 720 153 720 153 748.5 215.5 c 128,-1,57
 777 278 777 278 808.5 344.5 c 128,-1,58
 840 411 840 411 871 475 c 128,-1,59
 902 539 902 539 932 598 c 128,-1,60
 962 657 962 657 987 703 c 0,61,62
 999 729 999 729 1000 754 c 128,-1,63
 1001 779 1001 779 978 801 c 0,64,65
 957 818 957 818 934.5 831.5 c 128,-1,66
 912 845 912 845 889 856 c 0,67,68
 857 869 857 869 842 865.5 c 128,-1,69
 827 862 827 862 812 831 c 0,70,71
 800 808 800 808 782.5 771.5 c 128,-1,72
 765 735 765 735 743.5 689 c 128,-1,73
 722 643 722 643 697.5 590.5 c 128,-1,74
 673 538 673 538 648 483 c 128,-1,75
 623 428 623 428 598.5 373.5 c 128,-1,76
 574 319 574 319 553 270 c 1,77,78
 557 329 557 329 561.5 391 c 128,-1,79
 566 453 566 453 570 508 c 128,-1,80
 574 563 574 563 577 604 c 128,-1,81
 580 645 580 645 580 662 c 0,82,83
 580 677 580 677 579.5 688 c 128,-1,84
 579 699 579 699 575.5 707 c 128,-1,85
 572 715 572 715 564.5 721 c 128,-1,86
 557 727 557 727 542 733 c 0,87,88
 515 744 515 744 495.5 751 c 128,-1,89
 476 758 476 758 447 764 c 0,90,91
 418 771 418 771 403.5 765 c 128,-1,92
 389 759 389 759 377 737 c 0,93,94
 361 711 361 711 335.5 656 c 128,-1,95
 310 601 310 601 280.5 534 c 128,-1,96
 251 467 251 467 220.5 395 c 128,-1,97
 190 323 190 323 164 262 c 1,0,1
EndSplineSet
Validated: 41
EndChar

StartChar: X
Encoding: 88 88 69
Width: 708
Flags: W
LayerCount: 2
Fore
SplineSet
303 593 m 1,0,1
 282 644 282 644 262.5 690.5 c 128,-1,2
 243 737 243 737 227 778 c 0,3,4
 213 807 213 807 194 824.5 c 128,-1,5
 175 842 175 842 140 847 c 0,6,7
 123 848 123 848 107 848.5 c 128,-1,8
 91 849 91 849 76 849 c 2,9,-1
 47 849 l 2,10,11
 39 849 39 849 32 849 c 256,12,13
 25 849 25 849 17 848 c 0,14,15
 -12 844 -12 844 -18 832.5 c 128,-1,16
 -24 821 -24 821 -12 789 c 0,17,18
 1 757 1 757 19.5 715 c 128,-1,19
 38 673 38 673 59.5 625 c 128,-1,20
 81 577 81 577 105 525.5 c 128,-1,21
 129 474 129 474 153 423 c 1,22,23
 82 333 82 333 23.5 251.5 c 128,-1,24
 -35 170 -35 170 -70 114 c 0,25,26
 -78 102 -78 102 -80.5 93 c 128,-1,27
 -83 84 -83 84 -83 77 c 0,28,29
 -82 68 -82 68 -72 55 c 128,-1,30
 -62 42 -62 42 -47.5 28.5 c 128,-1,31
 -33 15 -33 15 -17 3 c 128,-1,32
 -1 -9 -1 -9 13 -17 c 0,33,34
 52 -42 52 -42 76 -12 c 0,35,36
 111 30 111 30 154.5 87.5 c 128,-1,37
 198 145 198 145 252 210 c 1,38,39
 284 142 284 142 307.5 95.5 c 128,-1,40
 331 49 331 49 343 32 c 0,41,42
 360 8 360 8 375 -2.5 c 128,-1,43
 390 -13 390 -13 417 -16 c 0,44,45
 471 -21 471 -21 521 -16 c 0,46,47
 565 -10 565 -10 542 25 c 1,48,49
 513 92 513 92 476.5 178.5 c 128,-1,50
 440 265 440 265 398 365 c 1,51,52
 473 453 473 453 542.5 533.5 c 128,-1,53
 612 614 612 614 666 677 c 0,54,55
 684 698 684 698 689 721 c 128,-1,56
 694 744 694 744 677 771 c 0,57,58
 663 793 663 793 641 818.5 c 128,-1,59
 619 844 619 844 596 862 c 0,60,61
 585 869 585 869 574 873 c 128,-1,62
 563 877 563 877 552 877 c 0,63,64
 531 877 531 877 511 854 c 0,65,66
 469 807 469 807 416.5 740 c 128,-1,67
 364 673 364 673 303 593 c 1,0,1
EndSplineSet
Validated: 41
EndChar

StartChar: Y
Encoding: 89 89 70
Width: 651
Flags: W
AnchorPoint: "top" 300 940 basechar 0
LayerCount: 2
Fore
SplineSet
644 714 m 0,0,1
 651 730 651 730 655 741.5 c 128,-1,2
 659 753 659 753 658.5 763 c 128,-1,3
 658 773 658 773 653 782.5 c 128,-1,4
 648 792 648 792 639 803 c 0,5,6
 623 818 623 818 600.5 837 c 128,-1,7
 578 856 578 856 555 867.5 c 128,-1,8
 532 879 532 879 512 877.5 c 128,-1,9
 492 876 492 876 483 851 c 1,10,11
 431 758 431 758 379 668 c 128,-1,12
 327 578 327 578 273 492 c 1,13,14
 246 578 246 578 221 655 c 128,-1,15
 196 732 196 732 173 792 c 0,16,17
 157 824 157 824 143.5 839.5 c 128,-1,18
 130 855 130 855 100 862 c 128,-1,19
 70 869 70 869 41.5 867.5 c 128,-1,20
 13 866 13 866 -18 864 c 0,21,22
 -44 859 -44 859 -49.5 849.5 c 128,-1,23
 -55 840 -55 840 -44 813 c 0,24,25
 -26 757 -26 757 -3.5 692.5 c 128,-1,26
 19 628 19 628 43 560.5 c 128,-1,27
 67 493 67 493 91 426 c 128,-1,28
 115 359 115 359 136 299 c 1,29,30
 124 230 124 230 118 173.5 c 128,-1,31
 112 117 112 117 105 74 c 0,32,33
 103 48 103 48 110 34.5 c 128,-1,34
 117 21 117 21 139 7 c 1,35,36
 161 -2 161 -2 187 -10.5 c 128,-1,37
 213 -19 213 -19 237 -25 c 0,38,39
 263 -31 263 -31 272 -27 c 128,-1,40
 281 -23 281 -23 286 -3 c 0,41,42
 297 51 297 51 309 108.5 c 128,-1,43
 321 166 321 166 338 233 c 1,44,45
 382 296 382 296 429 365 c 128,-1,46
 476 434 476 434 518 499 c 128,-1,47
 560 564 560 564 593.5 620 c 128,-1,48
 627 676 627 676 644 714 c 0,0,1
EndSplineSet
Validated: 41
EndChar

StartChar: Z
Encoding: 90 90 71
Width: 562
Flags: W
LayerCount: 2
Fore
SplineSet
304 661 m 1,0,1
 246 589 246 589 188 510.5 c 128,-1,2
 130 432 130 432 78.5 358 c 128,-1,3
 27 284 27 284 -13.5 221 c 128,-1,4
 -54 158 -54 158 -77 117 c 0,5,6
 -84 105 -84 105 -83.5 94.5 c 128,-1,7
 -83 84 -83 84 -78.5 75 c 128,-1,8
 -74 66 -74 66 -66.5 58 c 128,-1,9
 -59 50 -59 50 -52 43 c 0,10,11
 -29 25 -29 25 -14 13 c 128,-1,12
 1 1 1 1 18 -11 c 0,13,14
 27 -16 27 -16 35.5 -20.5 c 128,-1,15
 44 -25 44 -25 55 -27 c 128,-1,16
 66 -29 66 -29 80 -28.5 c 128,-1,17
 94 -28 94 -28 114 -23 c 0,18,19
 174 -9 174 -9 245 3.5 c 128,-1,20
 316 16 316 16 380 28 c 0,21,22
 406 31 406 31 414 39 c 128,-1,23
 422 47 422 47 414 67 c 0,24,25
 410 84 410 84 401.5 102 c 128,-1,26
 393 120 393 120 381 139 c 0,27,28
 361 172 361 172 306 166 c 0,29,30
 265 161 265 161 228.5 155.5 c 128,-1,31
 192 150 192 150 155 141 c 1,32,33
 250 264 250 264 355.5 395 c 128,-1,34
 461 526 461 526 566 653 c 0,35,36
 586 676 586 676 588.5 696.5 c 128,-1,37
 591 717 591 717 583 740 c 0,38,39
 577 758 577 758 571.5 778.5 c 128,-1,40
 566 799 566 799 553 826 c 0,41,42
 542 849 542 849 528 857.5 c 128,-1,43
 514 866 514 866 484 865 c 0,44,45
 429 862 429 862 367 857.5 c 128,-1,46
 305 853 305 853 244 846.5 c 128,-1,47
 183 840 183 840 126.5 831 c 128,-1,48
 70 822 70 822 25 812 c 0,49,50
 5 805 5 805 -0.5 797 c 128,-1,51
 -6 789 -6 789 3 766 c 0,52,53
 9 754 9 754 16.5 740.5 c 128,-1,54
 24 727 24 727 32 713 c 128,-1,55
 40 699 40 699 47.5 687 c 128,-1,56
 55 675 55 675 61 666 c 0,57,58
 81 643 81 643 103 637 c 128,-1,59
 125 631 125 631 151 636 c 0,60,61
 186 644 186 644 222.5 648.5 c 128,-1,62
 259 653 259 653 304 661 c 1,0,1
EndSplineSet
Validated: 41
EndChar

StartChar: bracketleft
Encoding: 91 91 72
Width: 456
Flags: W
LayerCount: 2
Fore
SplineSet
314 35 m 0,0,1
 306 52 306 52 301.5 68 c 128,-1,2
 297 84 297 84 284 101 c 0,3,4
 265 134 265 134 217 129 c 0,5,6
 200 128 200 128 184.5 127 c 128,-1,7
 169 126 169 126 152 125 c 1,8,9
 164 185 164 185 179.5 255 c 128,-1,10
 195 325 195 325 213 397.5 c 128,-1,11
 231 470 231 470 250.5 542 c 128,-1,12
 270 614 270 614 289 679 c 1,13,14
 324 682 324 682 357 685.5 c 128,-1,15
 390 689 390 689 419 692 c 0,16,17
 445 696 445 696 454.5 704.5 c 128,-1,18
 464 713 464 713 456 737 c 0,19,20
 451 760 451 760 444 779 c 128,-1,21
 437 798 437 798 424 821 c 0,22,23
 413 844 413 844 396 855 c 128,-1,24
 379 866 379 866 353 865 c 0,25,26
 311 864 311 864 262 861.5 c 128,-1,27
 213 859 213 859 166 852 c 0,28,29
 115 846 115 846 106 805 c 0,30,31
 85 728 85 728 65 634.5 c 128,-1,32
 45 541 45 541 27.5 447 c 128,-1,33
 10 353 10 353 -3.5 265.5 c 128,-1,34
 -17 178 -17 178 -24 112 c 0,35,36
 -28 83 -28 83 -20 66 c 128,-1,37
 -12 49 -12 49 2 34 c 0,38,39
 16 23 16 23 30 12 c 128,-1,40
 44 1 44 1 58 -8 c 0,41,42
 75 -19 75 -19 95 -23.5 c 128,-1,43
 115 -28 115 -28 142 -23 c 0,44,45
 177 -17 177 -17 214 -11 c 128,-1,46
 251 -5 251 -5 282 0 c 1,47,48
 308 0 308 0 315 8 c 128,-1,49
 322 16 322 16 314 35 c 0,0,1
EndSplineSet
Validated: 41
EndChar

StartChar: backslash
Encoding: 92 92 73
Width: 537
Flags: W
LayerCount: 2
Fore
SplineSet
149 873 m 0,0,1
 117 880 117 880 90 881 c 128,-1,2
 63 882 63 882 32 881 c 0,3,4
 -27 878 -27 878 -12 825 c 0,5,6
 0 776 0 776 20 707 c 128,-1,7
 40 638 40 638 64.5 560 c 128,-1,8
 89 482 89 482 116 401 c 128,-1,9
 143 320 143 320 169 247 c 128,-1,10
 195 174 195 174 217.5 115 c 128,-1,11
 240 56 240 56 255 22 c 0,12,13
 267 -2 267 -2 279 -14 c 128,-1,14
 291 -26 291 -26 315 -28 c 0,15,16
 352 -34 352 -34 396 -29 c 0,17,18
 422 -27 422 -27 428.5 -19.5 c 128,-1,19
 435 -12 435 -12 427 5 c 0,20,21
 413 49 413 49 394.5 112.5 c 128,-1,22
 376 176 376 176 356 249.5 c 128,-1,23
 336 323 336 323 314.5 402 c 128,-1,24
 293 481 293 481 274 556 c 128,-1,25
 255 631 255 631 239 697 c 128,-1,26
 223 763 223 763 213 812 c 0,27,28
 208 827 208 827 203.5 837 c 128,-1,29
 199 847 199 847 192.5 854 c 128,-1,30
 186 861 186 861 175.5 865.5 c 128,-1,31
 165 870 165 870 149 873 c 0,0,1
EndSplineSet
Validated: 41
EndChar

StartChar: bracketright
Encoding: 93 93 74
Width: 477
Flags: W
LayerCount: 2
Fore
SplineSet
419 698 m 0,0,1
 425 721 425 721 423 736 c 128,-1,2
 421 751 421 751 404 773 c 0,3,4
 390 792 390 792 377.5 806.5 c 128,-1,5
 365 821 365 821 351 835 c 0,6,7
 334 854 334 854 317.5 860 c 128,-1,8
 301 866 301 866 272 864 c 0,9,10
 215 859 215 859 164.5 854 c 128,-1,11
 114 849 114 849 73 841 c 0,12,13
 48 837 48 837 41 823.5 c 128,-1,14
 34 810 34 810 38 791 c 128,-1,15
 42 772 42 772 53.5 750.5 c 128,-1,16
 65 729 65 729 77 709 c 0,17,18
 88 686 88 686 103.5 679.5 c 128,-1,19
 119 673 119 673 149 676 c 0,20,21
 163 677 163 677 176 679 c 128,-1,22
 189 681 189 681 203 682 c 1,23,24
 187 617 187 617 169 544 c 128,-1,25
 151 471 151 471 133.5 397 c 128,-1,26
 116 323 116 323 101 253 c 128,-1,27
 86 183 86 183 76 126 c 1,28,29
 47 122 47 122 15.5 115.5 c 128,-1,30
 -16 109 -16 109 -39 104 c 0,31,32
 -82 93 -82 93 -58 61 c 0,33,34
 -47 44 -47 44 -36.5 28.5 c 128,-1,35
 -26 13 -26 13 -15 1 c 0,36,37
 -3 -11 -3 -11 11 -16.5 c 128,-1,38
 25 -22 25 -22 51 -18 c 0,39,40
 83 -13 83 -13 116 -9 c 128,-1,41
 149 -5 149 -5 184 0 c 0,42,43
 217 1 217 1 226.5 10.5 c 128,-1,44
 236 20 236 20 240 34 c 0,45,46
 255 97 255 97 276 181.5 c 128,-1,47
 297 266 297 266 320.5 357 c 128,-1,48
 344 448 344 448 369.5 537 c 128,-1,49
 395 626 395 626 419 698 c 0,0,1
EndSplineSet
Validated: 41
EndChar

StartChar: asciicircum
Encoding: 94 94 75
Width: 670
Flags: W
LayerCount: 2
Fore
SplineSet
506 370 m 0,0,1
 529 369 529 369 536 376 c 128,-1,2
 543 383 543 383 538 403 c 0,3,4
 529 435 529 435 518.5 478 c 128,-1,5
 508 521 508 521 496.5 568.5 c 128,-1,6
 485 616 485 616 475 666 c 128,-1,7
 465 716 465 716 458 763 c 0,8,9
 456 778 456 778 453.5 788.5 c 128,-1,10
 451 799 451 799 447 807 c 128,-1,11
 443 815 443 815 437 822.5 c 128,-1,12
 431 830 431 830 423 839 c 0,13,14
 406 853 406 853 386.5 866 c 128,-1,15
 367 879 367 879 346 894 c 0,16,17
 326 905 326 905 310 904.5 c 128,-1,18
 294 904 294 904 273 881 c 0,19,20
 233 843 233 843 193.5 798.5 c 128,-1,21
 154 754 154 754 118.5 710.5 c 128,-1,22
 83 667 83 667 54 627 c 128,-1,23
 25 587 25 587 6 559 c 0,24,25
 -15 529 -15 529 10 496 c 0,26,27
 26 476 26 476 39.5 462.5 c 128,-1,28
 53 449 53 449 70 435 c 0,29,30
 85 420 85 420 97 420 c 0,31,32
 112 420 112 420 122 435 c 0,33,34
 160 480 160 480 204.5 532.5 c 128,-1,35
 249 585 249 585 303 640 c 1,36,37
 321 574 321 574 337 518.5 c 128,-1,38
 353 463 353 463 367 426 c 0,39,40
 382 389 382 389 421 380 c 0,41,42
 445 375 445 375 466 373 c 128,-1,43
 487 371 487 371 506 370 c 0,0,1
EndSplineSet
Validated: 41
EndChar

StartChar: underscore
Encoding: 95 95 76
Width: 645
Flags: W
LayerCount: 2
Fore
SplineSet
16 -209 m 2,0,-1
 661 -209 l 2,1,2
 678 -211 678 -211 689 -205.5 c 128,-1,3
 700 -200 700 -200 706.5 -191 c 128,-1,4
 713 -182 713 -182 717 -171.5 c 128,-1,5
 721 -161 721 -161 725 -151 c 0,6,7
 729 -140 729 -140 733 -129.5 c 128,-1,8
 737 -119 737 -119 736 -111 c 128,-1,9
 735 -103 735 -103 727 -98.5 c 128,-1,10
 719 -94 719 -94 699 -95 c 2,11,-1
 41 -95 l 2,12,13
 19 -95 19 -95 8.5 -101.5 c 128,-1,14
 -2 -108 -2 -108 -7 -125 c 0,15,16
 -12 -139 -12 -139 -14 -152 c 128,-1,17
 -16 -165 -16 -165 -18 -178 c 0,18,19
 -26 -209 -26 -209 16 -209 c 2,0,-1
EndSplineSet
Validated: 41
EndChar

StartChar: grave
Encoding: 96 96 77
Width: 592
Flags: W
LayerCount: 2
Fore
SplineSet
89 1152 m 1,0,1
 119 1132 119 1132 160.5 1108 c 128,-1,2
 202 1084 202 1084 249 1060 c 128,-1,3
 296 1036 296 1036 347 1014 c 128,-1,4
 398 992 398 992 446 975 c 0,5,6
 467 966 467 966 491.5 971.5 c 128,-1,7
 516 977 516 977 546 994 c 1,8,9
 546 993 546 993 553 998.5 c 128,-1,10
 560 1004 560 1004 565 1013.5 c 128,-1,11
 570 1023 570 1023 568 1034.5 c 128,-1,12
 566 1046 566 1046 548 1057 c 0,13,14
 508 1076 508 1076 466 1097 c 128,-1,15
 424 1118 424 1118 382.5 1140.5 c 128,-1,16
 341 1163 341 1163 302.5 1187.5 c 128,-1,17
 264 1212 264 1212 231 1238 c 0,18,19
 212 1252 212 1252 188.5 1251.5 c 128,-1,20
 165 1251 165 1251 129 1231 c 0,21,22
 108 1221 108 1221 100.5 1201.5 c 128,-1,23
 93 1182 93 1182 89 1152 c 1,0,1
EndSplineSet
Validated: 41
EndChar

StartChar: a
Encoding: 97 97 78
Width: 718
Flags: W
AnchorPoint: "top" 433 980 basechar 0
LayerCount: 2
Fore
SplineSet
417 189 m 1,0,1
 420 148 420 148 423 113.5 c 128,-1,2
 426 79 426 79 430 50 c 0,3,4
 434 22 434 22 443.5 11 c 128,-1,5
 453 0 453 0 477 -7 c 0,6,7
 500 -15 500 -15 522 -16.5 c 128,-1,8
 544 -18 544 -18 570 -18 c 256,9,10
 596 -18 596 -18 603.5 -11 c 128,-1,11
 611 -4 611 -4 611 14 c 0,12,13
 610 100 610 100 610.5 200.5 c 128,-1,14
 611 301 611 301 613 401 c 128,-1,15
 615 501 615 501 619 593 c 128,-1,16
 623 685 623 685 629 756 c 0,17,18
 632 785 632 785 623.5 803 c 128,-1,19
 615 821 615 821 584 832 c 0,20,21
 561 838 561 838 538.5 845 c 128,-1,22
 516 852 516 852 489.5 858 c 128,-1,23
 463 864 463 864 431 868.5 c 128,-1,24
 399 873 399 873 358 875 c 0,25,26
 311 879 311 879 287 862 c 128,-1,27
 263 845 263 845 248 818 c 0,28,29
 206 743 206 743 159.5 646.5 c 128,-1,30
 113 550 113 550 68.5 451 c 128,-1,31
 24 352 24 352 -14.5 259 c 128,-1,32
 -53 166 -53 166 -77 97 c 0,33,34
 -83 76 -83 76 -82.5 63.5 c 128,-1,35
 -82 51 -82 51 -77 43 c 128,-1,36
 -72 35 -72 35 -63 29.5 c 128,-1,37
 -54 24 -54 24 -42 16 c 0,38,39
 -26 8 -26 8 -10.5 1.5 c 128,-1,40
 5 -5 5 -5 18 -10 c 0,41,42
 41 -18 41 -18 52.5 -15 c 128,-1,43
 64 -12 64 -12 72 5 c 0,44,45
 86 37 86 37 101 70.5 c 128,-1,46
 116 104 116 104 136 143 c 1,47,48
 193 158 193 158 267.5 168.5 c 128,-1,49
 342 179 342 179 417 189 c 1,0,1
226 329 m 1,50,51
 273 424 273 424 319.5 512.5 c 128,-1,52
 366 601 366 601 406 674 c 1,53,54
 404 594 404 594 405 512.5 c 128,-1,55
 406 431 406 431 408 349 c 1,56,57
 362 346 362 346 316.5 341 c 128,-1,58
 271 336 271 336 226 329 c 1,50,51
EndSplineSet
Validated: 41
EndChar

StartChar: b
Encoding: 98 98 79
Width: 694
Flags: W
LayerCount: 2
Fore
SplineSet
480 383 m 1,0,1
 514 400 514 400 539 418.5 c 128,-1,2
 564 437 564 437 588 455 c 0,3,4
 610 474 610 474 629 495.5 c 128,-1,5
 648 517 648 517 661 542 c 128,-1,6
 674 567 674 567 679.5 594 c 128,-1,7
 685 621 685 621 680 650 c 0,8,9
 669 703 669 703 645.5 743 c 128,-1,10
 622 783 622 783 587 818 c 0,11,12
 560 844 560 844 518 857.5 c 128,-1,13
 476 871 476 871 425.5 874 c 128,-1,14
 375 877 375 877 319 871 c 128,-1,15
 263 865 263 865 208.5 852 c 128,-1,16
 154 839 154 839 104 821 c 128,-1,17
 54 803 54 803 16 782 c 1,18,19
 14 705 14 705 6.5 619.5 c 128,-1,20
 -1 534 -1 534 -10.5 449.5 c 128,-1,21
 -20 365 -20 365 -28 286.5 c 128,-1,22
 -36 208 -36 208 -39 146 c 0,23,24
 -41 127 -41 127 -39 115 c 128,-1,25
 -37 103 -37 103 -32 93.5 c 128,-1,26
 -27 84 -27 84 -18.5 75.5 c 128,-1,27
 -10 67 -10 67 1 55 c 0,28,29
 31 32 31 32 53.5 17.5 c 128,-1,30
 76 3 76 3 106 -10 c 0,31,32
 122 -19 122 -19 134 -23 c 128,-1,33
 146 -27 146 -27 158.5 -28 c 128,-1,34
 171 -29 171 -29 184.5 -27 c 128,-1,35
 198 -25 198 -25 217 -20 c 0,36,37
 253 -11 253 -11 293 2.5 c 128,-1,38
 333 16 333 16 372.5 33 c 128,-1,39
 412 50 412 50 447.5 71 c 128,-1,40
 483 92 483 92 509 115 c 0,41,42
 547 145 547 145 564 176.5 c 128,-1,43
 581 208 581 208 576 253 c 0,44,45
 568 291 568 291 543.5 327 c 128,-1,46
 519 363 519 363 480 383 c 1,0,1
216 454 m 1,47,48
 230 507 230 507 240 554 c 128,-1,49
 250 601 250 601 264 644 c 1,50,51
 307 664 307 664 344 674 c 128,-1,52
 381 684 381 684 409.5 685.5 c 128,-1,53
 438 687 438 687 456 680.5 c 128,-1,54
 474 674 474 674 478 661 c 0,55,56
 482 645 482 645 466 618.5 c 128,-1,57
 450 592 450 592 415.5 562.5 c 128,-1,58
 381 533 381 533 330.5 504 c 128,-1,59
 280 475 280 475 216 454 c 1,47,48
178 288 m 1,60,61
 218 301 218 301 251 305.5 c 128,-1,62
 284 310 284 310 309 307 c 128,-1,63
 334 304 334 304 349 296 c 128,-1,64
 364 288 364 288 369 278 c 0,65,66
 373 261 373 261 358.5 240.5 c 128,-1,67
 344 220 344 220 314 199.5 c 128,-1,68
 284 179 284 179 241 160.5 c 128,-1,69
 198 142 198 142 146 129 c 1,70,71
 153 169 153 169 161.5 207.5 c 128,-1,72
 170 246 170 246 178 288 c 1,60,61
EndSplineSet
Validated: 41
EndChar

StartChar: c
Encoding: 99 99 80
Width: 642
Flags: W
LayerCount: 2
Fore
SplineSet
474 210 m 0,0,1
 379 237 379 237 320 177 c 0,2,3
 238 93 238 93 198 106 c 0,4,5
 177 112 177 112 166 140 c 128,-1,6
 155 168 155 168 153 208.5 c 128,-1,7
 151 249 151 249 157.5 298.5 c 128,-1,8
 164 348 164 348 177 398 c 0,9,10
 191 446 191 446 215.5 502 c 128,-1,11
 240 558 240 558 268 604.5 c 128,-1,12
 296 651 296 651 323 680 c 128,-1,13
 350 709 350 709 370 703 c 0,14,15
 390 695 390 695 394 669 c 128,-1,16
 398 643 398 643 397 611 c 0,17,18
 397 593 397 593 400 572 c 0,19,20
 404 547 404 547 413 528 c 128,-1,21
 422 509 422 509 437 494.5 c 128,-1,22
 452 480 452 480 475 469.5 c 128,-1,23
 498 459 498 459 530 453 c 0,24,25
 547 450 547 450 557 451 c 128,-1,26
 567 452 567 452 572.5 456 c 128,-1,27
 578 460 578 460 581 467 c 128,-1,28
 584 474 584 474 587 482 c 0,29,30
 593 500 593 500 598 522.5 c 128,-1,31
 603 545 603 545 606 569.5 c 128,-1,32
 609 594 609 594 610.5 619 c 128,-1,33
 612 644 612 644 611 667 c 0,34,35
 610 687 610 687 607 704.5 c 128,-1,36
 604 722 604 722 596.5 738 c 128,-1,37
 589 754 589 754 576.5 769.5 c 128,-1,38
 564 785 564 785 545 801 c 0,39,40
 525 814 525 814 500 826.5 c 128,-1,41
 475 839 475 839 447 849.5 c 128,-1,42
 419 860 419 860 389 867.5 c 128,-1,43
 359 875 359 875 331 878 c 0,44,45
 293 881 293 881 250 870 c 128,-1,46
 207 859 207 859 165 823 c 0,47,48
 113 778 113 778 72.5 718.5 c 128,-1,49
 32 659 32 659 3 592 c 128,-1,50
 -26 525 -26 525 -42.5 454.5 c 128,-1,51
 -59 384 -59 384 -62 317.5 c 128,-1,52
 -65 251 -65 251 -54.5 192.5 c 128,-1,53
 -44 134 -44 134 -18 91 c 0,54,55
 -3 63 -3 63 24 42 c 128,-1,56
 51 21 51 21 78 10 c 0,57,58
 108 0 108 0 146 -11.5 c 128,-1,59
 184 -23 184 -23 231 -26 c 0,60,61
 253 -28 253 -28 276.5 -26 c 128,-1,62
 300 -24 300 -24 321.5 -19 c 128,-1,63
 343 -14 343 -14 362.5 -6 c 128,-1,64
 382 2 382 2 396 11 c 0,65,66
 424 31 424 31 452 61 c 128,-1,67
 480 91 480 91 498 127 c 0,68,69
 515 158 515 158 513.5 179 c 128,-1,70
 512 200 512 200 474 210 c 0,0,1
EndSplineSet
Validated: 41
EndChar

StartChar: d
Encoding: 100 100 81
Width: 733
Flags: W
LayerCount: 2
Fore
SplineSet
16 792 m 1,0,-1
 -42 157 l 2,1,2
 -45 132 -45 132 -43 116 c 128,-1,3
 -41 100 -41 100 -34.5 89 c 128,-1,4
 -28 78 -28 78 -19 69.5 c 128,-1,5
 -10 61 -10 61 0 52 c 0,6,7
 27 32 27 32 48 18.5 c 128,-1,8
 69 5 69 5 97 -9 c 0,9,10
 153 -36 153 -36 204 -18 c 0,11,12
 304 10 304 10 383 57 c 128,-1,13
 462 104 462 104 519.5 163 c 128,-1,14
 577 222 577 222 613 289 c 128,-1,15
 649 356 649 356 663.5 423.5 c 128,-1,16
 678 491 678 491 671 555 c 128,-1,17
 664 619 664 619 636 673 c 0,18,19
 603 741 603 741 555 782 c 128,-1,20
 507 823 507 823 450.5 843.5 c 128,-1,21
 394 864 394 864 333.5 866.5 c 128,-1,22
 273 869 273 869 215 859.5 c 128,-1,23
 157 850 157 850 105.5 831.5 c 128,-1,24
 54 813 54 813 16 792 c 1,0,-1
150 139 m 1,25,26
 175 269 175 269 202 396.5 c 128,-1,27
 229 524 229 524 264 655 c 1,28,29
 329 676 329 676 374 659 c 128,-1,30
 419 642 419 642 437 608 c 128,-1,31
 455 574 455 574 451 513 c 0,32,33
 448 469 448 469 430 418 c 128,-1,34
 412 367 412 367 376 316 c 128,-1,35
 340 265 340 265 284 218.5 c 128,-1,36
 228 172 228 172 150 139 c 1,25,26
EndSplineSet
Validated: 41
EndChar

StartChar: e
Encoding: 101 101 82
Width: 577
Flags: W
AnchorPoint: "top" 287 940 basechar 0
LayerCount: 2
Fore
SplineSet
41 798 m 1,0,-1
 -54 133 l 2,1,2
 -56 106 -56 106 -46.5 87 c 128,-1,3
 -37 68 -37 68 -20 54 c 0,4,5
 1 36 1 36 16.5 24.5 c 128,-1,6
 32 13 32 13 49 2 c 0,7,8
 64 -8 64 -8 84.5 -13.5 c 128,-1,9
 105 -19 105 -19 145 -9 c 0,10,11
 205 2 205 2 271 15 c 128,-1,12
 337 28 337 28 401 40 c 0,13,14
 428 45 428 45 433 52.5 c 128,-1,15
 438 60 438 60 433 80 c 0,16,17
 425 98 425 98 418.5 115.5 c 128,-1,18
 412 133 412 133 400 153 c 0,19,20
 389 171 389 171 373.5 177 c 128,-1,21
 358 183 358 183 330 181 c 0,22,23
 280 178 280 178 237.5 173 c 128,-1,24
 195 168 195 168 148 160 c 1,25,26
 156 188 156 188 163 216.5 c 128,-1,27
 170 245 170 245 178 277 c 1,28,29
 236 289 236 289 298.5 299 c 128,-1,30
 361 309 361 309 421 320 c 0,31,32
 449 326 449 326 455.5 334 c 128,-1,33
 462 342 462 342 454 365 c 0,34,35
 449 385 449 385 442.5 404.5 c 128,-1,36
 436 424 436 424 424 444 c 0,37,38
 413 464 413 464 397 470 c 128,-1,39
 381 476 381 476 353 475 c 0,40,41
 319 474 319 474 289 472 c 128,-1,42
 259 470 259 470 229 466 c 1,43,44
 245 519 245 519 258 567.5 c 128,-1,45
 271 616 271 616 286 661 c 1,46,47
 357 671 357 671 421 678 c 128,-1,48
 485 685 485 685 545 692 c 0,49,50
 574 696 574 696 582 705 c 128,-1,51
 590 714 590 714 586 740 c 0,52,53
 581 763 581 763 576 782.5 c 128,-1,54
 571 802 571 802 558 826 c 1,55,56
 542 871 542 871 485 870 c 0,57,58
 425 868 425 868 364.5 860.5 c 128,-1,59
 304 853 304 853 246.5 843 c 128,-1,60
 189 833 189 833 136.5 821 c 128,-1,61
 84 809 84 809 41 798 c 1,0,-1
EndSplineSet
Validated: 41
EndChar

StartChar: f
Encoding: 102 102 83
Width: 570
Flags: W
LayerCount: 2
Fore
SplineSet
543 692 m 0,0,1
 573 696 573 696 580 704.5 c 128,-1,2
 587 713 587 713 583 739 c 0,3,4
 579 782 579 782 552 827 c 0,5,6
 543 841 543 841 535 849.5 c 128,-1,7
 527 858 527 858 518.5 862.5 c 128,-1,8
 510 867 510 867 499.5 868.5 c 128,-1,9
 489 870 489 870 474 870 c 0,10,11
 414 868 414 868 352.5 863 c 128,-1,12
 291 858 291 858 232 850.5 c 128,-1,13
 173 843 173 843 119.5 833.5 c 128,-1,14
 66 824 66 824 23 812 c 1,15,16
 26 763 26 763 22 698 c 128,-1,17
 18 633 18 633 9.5 561.5 c 128,-1,18
 1 490 1 490 -10 417 c 128,-1,19
 -21 344 -21 344 -31 279.5 c 128,-1,20
 -41 215 -41 215 -48.5 163.5 c 128,-1,21
 -56 112 -56 112 -57 84 c 0,22,23
 -57 58 -57 58 -52 44 c 128,-1,24
 -47 30 -47 30 -22 18 c 0,25,26
 -3 10 -3 10 22.5 1 c 128,-1,27
 48 -8 48 -8 71 -11.5 c 128,-1,28
 94 -15 94 -15 110 -11.5 c 128,-1,29
 126 -8 126 -8 127 10 c 0,30,31
 139 64 139 64 153.5 133.5 c 128,-1,32
 168 203 168 203 187 280 c 1,33,34
 244 292 244 292 302 303 c 128,-1,35
 360 314 360 314 417 323 c 0,36,37
 444 326 444 326 451.5 334.5 c 128,-1,38
 459 343 459 343 451 366 c 0,39,40
 446 386 446 386 439.5 405.5 c 128,-1,41
 433 425 433 425 421 445 c 0,42,43
 399 479 399 479 350 476 c 0,44,45
 319 475 319 475 289.5 472.5 c 128,-1,46
 260 470 260 470 231 467 c 1,47,48
 248 521 248 521 258.5 570 c 128,-1,49
 269 619 269 619 283 660 c 1,50,51
 354 670 354 670 418.5 677 c 128,-1,52
 483 684 483 684 543 692 c 0,0,1
EndSplineSet
Validated: 41
EndChar

StartChar: g
Encoding: 103 103 84
Width: 663
Flags: W
LayerCount: 2
Fore
SplineSet
594 478 m 0,0,1
 598 494 598 494 601.5 518 c 128,-1,2
 605 542 605 542 607.5 568 c 128,-1,3
 610 594 610 594 610.5 620 c 128,-1,4
 611 646 611 646 610 667 c 0,5,6
 605 707 605 707 591 739 c 128,-1,7
 577 771 577 771 543 798 c 0,8,9
 525 813 525 813 502.5 825.5 c 128,-1,10
 480 838 480 838 454.5 847.5 c 128,-1,11
 429 857 429 857 402 864 c 128,-1,12
 375 871 375 871 349 874 c 0,13,14
 331 877 331 877 310 877 c 256,15,16
 289 877 289 877 267.5 874 c 128,-1,17
 246 871 246 871 225 863 c 128,-1,18
 204 855 204 855 186 841 c 0,19,20
 130 800 130 800 85.5 742 c 128,-1,21
 41 684 41 684 8.5 617.5 c 128,-1,22
 -24 551 -24 551 -43 480.5 c 128,-1,23
 -62 410 -62 410 -67 342 c 128,-1,24
 -72 274 -72 274 -62 213.5 c 128,-1,25
 -52 153 -52 153 -26 108 c 0,26,27
 -12 80 -12 80 12.5 56.5 c 128,-1,28
 37 33 37 33 63 19 c 0,29,30
 136 -13 136 -13 213 -23 c 0,31,32
 257 -29 257 -29 297 -22.5 c 128,-1,33
 337 -16 337 -16 373 4 c 0,34,35
 429 37 429 37 477 98 c 128,-1,36
 525 159 525 159 562 249 c 0,37,38
 571 275 571 275 570.5 293 c 128,-1,39
 570 311 570 311 553 334 c 0,40,41
 544 346 544 346 533.5 360 c 128,-1,42
 523 374 523 374 511 387 c 0,43,44
 493 407 493 407 472 412.5 c 128,-1,45
 451 418 451 418 417 413 c 0,46,47
 388 408 388 408 348 403.5 c 128,-1,48
 308 399 308 399 271 391 c 0,49,50
 251 388 251 388 235 385.5 c 128,-1,51
 219 383 219 383 208 378.5 c 128,-1,52
 197 374 197 374 192.5 366.5 c 128,-1,53
 188 359 188 359 192 346 c 0,54,55
 211 289 211 289 243.5 265 c 128,-1,56
 276 241 276 241 336 244 c 1,57,58
 320 211 320 211 302 182.5 c 128,-1,59
 284 154 284 154 265 134 c 128,-1,60
 246 114 246 114 226.5 105 c 128,-1,61
 207 96 207 96 189 102 c 0,62,63
 168 109 168 109 156 139.5 c 128,-1,64
 144 170 144 170 142 213 c 128,-1,65
 140 256 140 256 147.5 306.5 c 128,-1,66
 155 357 155 357 172 405 c 0,67,68
 191 465 191 465 218 520.5 c 128,-1,69
 245 576 245 576 273.5 618 c 128,-1,70
 302 660 302 660 329.5 682.5 c 128,-1,71
 357 705 357 705 377 699 c 0,72,73
 387 696 387 696 390.5 683 c 128,-1,74
 394 670 394 670 398 651 c 0,75,76
 399 641 399 641 400 631 c 128,-1,77
 401 621 401 621 401 610 c 0,78,79
 400 599 400 599 400.5 589.5 c 128,-1,80
 401 580 401 580 403 570 c 0,81,82
 408 519 408 519 440.5 488 c 128,-1,83
 473 457 473 457 543 447 c 0,84,85
 568 445 568 445 577.5 451.5 c 128,-1,86
 587 458 587 458 594 478 c 0,0,1
EndSplineSet
Validated: 41
EndChar

StartChar: h
Encoding: 104 104 85
Width: 678
Flags: W
LayerCount: 2
Fore
SplineSet
687 739 m 0,0,1
 695 765 695 765 689.5 779 c 128,-1,2
 684 793 684 793 658 812 c 0,3,4
 630 830 630 830 599 844.5 c 128,-1,5
 568 859 568 859 539 867 c 0,6,7
 508 876 508 876 491.5 871.5 c 128,-1,8
 475 867 475 867 466 835 c 0,9,10
 443 750 443 750 419.5 645.5 c 128,-1,11
 396 541 396 541 371 435 c 1,12,13
 333 432 333 432 292.5 429 c 128,-1,14
 252 426 252 426 210 421 c 1,15,16
 230 509 230 509 247.5 586 c 128,-1,17
 265 663 265 663 281 720 c 0,18,19
 284 733 284 733 285 743 c 128,-1,20
 286 753 286 753 282.5 761 c 128,-1,21
 279 769 279 769 270.5 777 c 128,-1,22
 262 785 262 785 247 794 c 0,23,24
 220 812 220 812 183.5 827.5 c 128,-1,25
 147 843 147 843 115 852 c 0,26,27
 86 863 86 863 71 857 c 128,-1,28
 56 851 56 851 48 819 c 0,29,30
 36 735 36 735 24.5 635.5 c 128,-1,31
 13 536 13 536 1 436 c 128,-1,32
 -11 336 -11 336 -24 244 c 128,-1,33
 -37 152 -37 152 -52 83 c 0,34,35
 -58 57 -58 57 -48 42.5 c 128,-1,36
 -38 28 -38 28 -15 17 c 0,37,38
 4 6 4 6 30.5 -1 c 128,-1,39
 57 -8 57 -8 82 -15 c 0,40,41
 108 -21 108 -21 116.5 -16 c 128,-1,42
 125 -11 125 -11 129 6 c 0,43,44
 137 54 137 54 147 114.5 c 128,-1,45
 157 175 157 175 173 244 c 1,46,47
 215 251 215 251 255.5 256.5 c 128,-1,48
 296 262 296 262 338 268 c 1,49,50
 327 210 327 210 319 163 c 128,-1,51
 311 116 311 116 307 80 c 1,52,53
 298 44 298 44 321 26.5 c 128,-1,54
 344 9 344 9 385 -3 c 0,55,56
 405 -8 405 -8 422.5 -12.5 c 128,-1,57
 440 -17 440 -17 453 -17.5 c 128,-1,58
 466 -18 466 -18 473.5 -13.5 c 128,-1,59
 481 -9 481 -9 481 5 c 0,60,61
 501 88 501 88 526.5 185 c 128,-1,62
 552 282 552 282 579.5 380 c 128,-1,63
 607 478 607 478 635 571 c 128,-1,64
 663 664 663 664 687 739 c 0,0,1
EndSplineSet
Validated: 41
EndChar

StartChar: i
Encoding: 105 105 86
Width: 312
Flags: W
LayerCount: 2
Fore
SplineSet
259 794 m 0,0,1
 232 812 232 812 196 828 c 128,-1,2
 160 844 160 844 129 852 c 0,3,4
 98 861 98 861 82.5 854.5 c 128,-1,5
 67 848 67 848 58 819 c 0,6,7
 47 772 47 772 34 709.5 c 128,-1,8
 21 647 21 647 8.5 577 c 128,-1,9
 -4 507 -4 507 -16 434 c 128,-1,10
 -28 361 -28 361 -37.5 295 c 128,-1,11
 -47 229 -47 229 -53.5 173.5 c 128,-1,12
 -60 118 -60 118 -62 83 c 0,13,14
 -65 57 -65 57 -57.5 42.5 c 128,-1,15
 -50 28 -50 28 -27 17 c 0,16,17
 -6 6 -6 6 17.5 -1 c 128,-1,18
 41 -8 41 -8 67 -15 c 0,19,20
 93 -21 93 -21 101.5 -16 c 128,-1,21
 110 -11 110 -11 115 6 c 0,22,23
 124 51 124 51 136.5 108.5 c 128,-1,24
 149 166 149 166 164 230.5 c 128,-1,25
 179 295 179 295 195 362.5 c 128,-1,26
 211 430 211 430 227.5 494.5 c 128,-1,27
 244 559 244 559 260.5 617 c 128,-1,28
 277 675 277 675 291 720 c 0,29,30
 298 747 298 747 292.5 761 c 128,-1,31
 287 775 287 775 259 794 c 0,0,1
EndSplineSet
Validated: 41
EndChar

StartChar: j
Encoding: 106 106 87
Width: 627
Flags: W
LayerCount: 2
Fore
SplineSet
138 -13 m 0,0,1
 213 -30 213 -30 261.5 -20.5 c 128,-1,2
 310 -11 310 -11 345 10 c 0,3,4
 389 38 389 38 427 100 c 128,-1,5
 465 162 465 162 497.5 254 c 128,-1,6
 530 346 530 346 558 467 c 128,-1,7
 586 588 586 588 611 735 c 0,8,9
 614 748 614 748 614.5 757.5 c 128,-1,10
 615 767 615 767 611.5 775 c 128,-1,11
 608 783 608 783 600 790.5 c 128,-1,12
 592 798 592 798 577 808 c 0,13,14
 548 826 548 826 511.5 840 c 128,-1,15
 475 854 475 854 445 862 c 0,16,17
 414 870 414 870 397.5 863.5 c 128,-1,18
 381 857 381 857 375 827 c 0,19,20
 366 764 366 764 353.5 686 c 128,-1,21
 341 608 341 608 326 527.5 c 128,-1,22
 311 447 311 447 294 370.5 c 128,-1,23
 277 294 277 294 258 234.5 c 128,-1,24
 239 175 239 175 219 139 c 128,-1,25
 199 103 199 103 178 104 c 0,26,27
 154 107 154 107 148 129.5 c 128,-1,28
 142 152 142 152 138 202 c 0,29,30
 135 280 135 280 18 327 c 0,31,32
 -17 343 -17 343 -32.5 326.5 c 128,-1,33
 -48 310 -48 310 -54 275 c 0,34,35
 -60 229 -60 229 -57 193.5 c 128,-1,36
 -54 158 -54 158 -38 125 c 0,37,38
 -28 102 -28 102 -14 81 c 128,-1,39
 0 60 0 60 21 42 c 128,-1,40
 42 24 42 24 70.5 10 c 128,-1,41
 99 -4 99 -4 138 -13 c 0,0,1
EndSplineSet
Validated: 41
EndChar

StartChar: k
Encoding: 107 107 88
Width: 664
Flags: W
LayerCount: 2
Fore
SplineSet
332 303 m 1,0,1
 376 345 376 345 425 393 c 128,-1,2
 474 441 474 441 519.5 489.5 c 128,-1,3
 565 538 565 538 603.5 584.5 c 128,-1,4
 642 631 642 631 665 669 c 0,5,6
 684 700 684 700 686.5 721 c 128,-1,7
 689 742 689 742 681 764 c 0,8,9
 668 791 668 791 653.5 814 c 128,-1,10
 639 837 639 837 617 856 c 0,11,12
 596 874 596 874 579 874 c 0,13,14
 564 874 564 874 547 852 c 0,15,16
 521 820 521 820 480.5 774 c 128,-1,17
 440 728 440 728 393.5 677 c 128,-1,18
 347 626 347 626 298 573.5 c 128,-1,19
 249 521 249 521 207 475 c 1,20,21
 224 553 224 553 239 618.5 c 128,-1,22
 254 684 254 684 269 735 c 0,23,24
 273 748 273 748 274 757.5 c 128,-1,25
 275 767 275 767 271 775 c 128,-1,26
 267 783 267 783 258 790.5 c 128,-1,27
 249 798 249 798 234 808 c 0,28,29
 207 826 207 826 170.5 842 c 128,-1,30
 134 858 134 858 102 866 c 0,31,32
 73 875 73 875 57 868.5 c 128,-1,33
 41 862 41 862 33 834 c 0,34,35
 23 787 23 787 12 723 c 128,-1,36
 1 659 1 659 -10 587.5 c 128,-1,37
 -21 516 -21 516 -31 441.5 c 128,-1,38
 -41 367 -41 367 -49 299 c 128,-1,39
 -57 231 -57 231 -62 174.5 c 128,-1,40
 -67 118 -67 118 -68 83 c 0,41,42
 -70 46 -70 46 -50 28 c 128,-1,43
 -30 10 -30 10 15 -2 c 0,44,45
 37 -8 37 -8 55.5 -13.5 c 128,-1,46
 74 -19 74 -19 87 -19.5 c 128,-1,47
 100 -20 100 -20 107 -14.5 c 128,-1,48
 114 -9 114 -9 114 6 c 0,49,50
 122 51 122 51 132 106 c 128,-1,51
 142 161 142 161 155 227 c 1,52,53
 176 197 176 197 200.5 166.5 c 128,-1,54
 225 136 225 136 247.5 109 c 128,-1,55
 270 82 270 82 289 61 c 128,-1,56
 308 40 308 40 319 28 c 0,57,58
 346 -1 346 -1 373 -5 c 128,-1,59
 400 -9 400 -9 426 -2 c 0,60,61
 443 0 443 0 460.5 5 c 128,-1,62
 478 10 478 10 491 17 c 0,63,64
 513 27 513 27 516.5 37.5 c 128,-1,65
 520 48 520 48 503 65 c 0,66,67
 487 83 487 83 466 110 c 128,-1,68
 445 137 445 137 422 169 c 128,-1,69
 399 201 399 201 375.5 235.5 c 128,-1,70
 352 270 352 270 332 303 c 1,0,1
EndSplineSet
Validated: 41
EndChar

StartChar: l
Encoding: 108 108 89
Width: 532
Flags: W
LayerCount: 2
Fore
SplineSet
383 41 m 0,0,1
 414 47 414 47 417.5 54 c 128,-1,2
 421 61 421 61 414 82 c 0,3,4
 410 99 410 99 402.5 117.5 c 128,-1,5
 395 136 395 136 383 154 c 0,6,7
 371 173 371 173 356.5 178.5 c 128,-1,8
 342 184 342 184 314 182 c 0,9,10
 267 179 267 179 227 175 c 128,-1,11
 187 171 187 171 141 163 c 1,12,13
 157 232 157 232 175.5 307.5 c 128,-1,14
 194 383 194 383 214.5 459 c 128,-1,15
 235 535 235 535 255.5 607 c 128,-1,16
 276 679 276 679 296 739 c 0,17,18
 305 765 305 765 298.5 779 c 128,-1,19
 292 793 292 793 266 812 c 0,20,21
 239 830 239 830 203 844.5 c 128,-1,22
 167 859 167 859 136 867 c 0,23,24
 105 876 105 876 89.5 870.5 c 128,-1,25
 74 865 74 865 64 836 c 0,26,27
 50 785 50 785 35.5 724 c 128,-1,28
 21 663 21 663 7 597 c 128,-1,29
 -7 531 -7 531 -19 464.5 c 128,-1,30
 -31 398 -31 398 -41 336 c 128,-1,31
 -51 274 -51 274 -58 220.5 c 128,-1,32
 -65 167 -65 167 -68 128 c 0,33,34
 -72 103 -72 103 -63 85.5 c 128,-1,35
 -54 68 -54 68 -37 54 c 0,36,37
 -14 36 -14 36 0 24.5 c 128,-1,38
 14 13 14 13 31 2 c 0,39,40
 38 -3 38 -3 45.5 -7 c 128,-1,41
 53 -11 53 -11 64 -13.5 c 128,-1,42
 75 -16 75 -16 90 -15 c 128,-1,43
 105 -14 105 -14 127 -8 c 0,44,45
 187 4 187 4 253.5 16.5 c 128,-1,46
 320 29 320 29 383 41 c 0,0,1
EndSplineSet
Validated: 41
EndChar

StartChar: m
Encoding: 109 109 90
Width: 924
Flags: W
LayerCount: 2
Fore
SplineSet
187 489 m 1,0,1
 202 389 202 389 220.5 295 c 128,-1,2
 239 201 239 201 259 129 c 0,3,4
 264 112 264 112 268.5 101 c 128,-1,5
 273 90 273 90 279 82.5 c 128,-1,6
 285 75 285 75 293 70.5 c 128,-1,7
 301 66 301 66 312 62 c 0,8,9
 342 52 342 52 382 44 c 0,10,11
 395 41 395 41 403 41.5 c 128,-1,12
 411 42 411 42 416 45 c 128,-1,13
 421 48 421 48 424.5 54.5 c 128,-1,14
 428 61 428 61 433 72 c 0,15,16
 449 107 449 107 475.5 159.5 c 128,-1,17
 502 212 502 212 533.5 271 c 128,-1,18
 565 330 565 330 598.5 391 c 128,-1,19
 632 452 632 452 662 504 c 1,20,21
 645 445 645 445 630.5 382 c 128,-1,22
 616 319 616 319 604 261.5 c 128,-1,23
 592 204 592 204 583 156.5 c 128,-1,24
 574 109 574 109 570 79 c 0,25,26
 565 54 565 54 572.5 39 c 128,-1,27
 580 24 580 24 603 13 c 0,28,29
 621 3 621 3 645 -4 c 128,-1,30
 669 -11 669 -11 692 -16 c 0,31,32
 718 -22 718 -22 727 -14 c 128,-1,33
 736 -6 736 -6 743 12 c 0,34,35
 751 47 751 47 765 100 c 128,-1,36
 779 153 779 153 796.5 216 c 128,-1,37
 814 279 814 279 833.5 348 c 128,-1,38
 853 417 853 417 872.5 484 c 128,-1,39
 892 551 892 551 911 612 c 128,-1,40
 930 673 930 673 945 720 c 0,41,42
 956 753 956 753 948.5 771.5 c 128,-1,43
 941 790 941 790 912 804 c 0,44,45
 868 824 868 824 822.5 839 c 128,-1,46
 777 854 777 854 736 865 c 0,47,48
 701 875 701 875 678.5 873 c 128,-1,49
 656 871 656 871 638 855.5 c 128,-1,50
 620 840 620 840 603 810.5 c 128,-1,51
 586 781 586 781 563 735 c 0,52,53
 540 695 540 695 515.5 650 c 128,-1,54
 491 605 491 605 468 560 c 128,-1,55
 445 515 445 515 423.5 472 c 128,-1,56
 402 429 402 429 386 393 c 1,57,58
 370 496 370 496 361 555 c 128,-1,59
 352 614 352 614 347.5 646 c 128,-1,60
 343 678 343 678 341.5 690.5 c 128,-1,61
 340 703 340 703 340 712 c 0,62,63
 336 731 336 731 332.5 746 c 128,-1,64
 329 761 329 761 321 773.5 c 128,-1,65
 313 786 313 786 299 796.5 c 128,-1,66
 285 807 285 807 261 816 c 0,67,68
 223 830 223 830 185.5 840 c 128,-1,69
 148 850 148 850 94 858 c 0,70,71
 59 863 59 863 42.5 854.5 c 128,-1,72
 26 846 26 846 17 812 c 0,73,74
 8 765 8 765 -1.5 703.5 c 128,-1,75
 -11 642 -11 642 -20.5 573 c 128,-1,76
 -30 504 -30 504 -38 433 c 128,-1,77
 -46 362 -46 362 -52.5 296 c 128,-1,78
 -59 230 -59 230 -62.5 173.5 c 128,-1,79
 -66 117 -66 117 -66 78 c 0,80,81
 -68 52 -68 52 -59 38 c 128,-1,82
 -50 24 -50 24 -25 12 c 0,83,84
 -5 2 -5 2 18.5 -5.5 c 128,-1,85
 42 -13 42 -13 65 -18 c 0,86,87
 89 -23 89 -23 98 -17.5 c 128,-1,88
 107 -12 107 -12 111 6 c 0,89,90
 115 49 115 49 122.5 104 c 128,-1,91
 130 159 130 159 140 222 c 128,-1,92
 150 285 150 285 162 353 c 128,-1,93
 174 421 174 421 187 489 c 1,0,1
EndSplineSet
Validated: 41
EndChar

StartChar: n
Encoding: 110 110 91
Width: 702
Flags: W
LayerCount: 2
Fore
SplineSet
392 327 m 1,0,1
 381 378 381 378 370 433.5 c 128,-1,2
 359 489 359 489 349 541.5 c 128,-1,3
 339 594 339 594 331 639 c 128,-1,4
 323 684 323 684 318 713 c 0,5,6
 312 751 312 751 299 770.5 c 128,-1,7
 286 790 286 790 255 803 c 0,8,9
 217 821 217 821 182 832 c 128,-1,10
 147 843 147 843 110 854 c 0,11,12
 79 862 79 862 61 854.5 c 128,-1,13
 43 847 43 847 36 817 c 0,14,15
 25 765 25 765 13.5 698 c 128,-1,16
 2 631 2 631 -9 559 c 128,-1,17
 -20 487 -20 487 -29.5 414.5 c 128,-1,18
 -39 342 -39 342 -46.5 278.5 c 128,-1,19
 -54 215 -54 215 -58.5 165 c 128,-1,20
 -63 115 -63 115 -65 88 c 0,21,22
 -67 62 -67 62 -59.5 47.5 c 128,-1,23
 -52 33 -52 33 -30 22 c 0,24,25
 -7 8 -7 8 17.5 1.5 c 128,-1,26
 42 -5 42 -5 66 -11 c 0,27,28
 92 -18 92 -18 101 -13.5 c 128,-1,29
 110 -9 110 -9 114 8 c 0,30,31
 119 44 119 44 127.5 92.5 c 128,-1,32
 136 141 136 141 146.5 197.5 c 128,-1,33
 157 254 157 254 168.5 316 c 128,-1,34
 180 378 180 378 191 440 c 1,35,36
 204 388 204 388 219 336.5 c 128,-1,37
 234 285 234 285 249 237.5 c 128,-1,38
 264 190 264 190 278.5 149 c 128,-1,39
 293 108 293 108 307 77 c 0,40,41
 325 34 325 34 369 17 c 0,42,43
 417 0 417 0 463 -9 c 0,44,45
 517 -21 517 -21 523 17 c 0,46,47
 539 87 539 87 561.5 179.5 c 128,-1,48
 584 272 584 272 608.5 369 c 128,-1,49
 633 466 633 466 658 560 c 128,-1,50
 683 654 683 654 706 728 c 0,51,52
 714 754 714 754 710.5 772.5 c 128,-1,53
 707 791 707 791 678 809 c 0,54,55
 661 820 661 820 648 827 c 128,-1,56
 635 834 635 834 623.5 839 c 128,-1,57
 612 844 612 844 600 847 c 128,-1,58
 588 850 588 850 573 854 c 0,59,60
 541 862 541 862 524.5 855 c 128,-1,61
 508 848 508 848 500 819 c 0,62,63
 471 712 471 712 441.5 585 c 128,-1,64
 412 458 412 458 392 327 c 1,0,1
EndSplineSet
Validated: 41
EndChar

StartChar: o
Encoding: 111 111 92
Width: 694
Flags: W
AnchorPoint: "top" 367 947 basechar 0
LayerCount: 2
Fore
SplineSet
541 790 m 0,0,1
 507 817 507 817 455.5 836 c 128,-1,2
 404 855 404 855 347 864 c 0,3,4
 303 871 303 871 254.5 857 c 128,-1,5
 206 843 206 843 171 816 c 0,6,7
 119 771 119 771 79.5 714.5 c 128,-1,8
 40 658 40 658 13 595 c 128,-1,9
 -14 532 -14 532 -28 465.5 c 128,-1,10
 -42 399 -42 399 -43 335 c 128,-1,11
 -44 271 -44 271 -32 213 c 128,-1,12
 -20 155 -20 155 4 109 c 0,13,14
 19 81 19 81 45 59 c 128,-1,15
 71 37 71 37 98 23 c 0,16,17
 131 6 131 6 171 -2.5 c 128,-1,18
 211 -11 211 -11 249 -15 c 0,19,20
 306 -21 306 -21 350 -10.5 c 128,-1,21
 394 0 394 0 434 31 c 0,22,23
 493 83 493 83 533.5 158 c 128,-1,24
 574 233 574 233 597.5 317.5 c 128,-1,25
 621 402 621 402 627 487.5 c 128,-1,26
 633 573 633 573 622 646 c 0,27,28
 614 690 614 690 596.5 724.5 c 128,-1,29
 579 759 579 759 541 790 c 0,0,1
380 690 m 0,30,31
 400 684 400 684 409.5 648.5 c 128,-1,32
 419 613 419 613 419 563 c 0,33,34
 419 514 419 514 411 457.5 c 128,-1,35
 403 401 403 401 390 354 c 0,36,37
 375 297 375 297 354.5 248.5 c 128,-1,38
 334 200 334 200 311 167 c 128,-1,39
 288 134 288 134 265 118 c 128,-1,40
 242 102 242 102 221 109 c 0,41,42
 198 116 198 116 186 147 c 128,-1,43
 174 178 174 178 172 221.5 c 128,-1,44
 170 265 170 265 176 315.5 c 128,-1,45
 182 366 182 366 196 413 c 0,46,47
 210 461 210 461 232.5 512.5 c 128,-1,48
 255 564 255 564 281 606 c 128,-1,49
 307 648 307 648 333 672.5 c 128,-1,50
 359 697 359 697 380 690 c 0,30,31
EndSplineSet
Validated: 41
EndChar

StartChar: p
Encoding: 112 112 93
Width: 708
Flags: W
LayerCount: 2
Fore
SplineSet
185 215 m 1,0,1
 245 231 245 231 306.5 253.5 c 128,-1,2
 368 276 368 276 424 304 c 128,-1,3
 480 332 480 332 527.5 364 c 128,-1,4
 575 396 575 396 609 430 c 0,5,6
 630 451 630 451 647.5 473 c 128,-1,7
 665 495 665 495 676.5 519 c 128,-1,8
 688 543 688 543 691.5 570 c 128,-1,9
 695 597 695 597 688 628 c 0,10,11
 672 691 672 691 643.5 734.5 c 128,-1,12
 615 778 615 778 581 816 c 0,13,14
 552 844 552 844 512.5 855.5 c 128,-1,15
 473 867 473 867 427 866 c 128,-1,16
 381 865 381 865 331.5 853.5 c 128,-1,17
 282 842 282 842 233 824.5 c 128,-1,18
 184 807 184 807 138 785.5 c 128,-1,19
 92 764 92 764 54 744 c 0,20,21
 44 739 44 739 36.5 694.5 c 128,-1,22
 29 650 29 650 23 584 c 128,-1,23
 17 518 17 518 11 440 c 128,-1,24
 5 362 5 362 -1 289.5 c 128,-1,25
 -7 217 -7 217 -14.5 160 c 128,-1,26
 -22 103 -22 103 -31 79 c 0,27,28
 -37 53 -37 53 -27.5 37 c 128,-1,29
 -18 21 -18 21 1 10.5 c 128,-1,30
 20 0 20 0 44.5 -6.5 c 128,-1,31
 69 -13 69 -13 95 -20 c 0,32,33
 121 -25 121 -25 130 -20 c 128,-1,34
 139 -15 139 -15 144 1 c 0,35,36
 152 52 152 52 162.5 105 c 128,-1,37
 173 158 173 158 185 215 c 1,0,1
228 403 m 1,38,39
 243 466 243 466 257.5 524 c 128,-1,40
 272 582 272 582 288 636 c 1,41,42
 325 652 325 652 360.5 660 c 128,-1,43
 396 668 396 668 424.5 669 c 128,-1,44
 453 670 453 670 471.5 663.5 c 128,-1,45
 490 657 490 657 493 645 c 0,46,47
 501 623 501 623 487 591 c 128,-1,48
 473 559 473 559 439 524.5 c 128,-1,49
 405 490 405 490 352 457.5 c 128,-1,50
 299 425 299 425 228 403 c 1,38,39
EndSplineSet
Validated: 41
EndChar

StartChar: q
Encoding: 113 113 94
Width: 693
Flags: W
LayerCount: 2
Fore
SplineSet
552 38 m 0,0,1
 538 53 538 53 526.5 69 c 128,-1,2
 515 85 515 85 499 102 c 1,3,4
 540 157 540 157 567.5 226 c 128,-1,5
 595 295 595 295 610 368 c 128,-1,6
 625 441 625 441 627.5 513 c 128,-1,7
 630 585 630 585 620 646 c 0,8,9
 612 690 612 690 595.5 724.5 c 128,-1,10
 579 759 579 759 541 790 c 0,11,12
 507 817 507 817 455.5 836 c 128,-1,13
 404 855 404 855 347 864 c 0,14,15
 303 871 303 871 254.5 857 c 128,-1,16
 206 843 206 843 172 816 c 0,17,18
 119 771 119 771 79.5 714.5 c 128,-1,19
 40 658 40 658 13 595 c 128,-1,20
 -14 532 -14 532 -27.5 465.5 c 128,-1,21
 -41 399 -41 399 -42.5 335 c 128,-1,22
 -44 271 -44 271 -32 213 c 128,-1,23
 -20 155 -20 155 4 109 c 0,24,25
 19 81 19 81 45 59 c 128,-1,26
 71 37 71 37 98 23 c 0,27,28
 131 6 131 6 170 -3 c 128,-1,29
 209 -12 209 -12 249 -15 c 0,30,31
 285 -17 285 -17 318 -15 c 128,-1,32
 351 -13 351 -13 379 0 c 1,33,34
 384 -3 384 -3 388 -6 c 128,-1,35
 392 -9 392 -9 397 -14 c 0,36,37
 429 -40 429 -40 474 -33 c 0,38,39
 492 -29 492 -29 510 -23.5 c 128,-1,40
 528 -18 528 -18 546 -8 c 0,41,42
 565 1 565 1 567 11 c 128,-1,43
 569 21 569 21 552 38 c 0,0,1
265 119 m 1,44,45
 241 101 241 101 221 109 c 0,46,47
 204 116 204 116 193 134.5 c 128,-1,48
 182 153 182 153 177 180.5 c 128,-1,49
 172 208 172 208 171.5 242 c 128,-1,50
 171 276 171 276 175 314 c 0,51,52
 188 389 188 389 213.5 464 c 128,-1,53
 239 539 239 539 279 604 c 0,54,55
 299 636 299 636 319.5 658.5 c 128,-1,56
 340 681 340 681 358 688.5 c 128,-1,57
 376 696 376 696 390 686.5 c 128,-1,58
 404 677 404 677 410 647 c 0,59,60
 416 621 416 621 417.5 585 c 128,-1,61
 419 549 419 549 415.5 509 c 128,-1,62
 412 469 412 469 405 428.5 c 128,-1,63
 398 388 398 388 388 354 c 0,64,65
 372 277 372 277 341 220 c 1,66,67
 313 215 313 215 290.5 208.5 c 128,-1,68
 268 202 268 202 251 193 c 0,69,70
 214 176 214 176 240 148 c 0,71,72
 246 140 246 140 251.5 133 c 128,-1,73
 257 126 257 126 265 119 c 1,44,45
EndSplineSet
Validated: 41
EndChar

StartChar: r
Encoding: 114 114 95
Width: 727
Flags: W
LayerCount: 2
Fore
SplineSet
181 234 m 1,0,1
 207 202 207 202 239 170.5 c 128,-1,2
 271 139 271 139 303 110 c 128,-1,3
 335 81 335 81 365 57 c 128,-1,4
 395 33 395 33 418 17 c 0,5,6
 453 -4 453 -4 479.5 -6.5 c 128,-1,7
 506 -9 506 -9 528 -3 c 0,8,9
 546 0 546 0 558.5 2.5 c 128,-1,10
 571 5 571 5 589 19 c 0,11,12
 604 30 604 30 606 40 c 128,-1,13
 608 50 608 50 588 67 c 0,14,15
 563 87 563 87 534.5 114 c 128,-1,16
 506 141 506 141 477 170 c 128,-1,17
 448 199 448 199 420.5 228 c 128,-1,18
 393 257 393 257 370 283 c 1,19,20
 482 333 482 333 562.5 391 c 128,-1,21
 643 449 643 449 678 518 c 0,22,23
 701 561 701 561 688 628 c 0,24,25
 672 691 672 691 643.5 734.5 c 128,-1,26
 615 778 615 778 580 816 c 0,27,28
 536 859 536 859 477.5 868.5 c 128,-1,29
 419 878 419 878 353.5 866.5 c 128,-1,30
 288 855 288 855 220.5 828 c 128,-1,31
 153 801 153 801 91 773 c 0,32,33
 78 766 78 766 66 737.5 c 128,-1,34
 54 709 54 709 44 665.5 c 128,-1,35
 34 622 34 622 25 567.5 c 128,-1,36
 16 513 16 513 8.5 455 c 128,-1,37
 1 397 1 397 -5.5 339 c 128,-1,38
 -12 281 -12 281 -17 230.5 c 128,-1,39
 -22 180 -22 180 -25.5 140 c 128,-1,40
 -29 100 -29 100 -31 79 c 0,41,42
 -33 53 -33 53 -26 37.5 c 128,-1,43
 -19 22 -19 22 0 11 c 0,44,45
 19 1 19 1 40 -3 c 128,-1,46
 61 -7 61 -7 88 -14 c 0,47,48
 111 -19 111 -19 119.5 -14 c 128,-1,49
 128 -9 128 -9 133 7 c 0,50,51
 144 61 144 61 155.5 117 c 128,-1,52
 167 173 167 173 181 234 c 1,0,1
288 640 m 1,53,54
 327 659 327 659 362 666 c 128,-1,55
 397 673 397 673 426 673 c 0,56,57
 485 673 485 673 497 645 c 0,58,59
 503 628 503 628 487 597 c 128,-1,60
 471 566 471 566 435 531.5 c 128,-1,61
 399 497 399 497 345.5 463.5 c 128,-1,62
 292 430 292 430 223 407 c 1,63,64
 242 473 242 473 257 531 c 128,-1,65
 272 589 272 589 288 640 c 1,53,54
EndSplineSet
Validated: 41
EndChar

StartChar: s
Encoding: 115 115 96
Width: 601
Flags: W
LayerCount: 2
Fore
SplineSet
-83 202 m 0,0,1
 -104 192 -104 192 -102 173 c 0,2,3
 -100 153 -100 153 -56 116 c 0,4,5
 25 40 25 40 101.5 9 c 128,-1,6
 178 -22 178 -22 259 -20 c 0,7,8
 319 -19 319 -19 362 -5 c 128,-1,9
 405 9 405 9 435 30 c 128,-1,10
 465 51 465 51 483 75.5 c 128,-1,11
 501 100 501 100 511 121 c 0,12,13
 527 151 527 151 521.5 177 c 128,-1,14
 516 203 516 203 495.5 226.5 c 128,-1,15
 475 250 475 250 443.5 272.5 c 128,-1,16
 412 295 412 295 376.5 318 c 128,-1,17
 341 341 341 341 305 365.5 c 128,-1,18
 269 390 269 390 240 418 c 0,19,20
 217 439 217 439 211 465.5 c 128,-1,21
 205 492 205 492 210 519.5 c 128,-1,22
 215 547 215 547 229 574 c 128,-1,23
 243 601 243 601 261.5 624.5 c 128,-1,24
 280 648 280 648 300.5 666.5 c 128,-1,25
 321 685 321 685 338 694 c 0,26,27
 357 708 357 708 365.5 705.5 c 128,-1,28
 374 703 374 703 375.5 690.5 c 128,-1,29
 377 678 377 678 373 657 c 128,-1,30
 369 636 369 636 363.5 612.5 c 128,-1,31
 358 589 358 589 352.5 566 c 128,-1,32
 347 543 347 543 345 525 c 0,33,34
 334 439 334 439 471 393 c 0,35,36
 496 382 496 382 508.5 387.5 c 128,-1,37
 521 393 521 393 533 413 c 0,38,39
 544 434 544 434 554.5 465 c 128,-1,40
 565 496 565 496 574.5 530 c 128,-1,41
 584 564 584 564 591 597 c 128,-1,42
 598 630 598 630 602 656 c 0,43,44
 602 671 602 671 601.5 688.5 c 128,-1,45
 601 706 601 706 596.5 724 c 128,-1,46
 592 742 592 742 581 761 c 128,-1,47
 570 780 570 780 550 799 c 0,48,49
 519 827 519 827 473.5 851 c 128,-1,50
 428 875 428 875 383 891 c 0,51,52
 353 900 353 900 325 901.5 c 128,-1,53
 297 903 297 903 273 899 c 128,-1,54
 249 895 249 895 230 886.5 c 128,-1,55
 211 878 211 878 199 869 c 0,56,57
 162 846 162 846 126.5 813.5 c 128,-1,58
 91 781 91 781 61.5 743.5 c 128,-1,59
 32 706 32 706 10.5 666 c 128,-1,60
 -11 626 -11 626 -20 590 c 0,61,62
 -33 549 -33 549 -32 512 c 128,-1,63
 -31 475 -31 475 -19 442 c 128,-1,64
 -7 409 -7 409 14.5 380.5 c 128,-1,65
 36 352 36 352 64 330 c 0,66,67
 89 309 89 309 120 288.5 c 128,-1,68
 151 268 151 268 182 249 c 128,-1,69
 213 230 213 230 240.5 212 c 128,-1,70
 268 194 268 194 286.5 179 c 128,-1,71
 305 164 305 164 311.5 152.5 c 128,-1,72
 318 141 318 141 306 133 c 0,73,74
 278 110 278 110 215 125 c 128,-1,75
 152 140 152 140 67 193 c 0,76,77
 52 203 52 203 33.5 208.5 c 128,-1,78
 15 214 15 214 -5 215 c 128,-1,79
 -25 216 -25 216 -45 213 c 128,-1,80
 -65 210 -65 210 -83 202 c 0,0,1
EndSplineSet
Validated: 41
EndChar

StartChar: t
Encoding: 116 116 97
Width: 664
Flags: W
LayerCount: 2
Fore
SplineSet
642 702 m 0,0,1
 673 704 673 704 678.5 712.5 c 128,-1,2
 684 721 684 721 678 744 c 0,3,4
 671 770 671 770 658 797 c 128,-1,5
 645 824 645 824 625 847 c 0,6,7
 615 860 615 860 601.5 865.5 c 128,-1,8
 588 871 588 871 557 871 c 0,9,10
 498 869 498 869 423.5 863.5 c 128,-1,11
 349 858 349 858 271.5 850 c 128,-1,12
 194 842 194 842 119.5 832 c 128,-1,13
 45 822 45 822 -14 810 c 0,14,15
 -33 805 -33 805 -39 797.5 c 128,-1,16
 -45 790 -45 790 -33 767 c 0,17,18
 -22 745 -22 745 -4.5 713 c 128,-1,19
 13 681 13 681 34 660 c 0,20,21
 54 639 54 639 70 634.5 c 128,-1,22
 86 630 86 630 111 636 c 0,23,24
 129 641 129 641 156 644.5 c 128,-1,25
 183 648 183 648 212 653 c 1,26,27
 197 585 197 585 182 505.5 c 128,-1,28
 167 426 167 426 154.5 348 c 128,-1,29
 142 270 142 270 133 200 c 128,-1,30
 124 130 124 130 121 82 c 0,31,32
 117 63 117 63 122 49.5 c 128,-1,33
 127 36 127 36 138.5 26 c 128,-1,34
 150 16 150 16 167 9 c 128,-1,35
 184 2 184 2 205 -4 c 128,-1,36
 226 -10 226 -10 243 -15 c 128,-1,37
 260 -20 260 -20 273 -20.5 c 128,-1,38
 286 -21 286 -21 293.5 -16.5 c 128,-1,39
 301 -12 301 -12 303 2 c 0,40,41
 317 75 317 75 335.5 159 c 128,-1,42
 354 243 354 243 375 331.5 c 128,-1,43
 396 420 396 420 418.5 510 c 128,-1,44
 441 600 441 600 462 684 c 1,45,46
 511 689 511 689 557 693.5 c 128,-1,47
 603 698 603 698 642 702 c 0,0,1
EndSplineSet
Validated: 41
EndChar

StartChar: u
Encoding: 117 117 98
Width: 676
Flags: W
AnchorPoint: "top" 327 927 basechar 0
LayerCount: 2
Fore
SplineSet
-5 102 m 0,0,1
 11 74 11 74 33 55 c 128,-1,2
 55 36 55 36 80 22 c 0,3,4
 138 -10 138 -10 228 -16 c 0,5,6
 273 -19 273 -19 308 -12.5 c 128,-1,7
 343 -6 343 -6 378 11 c 0,8,9
 427 39 427 39 467 101 c 128,-1,10
 507 163 507 163 541 255 c 128,-1,11
 575 347 575 347 605.5 466.5 c 128,-1,12
 636 586 636 586 666 729 c 0,13,14
 669 742 669 742 670 751.5 c 128,-1,15
 671 761 671 761 668 769 c 128,-1,16
 665 777 665 777 657.5 784.5 c 128,-1,17
 650 792 650 792 636 801 c 0,18,19
 609 817 609 817 576.5 833.5 c 128,-1,20
 544 850 544 850 515.5 857.5 c 128,-1,21
 487 865 487 865 467 859 c 128,-1,22
 447 853 447 853 445 823 c 0,23,24
 433 761 433 761 418 682 c 128,-1,25
 403 603 403 603 384.5 521.5 c 128,-1,26
 366 440 366 440 344.5 363 c 128,-1,27
 323 286 323 286 299.5 227.5 c 128,-1,28
 276 169 276 169 250 136 c 128,-1,29
 224 103 224 103 197 110 c 0,30,31
 175 116 175 116 167.5 147 c 128,-1,32
 160 178 160 178 162.5 225 c 128,-1,33
 165 272 165 272 175.5 331 c 128,-1,34
 186 390 186 390 201 452 c 128,-1,35
 216 514 216 514 233.5 574.5 c 128,-1,36
 251 635 251 635 267 687 c 0,37,38
 284 748 284 748 230 787 c 0,39,40
 204 806 204 806 176.5 820 c 128,-1,41
 149 834 149 834 119 843 c 0,42,43
 87 854 87 854 71.5 848 c 128,-1,44
 56 842 56 842 48 813 c 0,45,46
 30 749 30 749 13.5 681.5 c 128,-1,47
 -3 614 -3 614 -16 547 c 128,-1,48
 -29 480 -29 480 -37 415 c 128,-1,49
 -45 350 -45 350 -45 292 c 256,50,51
 -45 234 -45 234 -35.5 185.5 c 128,-1,52
 -26 137 -26 137 -5 102 c 0,0,1
EndSplineSet
Validated: 41
EndChar

StartChar: v
Encoding: 118 118 99
Width: 699
Flags: W
LayerCount: 2
Fore
SplineSet
700 718 m 0,0,1
 709 740 709 740 708.5 757 c 128,-1,2
 708 774 708 774 699 788 c 128,-1,3
 690 802 690 802 674 813.5 c 128,-1,4
 658 825 658 825 638 836 c 0,5,6
 619 848 619 848 600.5 856.5 c 128,-1,7
 582 865 582 865 565.5 867.5 c 128,-1,8
 549 870 549 870 536 863.5 c 128,-1,9
 523 857 523 857 515 839 c 0,10,11
 452 681 452 681 389.5 520 c 128,-1,12
 327 359 327 359 261 214 c 1,13,14
 250 287 250 287 240.5 361.5 c 128,-1,15
 231 436 231 436 223 505 c 128,-1,16
 215 574 215 574 207.5 636 c 128,-1,17
 200 698 200 698 194 747 c 0,18,19
 185 811 185 811 119 835 c 0,20,21
 92 846 92 846 67.5 850 c 128,-1,22
 43 854 43 854 14 854 c 0,23,24
 -16 854 -16 854 -22.5 843 c 128,-1,25
 -29 832 -29 832 -27 805 c 0,26,27
 -5 600 -5 600 22.5 428.5 c 128,-1,28
 50 257 50 257 85 120 c 0,29,30
 91 96 91 96 110.5 67.5 c 128,-1,31
 130 39 130 39 167 22 c 0,32,33
 200 6 200 6 230 -4 c 128,-1,34
 260 -14 260 -14 295 -24 c 0,35,36
 330 -33 330 -33 349 -26.5 c 128,-1,37
 368 -20 368 -20 382 4 c 0,38,39
 404 45 404 45 432 102 c 128,-1,40
 460 159 460 159 491 224 c 128,-1,41
 522 289 522 289 553 358 c 128,-1,42
 584 427 584 427 612 492.5 c 128,-1,43
 640 558 640 558 663 616 c 128,-1,44
 686 674 686 674 700 718 c 0,0,1
EndSplineSet
Validated: 41
EndChar

StartChar: w
Encoding: 119 119 100
Width: 961
Flags: W
LayerCount: 2
Fore
SplineSet
164 262 m 1,0,1
 164 322 164 322 165.5 388.5 c 128,-1,2
 167 455 167 455 169.5 516.5 c 128,-1,3
 172 578 172 578 174.5 628 c 128,-1,4
 177 678 177 678 178 704 c 0,5,6
 179 717 179 717 178 732.5 c 128,-1,7
 177 748 177 748 172.5 762.5 c 128,-1,8
 168 777 168 777 159 790 c 128,-1,9
 150 803 150 803 135 812 c 0,10,11
 109 827 109 827 79 835.5 c 128,-1,12
 49 844 49 844 12 852 c 0,13,14
 -20 859 -20 859 -31 850 c 128,-1,15
 -42 841 -42 841 -43 809 c 0,16,17
 -43 752 -43 752 -42 685.5 c 128,-1,18
 -41 619 -41 619 -38 549.5 c 128,-1,19
 -35 480 -35 480 -31 410 c 128,-1,20
 -27 340 -27 340 -22 276 c 0,21,22
 -17 215 -17 215 -10.5 161.5 c 128,-1,23
 -4 108 -4 108 4 67 c 0,24,25
 7 39 7 39 17.5 25.5 c 128,-1,26
 28 12 28 12 52 4 c 0,27,28
 78 -4 78 -4 106.5 -11.5 c 128,-1,29
 135 -19 135 -19 166 -24 c 0,30,31
 189 -27 189 -27 202.5 -23.5 c 128,-1,32
 216 -20 216 -20 228 0 c 0,33,34
 239 25 239 25 257 63.5 c 128,-1,35
 275 102 275 102 296.5 147 c 128,-1,36
 318 192 318 192 342 239.5 c 128,-1,37
 366 287 366 287 389 331 c 1,38,39
 389 296 389 296 392.5 259 c 128,-1,40
 396 222 396 222 400 186.5 c 128,-1,41
 404 151 404 151 408.5 121 c 128,-1,42
 413 91 413 91 416 70 c 0,43,44
 420 49 420 49 432 31.5 c 128,-1,45
 444 14 444 14 472 4 c 0,46,47
 486 1 486 1 497.5 -2.5 c 128,-1,48
 509 -6 509 -6 520.5 -9 c 128,-1,49
 532 -12 532 -12 545 -15.5 c 128,-1,50
 558 -19 558 -19 576 -22 c 0,51,52
 608 -27 608 -27 625 -22 c 128,-1,53
 642 -17 642 -17 652 2 c 0,54,55
 670 43 670 43 695 98 c 128,-1,56
 720 153 720 153 748.5 215.5 c 128,-1,57
 777 278 777 278 808.5 344.5 c 128,-1,58
 840 411 840 411 871 475 c 128,-1,59
 902 539 902 539 932 598 c 128,-1,60
 962 657 962 657 987 703 c 0,61,62
 999 729 999 729 1000 754 c 128,-1,63
 1001 779 1001 779 978 801 c 0,64,65
 957 818 957 818 934.5 831.5 c 128,-1,66
 912 845 912 845 889 856 c 0,67,68
 857 869 857 869 842 865.5 c 128,-1,69
 827 862 827 862 812 831 c 0,70,71
 800 808 800 808 782.5 771.5 c 128,-1,72
 765 735 765 735 743.5 689 c 128,-1,73
 722 643 722 643 697.5 590.5 c 128,-1,74
 673 538 673 538 648 483 c 128,-1,75
 623 428 623 428 598.5 373.5 c 128,-1,76
 574 319 574 319 553 270 c 1,77,78
 557 329 557 329 561.5 391 c 128,-1,79
 566 453 566 453 570 508 c 128,-1,80
 574 563 574 563 577 604 c 128,-1,81
 580 645 580 645 580 662 c 0,82,83
 580 677 580 677 579.5 688 c 128,-1,84
 579 699 579 699 575.5 707 c 128,-1,85
 572 715 572 715 564.5 721 c 128,-1,86
 557 727 557 727 542 733 c 0,87,88
 515 744 515 744 495.5 751 c 128,-1,89
 476 758 476 758 447 764 c 0,90,91
 418 771 418 771 403.5 765 c 128,-1,92
 389 759 389 759 377 737 c 0,93,94
 361 711 361 711 335.5 656 c 128,-1,95
 310 601 310 601 280.5 534 c 128,-1,96
 251 467 251 467 220.5 395 c 128,-1,97
 190 323 190 323 164 262 c 1,0,1
EndSplineSet
Validated: 41
EndChar

StartChar: x
Encoding: 120 120 101
Width: 708
Flags: W
LayerCount: 2
Fore
SplineSet
303 593 m 1,0,1
 282 644 282 644 262.5 690.5 c 128,-1,2
 243 737 243 737 227 778 c 0,3,4
 213 807 213 807 194 824.5 c 128,-1,5
 175 842 175 842 140 847 c 0,6,7
 123 848 123 848 107 848.5 c 128,-1,8
 91 849 91 849 76 849 c 2,9,-1
 47 849 l 2,10,11
 39 849 39 849 32 849 c 256,12,13
 25 849 25 849 17 848 c 0,14,15
 -12 844 -12 844 -18 832.5 c 128,-1,16
 -24 821 -24 821 -12 789 c 0,17,18
 1 757 1 757 19.5 715 c 128,-1,19
 38 673 38 673 59.5 625 c 128,-1,20
 81 577 81 577 105 525.5 c 128,-1,21
 129 474 129 474 153 423 c 1,22,23
 82 333 82 333 23.5 251.5 c 128,-1,24
 -35 170 -35 170 -70 114 c 0,25,26
 -78 102 -78 102 -80.5 93 c 128,-1,27
 -83 84 -83 84 -83 77 c 0,28,29
 -82 68 -82 68 -72 55 c 128,-1,30
 -62 42 -62 42 -47.5 28.5 c 128,-1,31
 -33 15 -33 15 -17 3 c 128,-1,32
 -1 -9 -1 -9 13 -17 c 0,33,34
 52 -42 52 -42 76 -12 c 0,35,36
 111 30 111 30 154.5 87.5 c 128,-1,37
 198 145 198 145 252 210 c 1,38,39
 284 142 284 142 307.5 95.5 c 128,-1,40
 331 49 331 49 343 32 c 0,41,42
 360 8 360 8 375 -2.5 c 128,-1,43
 390 -13 390 -13 417 -16 c 0,44,45
 471 -21 471 -21 521 -16 c 0,46,47
 565 -10 565 -10 542 25 c 1,48,49
 513 92 513 92 476.5 178.5 c 128,-1,50
 440 265 440 265 398 365 c 1,51,52
 473 453 473 453 542.5 533.5 c 128,-1,53
 612 614 612 614 666 677 c 0,54,55
 684 698 684 698 689 721 c 128,-1,56
 694 744 694 744 677 771 c 0,57,58
 663 793 663 793 641 818.5 c 128,-1,59
 619 844 619 844 596 862 c 0,60,61
 585 869 585 869 574 873 c 128,-1,62
 563 877 563 877 552 877 c 0,63,64
 531 877 531 877 511 854 c 0,65,66
 469 807 469 807 416.5 740 c 128,-1,67
 364 673 364 673 303 593 c 1,0,1
EndSplineSet
Validated: 41
EndChar

StartChar: y
Encoding: 121 121 102
Width: 651
Flags: W
AnchorPoint: "top" 300 940 basechar 0
LayerCount: 2
Fore
SplineSet
644 714 m 0,0,1
 651 730 651 730 655 741.5 c 128,-1,2
 659 753 659 753 658.5 763 c 128,-1,3
 658 773 658 773 653 782.5 c 128,-1,4
 648 792 648 792 639 803 c 0,5,6
 623 818 623 818 600.5 837 c 128,-1,7
 578 856 578 856 555 867.5 c 128,-1,8
 532 879 532 879 512 877.5 c 128,-1,9
 492 876 492 876 483 851 c 1,10,11
 431 758 431 758 379 668 c 128,-1,12
 327 578 327 578 273 492 c 1,13,14
 246 578 246 578 221 655 c 128,-1,15
 196 732 196 732 173 792 c 0,16,17
 157 824 157 824 143.5 839.5 c 128,-1,18
 130 855 130 855 100 862 c 128,-1,19
 70 869 70 869 41.5 867.5 c 128,-1,20
 13 866 13 866 -18 864 c 0,21,22
 -44 859 -44 859 -49.5 849.5 c 128,-1,23
 -55 840 -55 840 -44 813 c 0,24,25
 -26 757 -26 757 -3.5 692.5 c 128,-1,26
 19 628 19 628 43 560.5 c 128,-1,27
 67 493 67 493 91 426 c 128,-1,28
 115 359 115 359 136 299 c 1,29,30
 124 230 124 230 118 173.5 c 128,-1,31
 112 117 112 117 105 74 c 0,32,33
 103 48 103 48 110 34.5 c 128,-1,34
 117 21 117 21 139 7 c 1,35,36
 161 -2 161 -2 187 -10.5 c 128,-1,37
 213 -19 213 -19 237 -25 c 0,38,39
 263 -31 263 -31 272 -27 c 128,-1,40
 281 -23 281 -23 286 -3 c 0,41,42
 297 51 297 51 309 108.5 c 128,-1,43
 321 166 321 166 338 233 c 1,44,45
 382 296 382 296 429 365 c 128,-1,46
 476 434 476 434 518 499 c 128,-1,47
 560 564 560 564 593.5 620 c 128,-1,48
 627 676 627 676 644 714 c 0,0,1
EndSplineSet
Validated: 41
EndChar

StartChar: z
Encoding: 122 122 103
Width: 562
Flags: W
LayerCount: 2
Fore
SplineSet
304 661 m 1,0,1
 246 589 246 589 188 510.5 c 128,-1,2
 130 432 130 432 78.5 358 c 128,-1,3
 27 284 27 284 -13.5 221 c 128,-1,4
 -54 158 -54 158 -77 117 c 0,5,6
 -84 105 -84 105 -83.5 94.5 c 128,-1,7
 -83 84 -83 84 -78.5 75 c 128,-1,8
 -74 66 -74 66 -66.5 58 c 128,-1,9
 -59 50 -59 50 -52 43 c 0,10,11
 -29 25 -29 25 -14 13 c 128,-1,12
 1 1 1 1 18 -11 c 0,13,14
 27 -16 27 -16 35.5 -20.5 c 128,-1,15
 44 -25 44 -25 55 -27 c 128,-1,16
 66 -29 66 -29 80 -28.5 c 128,-1,17
 94 -28 94 -28 114 -23 c 0,18,19
 174 -9 174 -9 245 3.5 c 128,-1,20
 316 16 316 16 380 28 c 0,21,22
 406 31 406 31 414 39 c 128,-1,23
 422 47 422 47 414 67 c 0,24,25
 410 84 410 84 401.5 102 c 128,-1,26
 393 120 393 120 381 139 c 0,27,28
 361 172 361 172 306 166 c 0,29,30
 265 161 265 161 228.5 155.5 c 128,-1,31
 192 150 192 150 155 141 c 1,32,33
 250 264 250 264 355.5 395 c 128,-1,34
 461 526 461 526 566 653 c 0,35,36
 586 676 586 676 588.5 696.5 c 128,-1,37
 591 717 591 717 583 740 c 0,38,39
 577 758 577 758 571.5 778.5 c 128,-1,40
 566 799 566 799 553 826 c 0,41,42
 542 849 542 849 528 857.5 c 128,-1,43
 514 866 514 866 484 865 c 0,44,45
 429 862 429 862 367 857.5 c 128,-1,46
 305 853 305 853 244 846.5 c 128,-1,47
 183 840 183 840 126.5 831 c 128,-1,48
 70 822 70 822 25 812 c 0,49,50
 5 805 5 805 -0.5 797 c 128,-1,51
 -6 789 -6 789 3 766 c 0,52,53
 9 754 9 754 16.5 740.5 c 128,-1,54
 24 727 24 727 32 713 c 128,-1,55
 40 699 40 699 47.5 687 c 128,-1,56
 55 675 55 675 61 666 c 0,57,58
 81 643 81 643 103 637 c 128,-1,59
 125 631 125 631 151 636 c 0,60,61
 186 644 186 644 222.5 648.5 c 128,-1,62
 259 653 259 653 304 661 c 1,0,1
EndSplineSet
Validated: 41
EndChar

StartChar: braceleft
Encoding: 123 123 104
Width: 508
Flags: W
LayerCount: 2
Fore
SplineSet
368 35 m 0,0,1
 363 52 363 52 356.5 68 c 128,-1,2
 350 84 350 84 338 101 c 0,3,4
 317 134 317 134 272 129 c 0,5,6
 255 128 255 128 239 127 c 128,-1,7
 223 126 223 126 206 125 c 1,8,9
 218 185 218 185 234 255 c 128,-1,10
 250 325 250 325 268 398 c 128,-1,11
 286 471 286 471 305.5 543 c 128,-1,12
 325 615 325 615 345 679 c 1,13,14
 380 682 380 682 413 685.5 c 128,-1,15
 446 689 446 689 475 692 c 0,16,17
 504 696 504 696 512 704.5 c 128,-1,18
 520 713 520 713 512 737 c 0,19,20
 507 760 507 760 501 779 c 128,-1,21
 495 798 495 798 482 821 c 0,22,23
 459 866 459 866 409 865 c 0,24,25
 367 864 367 864 318 861.5 c 128,-1,26
 269 859 269 859 224 852 c 0,27,28
 194 849 194 849 181 837 c 128,-1,29
 168 825 168 825 163 805 c 0,30,31
 144 733 144 733 125.5 649 c 128,-1,32
 107 565 107 565 88 475 c 1,33,34
 55 470 55 470 28 467 c 128,-1,35
 1 464 1 464 -19 458 c 0,36,37
 -54 449 -54 449 -39 413 c 0,38,39
 -30 393 -30 393 -17.5 367.5 c 128,-1,40
 -5 342 -5 342 12 323 c 0,41,42
 26 309 26 309 33 304 c 128,-1,43
 40 299 40 299 54 297 c 1,44,45
 45 242 45 242 38 197 c 128,-1,46
 31 152 31 152 24 112 c 0,47,48
 20 83 20 83 27 66 c 128,-1,49
 34 49 34 49 54 34 c 0,50,51
 69 23 69 23 83 12 c 128,-1,52
 97 1 97 1 111 -8 c 0,53,54
 128 -19 128 -19 146 -24 c 128,-1,55
 164 -29 164 -29 196 -23 c 0,56,57
 231 -17 231 -17 267.5 -11 c 128,-1,58
 304 -5 304 -5 336 0 c 1,59,60
 362 0 362 0 369 8 c 128,-1,61
 376 16 376 16 368 35 c 0,0,1
EndSplineSet
Validated: 41
EndChar

StartChar: bar
Encoding: 124 124 105
Width: 537
Flags: W
LayerCount: 2
Fore
SplineSet
371 881 m 0,0,1
 344 900 344 900 316.5 910 c 128,-1,2
 289 920 289 920 263 931 c 0,3,4
 232 942 232 942 216 935 c 128,-1,5
 200 928 200 928 190 899 c 0,6,7
 178 850 178 850 163.5 776.5 c 128,-1,8
 149 703 149 703 133 617 c 128,-1,9
 117 531 117 531 101.5 441 c 128,-1,10
 86 351 86 351 72.5 270 c 128,-1,11
 59 189 59 189 49.5 124 c 128,-1,12
 40 59 40 59 36 24 c 0,13,14
 34 0 34 0 40.5 -13.5 c 128,-1,15
 47 -27 47 -27 70 -38 c 0,16,17
 88 -46 88 -46 107 -53 c 128,-1,18
 126 -60 126 -60 149 -66 c 0,19,20
 175 -72 175 -72 183 -66.5 c 128,-1,21
 191 -61 191 -61 196 -43 c 0,22,23
 203 -1 203 -1 218 65 c 128,-1,24
 233 131 233 131 251.5 210 c 128,-1,25
 270 289 270 289 291 374 c 128,-1,26
 312 459 312 459 332.5 539.5 c 128,-1,27
 353 620 353 620 371 689 c 128,-1,28
 389 758 389 758 402 805 c 0,29,30
 412 832 412 832 406 847 c 128,-1,31
 400 862 400 862 371 881 c 0,0,1
EndSplineSet
Validated: 41
EndChar

StartChar: braceright
Encoding: 125 125 106
Width: 565
Flags: W
LayerCount: 2
Fore
SplineSet
416 698 m 0,0,1
 422 721 422 721 420.5 736 c 128,-1,2
 419 751 419 751 401 773 c 0,3,4
 387 792 387 792 374.5 806.5 c 128,-1,5
 362 821 362 821 348 835 c 0,6,7
 331 854 331 854 314.5 860 c 128,-1,8
 298 866 298 866 269 864 c 0,9,10
 212 859 212 859 161.5 854 c 128,-1,11
 111 849 111 849 70 841 c 0,12,13
 50 837 50 837 36 826 c 128,-1,14
 22 815 22 815 32 792 c 0,15,16
 41 770 41 770 49.5 750.5 c 128,-1,17
 58 731 58 731 72 709 c 0,18,19
 87 686 87 686 102 679.5 c 128,-1,20
 117 673 117 673 147 676 c 0,21,22
 161 677 161 677 174 679 c 128,-1,23
 187 681 187 681 201 682 c 1,24,25
 185 617 185 617 167 544 c 128,-1,26
 149 471 149 471 132 397 c 128,-1,27
 115 323 115 323 100.5 253 c 128,-1,28
 86 183 86 183 76 126 c 1,29,30
 52 123 52 123 28 119.5 c 128,-1,31
 4 116 4 116 -16 111.5 c 128,-1,32
 -36 107 -36 107 -49.5 101 c 128,-1,33
 -63 95 -63 95 -66 88 c 0,34,35
 -68 82 -68 82 -62.5 70 c 128,-1,36
 -57 58 -57 58 -48.5 45 c 128,-1,37
 -40 32 -40 32 -30.5 20 c 128,-1,38
 -21 8 -21 8 -15 1 c 0,39,40
 -3 -11 -3 -11 10.5 -16.5 c 128,-1,41
 24 -22 24 -22 49 -18 c 0,42,43
 81 -13 81 -13 114.5 -9 c 128,-1,44
 148 -5 148 -5 183 0 c 0,45,46
 215 1 215 1 225.5 10.5 c 128,-1,47
 236 20 236 20 240 34 c 0,48,49
 251 85 251 85 266.5 149 c 128,-1,50
 282 213 282 213 301 288 c 1,51,52
 328 294 328 294 357.5 295.5 c 128,-1,53
 387 297 387 297 409.5 300.5 c 128,-1,54
 432 304 432 304 443 313 c 128,-1,55
 454 322 454 322 444 344 c 0,56,57
 436 364 436 364 430 385 c 128,-1,58
 424 406 424 406 413 426 c 0,59,60
 393 465 393 465 346 465 c 1,61,62
 367 528 367 528 384 587 c 128,-1,63
 401 646 401 646 416 698 c 0,0,1
EndSplineSet
Validated: 41
EndChar

StartChar: asciitilde
Encoding: 126 126 107
Width: 742
Flags: W
LayerCount: 2
Fore
SplineSet
504 552 m 0,0,1
 538 552 538 552 576.5 568 c 128,-1,2
 615 584 615 584 662 616 c 0,3,4
 758 679 758 679 761 728 c 0,5,6
 762 752 762 752 730 768 c 0,7,8
 705 781 705 781 675 781 c 0,9,10
 640 781 640 781 606 756 c 0,11,12
 601 751 601 751 589 739.5 c 128,-1,13
 577 728 577 728 563.5 716.5 c 128,-1,14
 550 705 550 705 537.5 696.5 c 128,-1,15
 525 688 525 688 519 689 c 0,16,17
 497 691 497 691 475 698.5 c 128,-1,18
 453 706 453 706 431.5 715.5 c 128,-1,19
 410 725 410 725 389 734.5 c 128,-1,20
 368 744 368 744 348 750 c 0,21,22
 313 763 313 763 280.5 769.5 c 128,-1,23
 248 776 248 776 216 776 c 0,24,25
 189 776 189 776 149 762.5 c 128,-1,26
 109 749 109 749 70.5 729.5 c 128,-1,27
 32 710 32 710 1 687.5 c 128,-1,28
 -30 665 -30 665 -40 647 c 0,29,30
 -54 623 -54 623 -53 604 c 0,31,32
 -50 556 -50 556 23 556 c 0,33,34
 62 556 62 556 91 574 c 0,35,36
 94 574 94 574 104.5 582.5 c 128,-1,37
 115 591 115 591 129.5 601.5 c 128,-1,38
 144 612 144 612 160 620.5 c 128,-1,39
 176 629 176 629 189 629 c 0,40,41
 205 629 205 629 228 625.5 c 128,-1,42
 251 622 251 622 275 616 c 128,-1,43
 299 610 299 610 320 602.5 c 128,-1,44
 341 595 341 595 352 587 c 0,45,46
 377 569 377 569 415 560.5 c 128,-1,47
 453 552 453 552 504 552 c 0,0,1
EndSplineSet
Validated: 41
EndChar

StartChar: quotesinglbase
Encoding: 8218 8218 108
Width: 348
Flags: W
LayerCount: 2
Fore
SplineSet
221 -97 m 0,0,1
 228 -82 228 -82 236.5 -60.5 c 128,-1,2
 245 -39 245 -39 253 -14 c 128,-1,3
 261 11 261 11 267.5 36.5 c 128,-1,4
 274 62 274 62 278 83 c 0,5,6
 279 104 279 104 275.5 118 c 128,-1,7
 272 132 272 132 251 148 c 0,8,9
 236 158 236 158 217 167 c 128,-1,10
 198 176 198 176 178 183 c 0,11,12
 155 192 155 192 142.5 188.5 c 128,-1,13
 130 185 130 185 126 163 c 0,14,15
 121 134 121 134 114.5 96.5 c 128,-1,16
 108 59 108 59 101 20.5 c 128,-1,17
 94 -18 94 -18 87 -52.5 c 128,-1,18
 80 -87 80 -87 74 -110 c 0,19,20
 65 -142 65 -142 107 -141 c 0,21,22
 147 -141 147 -141 174 -135 c 0,23,24
 190 -130 190 -130 200 -122 c 128,-1,25
 210 -114 210 -114 221 -97 c 0,0,1
EndSplineSet
Validated: 41
EndChar

StartChar: florin
Encoding: 402 402 109
Width: 934
Flags: W
LayerCount: 2
Fore
SplineSet
77 467 m 0,0,1
 -1 459 -1 459 35 415 c 1,2,3
 57 381 57 381 106 343 c 0,4,5
 131 323 131 323 154.5 318 c 128,-1,6
 178 313 178 313 213 317 c 0,7,8
 233 319 233 319 253 321.5 c 128,-1,9
 273 324 273 324 294 326 c 1,10,11
 292 309 292 309 290 291.5 c 128,-1,12
 288 274 288 274 286 255 c 0,13,14
 285 252 285 252 281 232.5 c 128,-1,15
 277 213 277 213 272 190.5 c 128,-1,16
 267 168 267 168 263 148.5 c 128,-1,17
 259 129 259 129 259 127 c 0,18,19
 236 62 236 62 211 21 c 128,-1,20
 186 -20 186 -20 163 -19 c 0,21,22
 139 -16 139 -16 132.5 5.5 c 128,-1,23
 126 27 126 27 120 75 c 0,24,25
 116 150 116 150 -1 195 c 0,26,27
 -18 202 -18 202 -30 201.5 c 128,-1,28
 -42 201 -42 201 -49.5 194 c 128,-1,29
 -57 187 -57 187 -61.5 174 c 128,-1,30
 -66 161 -66 161 -69 144 c 0,31,32
 -74 100 -74 100 -70.5 66.5 c 128,-1,33
 -67 33 -67 33 -50 1 c 0,34,35
 -40 -21 -40 -21 -25.5 -41 c 128,-1,36
 -11 -61 -11 -61 10 -78.5 c 128,-1,37
 31 -96 31 -96 59.5 -109 c 128,-1,38
 88 -122 88 -122 127 -131 c 0,39,40
 164 -139 164 -139 193.5 -140.5 c 128,-1,41
 223 -142 223 -142 247.5 -138.5 c 128,-1,42
 272 -135 272 -135 292 -127 c 128,-1,43
 312 -119 312 -119 329 -109 c 0,44,45
 367 -85 367 -85 395 -49.5 c 128,-1,46
 423 -14 423 -14 445 39 c 128,-1,47
 467 92 467 92 485.5 167 c 128,-1,48
 504 242 504 242 524 345 c 1,49,50
 578 347 578 347 631 349.5 c 128,-1,51
 684 352 684 352 736 354 c 0,52,53
 773 355 773 355 787 361.5 c 128,-1,54
 801 368 801 368 793 388 c 0,55,56
 785 405 785 405 778.5 423.5 c 128,-1,57
 772 442 772 442 755 462 c 0,58,59
 731 498 731 498 659 498 c 0,60,61
 633 498 633 498 606 498 c 0,62,63
 580 498 580 498 552 497 c 1,64,65
 555 514 555 514 558.5 532.5 c 128,-1,66
 562 551 562 551 564.5 567 c 128,-1,67
 567 583 567 583 569 593.5 c 128,-1,68
 571 604 571 604 571 606 c 0,69,70
 586 646 586 646 601.5 680 c 128,-1,71
 617 714 617 714 632 738.5 c 128,-1,72
 647 763 647 763 661.5 776.5 c 128,-1,73
 676 790 676 790 689 790 c 0,74,75
 703 788 703 788 710.5 780.5 c 128,-1,76
 718 773 718 773 721.5 759 c 128,-1,77
 725 745 725 745 725.5 723.5 c 128,-1,78
 726 702 726 702 727 672 c 0,79,80
 724 582 724 582 841 532 c 0,81,82
 875 515 875 515 893 533 c 128,-1,83
 911 551 911 551 922 589 c 0,84,85
 936 641 936 641 938.5 682 c 128,-1,86
 941 723 941 723 929 764 c 0,87,88
 921 793 921 793 908.5 820 c 128,-1,89
 896 847 896 847 874.5 870.5 c 128,-1,90
 853 894 853 894 821.5 912.5 c 128,-1,91
 790 931 790 931 745 943 c 0,92,93
 702 955 702 955 666.5 957 c 128,-1,94
 631 959 631 959 602 953.5 c 128,-1,95
 573 948 573 948 548.5 937 c 128,-1,96
 524 926 524 926 503 912 c 0,97,98
 465 884 465 884 436 846.5 c 128,-1,99
 407 809 407 809 384.5 757.5 c 128,-1,100
 362 706 362 706 345 639 c 128,-1,101
 328 572 328 572 315 487 c 1,102,103
 246 482 246 482 184.5 477 c 128,-1,104
 123 472 123 472 77 467 c 0,0,1
EndSplineSet
Validated: 41
EndChar

StartChar: quotedblbase
Encoding: 8222 8222 110
Width: 576
Flags: W
LayerCount: 2
Fore
SplineSet
223 -93 m 0,0,1
 230 -79 230 -79 238 -57 c 128,-1,2
 246 -35 246 -35 253.5 -10 c 128,-1,3
 261 15 261 15 267 40.5 c 128,-1,4
 273 66 273 66 276 87 c 0,5,6
 277 109 277 109 273.5 122.5 c 128,-1,7
 270 136 270 136 248 152 c 0,8,9
 232 162 232 162 213 171 c 128,-1,10
 194 180 194 180 174 187 c 0,11,12
 151 196 151 196 138 193 c 128,-1,13
 125 190 125 190 122 167 c 0,14,15
 118 138 118 138 112.5 100.5 c 128,-1,16
 107 63 107 63 100.5 24.5 c 128,-1,17
 94 -14 94 -14 87.5 -48.5 c 128,-1,18
 81 -83 81 -83 76 -106 c 0,19,20
 69 -138 69 -138 110 -137 c 0,21,22
 130 -137 130 -137 147 -136 c 128,-1,23
 164 -135 164 -135 177 -131 c 0,24,25
 193 -126 193 -126 203 -118 c 128,-1,26
 213 -110 213 -110 223 -93 c 0,0,1
435 -104 m 0,27,28
 449 -88 449 -88 465.5 -60 c 128,-1,29
 482 -32 482 -32 495.5 -1.5 c 128,-1,30
 509 29 509 29 518 56.5 c 128,-1,31
 527 84 527 84 526 99 c 0,32,33
 523 117 523 117 506 131 c 0,34,35
 493 142 493 142 476 152 c 128,-1,36
 459 162 459 162 440 173 c 0,37,38
 419 184 419 184 404 180.5 c 128,-1,39
 389 177 389 177 383 158 c 0,40,41
 375 129 375 129 362.5 93 c 128,-1,42
 350 57 350 57 336 20 c 128,-1,43
 322 -17 322 -17 308.5 -50 c 128,-1,44
 295 -83 295 -83 286 -104 c 0,45,46
 271 -135 271 -135 315 -138 c 0,47,48
 352 -144 352 -144 382 -137 c 0,49,50
 399 -135 399 -135 410.5 -127 c 128,-1,51
 422 -119 422 -119 435 -104 c 0,27,28
EndSplineSet
Validated: 41
EndChar

StartChar: ellipsis
Encoding: 8230 8230 111
Width: 1126
Flags: W
LayerCount: 2
Fore
SplineSet
767 73 m 0,0,1
 764 50 764 50 772 31.5 c 128,-1,2
 780 13 780 13 794.5 0.5 c 128,-1,3
 809 -12 809 -12 829 -19 c 128,-1,4
 849 -26 849 -26 872 -25 c 0,5,6
 894 -25 894 -25 912.5 -17.5 c 128,-1,7
 931 -10 931 -10 945 0.5 c 128,-1,8
 959 11 959 11 968 23 c 128,-1,9
 977 35 977 35 980 44 c 0,10,11
 983 51 983 51 985 58 c 128,-1,12
 987 65 987 65 987 73 c 0,13,14
 989 96 989 96 972.5 119.5 c 128,-1,15
 956 143 956 143 916 156 c 0,16,17
 886 164 886 164 860.5 160 c 128,-1,18
 835 156 835 156 815 143.5 c 128,-1,19
 795 131 795 131 782.5 112.5 c 128,-1,20
 770 94 770 94 767 73 c 0,0,1
365 73 m 0,21,22
 363 50 363 50 372 31.5 c 128,-1,23
 381 13 381 13 397 0.5 c 128,-1,24
 413 -12 413 -12 433.5 -19 c 128,-1,25
 454 -26 454 -26 477 -25 c 0,26,27
 499 -25 499 -25 517 -17.5 c 128,-1,28
 535 -10 535 -10 547.5 0.5 c 128,-1,29
 560 11 560 11 568.5 23 c 128,-1,30
 577 35 577 35 580 44 c 0,31,32
 584 56 584 56 584 73 c 0,33,34
 585 96 585 96 566.5 119.5 c 128,-1,35
 548 143 548 143 508 156 c 0,36,37
 478 164 478 164 452.5 160 c 128,-1,38
 427 156 427 156 408 143.5 c 128,-1,39
 389 131 389 131 377.5 112.5 c 128,-1,40
 366 94 366 94 365 73 c 0,21,22
-35 73 m 0,41,42
 -35 50 -35 50 -25 31.5 c 128,-1,43
 -15 13 -15 13 0.5 0.5 c 128,-1,44
 16 -12 16 -12 37 -19 c 128,-1,45
 58 -26 58 -26 81 -25 c 0,46,47
 103 -25 103 -25 120.5 -17.5 c 128,-1,48
 138 -10 138 -10 150 0.5 c 128,-1,49
 162 11 162 11 169.5 23 c 128,-1,50
 177 35 177 35 179 44 c 0,51,52
 181 51 181 51 182 58 c 128,-1,53
 183 65 183 65 182 73 c 0,54,55
 181 96 181 96 161 119.5 c 128,-1,56
 141 143 141 143 99 156 c 0,57,58
 68 164 68 164 43 160 c 128,-1,59
 18 156 18 156 1 143.5 c 128,-1,60
 -16 131 -16 131 -25.5 112.5 c 128,-1,61
 -35 94 -35 94 -35 73 c 0,41,42
EndSplineSet
Validated: 41
EndChar

StartChar: dagger
Encoding: 8224 8224 112
Width: 660
Flags: W
LayerCount: 2
Fore
SplineSet
-47 598 m 0,0,1
 -124 590 -124 590 -90 544 c 0,2,3
 -77 525 -77 525 -59 506.5 c 128,-1,4
 -41 488 -41 488 -17 468 c 0,5,6
 9 448 9 448 33.5 442.5 c 128,-1,7
 58 437 58 437 93 442 c 2,8,-1
 153 448 l 1,9,10
 144 392 144 392 136 338.5 c 128,-1,11
 128 285 128 285 121.5 237.5 c 128,-1,12
 115 190 115 190 110.5 150.5 c 128,-1,13
 106 111 106 111 105 83 c 0,14,15
 102 57 102 57 110 42.5 c 128,-1,16
 118 28 118 28 141 17 c 0,17,18
 162 6 162 6 185.5 -1 c 128,-1,19
 209 -8 209 -8 235 -15 c 0,20,21
 261 -21 261 -21 269.5 -16 c 128,-1,22
 278 -11 278 -11 283 6 c 0,23,24
 292 49 292 49 303.5 103 c 128,-1,25
 315 157 315 157 328.5 217.5 c 128,-1,26
 342 278 342 278 356.5 342 c 128,-1,27
 371 406 371 406 386 468 c 1,28,29
 447 473 447 473 507.5 475.5 c 128,-1,30
 568 478 568 478 627 480 c 0,31,32
 665 481 665 481 679 488 c 128,-1,33
 693 495 693 495 684 516 c 0,34,35
 677 533 677 533 670.5 552 c 128,-1,36
 664 571 664 571 646 593 c 0,37,38
 622 630 622 630 548 630 c 0,39,40
 520 630 520 630 490 629.5 c 128,-1,41
 460 629 460 629 428 628 c 1,42,43
 436 654 436 654 442 677 c 128,-1,44
 448 700 448 700 456 720 c 0,45,46
 463 747 463 747 457.5 761 c 128,-1,47
 452 775 452 775 424 794 c 0,48,49
 397 812 397 812 361 828 c 128,-1,50
 325 844 325 844 294 852 c 0,51,52
 262 861 262 861 247 854.5 c 128,-1,53
 232 848 232 848 223 819 c 0,54,55
 213 780 213 780 202.5 728 c 128,-1,56
 192 676 192 676 181 617 c 1,57,58
 114 612 114 612 56 607.5 c 128,-1,59
 -2 603 -2 603 -47 598 c 0,0,1
EndSplineSet
Validated: 41
EndChar

StartChar: daggerdbl
Encoding: 8225 8225 113
Width: 733
Flags: W
LayerCount: 2
Fore
SplineSet
-25 287 m 0,0,1
 -98 279 -98 279 -66 238 c 0,2,3
 -41 204 -41 204 4 169 c 0,4,5
 28 151 28 151 51.5 146 c 128,-1,6
 75 141 75 141 109 145 c 0,7,8
 123 147 123 147 137 148.5 c 128,-1,9
 151 150 151 150 167 152 c 1,10,11
 165 132 165 132 163.5 114.5 c 128,-1,12
 162 97 162 97 161 83 c 0,13,14
 159 57 159 57 166 42.5 c 128,-1,15
 173 28 173 28 196 17 c 0,16,17
 218 6 218 6 241.5 -1 c 128,-1,18
 265 -8 265 -8 291 -15 c 0,19,20
 317 -21 317 -21 325.5 -16 c 128,-1,21
 334 -11 334 -11 339 6 c 0,22,23
 346 40 346 40 355 81 c 128,-1,24
 364 122 364 122 373 169 c 1,25,26
 435 173 435 173 495.5 175.5 c 128,-1,27
 556 178 556 178 616 180 c 0,28,29
 652 181 652 181 665 187 c 128,-1,30
 678 193 678 193 670 213 c 0,31,32
 663 228 663 228 657 245 c 128,-1,33
 651 262 651 262 634 282 c 0,34,35
 610 316 610 316 540 316 c 0,36,37
 508 316 508 316 474.5 315.5 c 128,-1,38
 441 315 441 315 406 314 c 1,39,40
 415 352 415 352 424.5 391 c 128,-1,41
 434 430 434 430 444 468 c 1,42,43
 505 473 505 473 565.5 475.5 c 128,-1,44
 626 478 626 478 685 480 c 0,45,46
 723 481 723 481 737 488 c 128,-1,47
 751 495 751 495 743 516 c 0,48,49
 735 533 735 533 728.5 552 c 128,-1,50
 722 571 722 571 705 593 c 0,51,52
 680 630 680 630 607 630 c 0,53,54
 578 630 578 630 548 629.5 c 128,-1,55
 518 629 518 629 487 628 c 1,56,57
 494 654 494 654 501 677 c 128,-1,58
 508 700 508 700 514 720 c 0,59,60
 518 733 518 733 519 743 c 128,-1,61
 520 753 520 753 516.5 761 c 128,-1,62
 513 769 513 769 505 777 c 128,-1,63
 497 785 497 785 482 794 c 0,64,65
 456 812 456 812 420 828 c 128,-1,66
 384 844 384 844 352 852 c 0,67,68
 321 861 321 861 306 854.5 c 128,-1,69
 291 848 291 848 283 819 c 0,70,71
 272 780 272 780 261 728 c 128,-1,72
 250 676 250 676 238 617 c 1,73,74
 172 612 172 612 114.5 607.5 c 128,-1,75
 57 603 57 603 12 598 c 0,76,77
 -67 590 -67 590 -31 544 c 0,78,79
 -20 525 -20 525 -1.5 506.5 c 128,-1,80
 17 488 17 488 41 468 c 0,81,82
 67 448 67 448 91 442.5 c 128,-1,83
 115 437 115 437 150 442 c 0,84,85
 165 444 165 444 180.5 445 c 128,-1,86
 196 446 196 446 211 448 c 1,87,88
 204 410 204 410 198.5 374 c 128,-1,89
 193 338 193 338 188 304 c 1,90,91
 125 300 125 300 71 295.5 c 128,-1,92
 17 291 17 291 -25 287 c 0,0,1
EndSplineSet
Validated: 41
EndChar

StartChar: circumflex
Encoding: 710 710 114
Width: 670
Flags: W
LayerCount: 2
Fore
SplineSet
518 956 m 0,0,1
 535 955 535 955 540 961 c 128,-1,2
 545 967 545 967 542 982 c 0,3,4
 535 1008 535 1008 526.5 1042 c 128,-1,5
 518 1076 518 1076 509.5 1113.5 c 128,-1,6
 501 1151 501 1151 493.5 1190.5 c 128,-1,7
 486 1230 486 1230 481 1266 c 0,8,9
 479 1278 479 1278 477 1286 c 128,-1,10
 475 1294 475 1294 472 1300 c 128,-1,11
 469 1306 469 1306 465 1311.5 c 128,-1,12
 461 1317 461 1317 456 1324 c 0,13,14
 443 1335 443 1335 429 1345 c 128,-1,15
 415 1355 415 1355 401 1366 c 0,16,17
 387 1375 387 1375 374.5 1374.5 c 128,-1,18
 362 1374 362 1374 348 1357 c 0,19,20
 319 1328 319 1328 290 1293.5 c 128,-1,21
 261 1259 261 1259 235 1225 c 128,-1,22
 209 1191 209 1191 187.5 1159.5 c 128,-1,23
 166 1128 166 1128 152 1106 c 0,24,25
 137 1083 137 1083 156 1056 c 0,26,27
 167 1040 167 1040 177 1029.5 c 128,-1,28
 187 1019 187 1019 198 1008 c 0,29,30
 211 996 211 996 219 996 c 0,31,32
 230 996 230 996 236 1008 c 0,33,34
 265 1043 265 1043 297.5 1084.5 c 128,-1,35
 330 1126 330 1126 370 1170 c 1,36,37
 384 1119 384 1119 394.5 1074 c 128,-1,38
 405 1029 405 1029 415 1000 c 0,39,40
 427 971 427 971 457 964 c 0,41,42
 474 959 474 959 489 957.5 c 128,-1,43
 504 956 504 956 518 956 c 0,0,1
EndSplineSet
Validated: 41
EndChar

StartChar: perthousand
Encoding: 8240 8240 115
Width: 1237
Flags: W
LayerCount: 2
Fore
SplineSet
700 672 m 0,0,1
 732 708 732 708 725.5 743.5 c 128,-1,2
 719 779 719 779 690 813 c 0,3,4
 660 852 660 852 631 818 c 0,5,6
 604 788 604 788 571.5 765.5 c 128,-1,7
 539 743 539 743 506 728.5 c 128,-1,8
 473 714 473 714 442.5 708 c 128,-1,9
 412 702 412 702 388 704 c 0,10,11
 329 709 329 709 298 750 c 0,12,13
 273 783 273 783 254 803 c 1,14,15
 235 817 235 817 209.5 828.5 c 128,-1,16
 184 840 184 840 152 847 c 0,17,18
 132 851 132 851 107 845.5 c 128,-1,19
 82 840 82 840 64 827 c 0,20,21
 26 796 26 796 1 749.5 c 128,-1,22
 -24 703 -24 703 -33.5 652 c 128,-1,23
 -43 601 -43 601 -37 551.5 c 128,-1,24
 -31 502 -31 502 -8 465 c 0,25,26
 4 448 4 448 19 432.5 c 128,-1,27
 34 417 34 417 50 407 c 0,28,29
 70 396 70 396 93 389.5 c 128,-1,30
 116 383 116 383 138 378 c 0,31,32
 199 371 199 371 243 403 c 0,33,34
 266 421 266 421 282 448 c 128,-1,35
 298 475 298 475 307.5 506 c 128,-1,36
 317 537 317 537 320.5 570.5 c 128,-1,37
 324 604 324 604 323 636 c 1,38,39
 365 622 365 622 409.5 626.5 c 128,-1,40
 454 631 454 631 494 653 c 1,41,42
 438 584 438 584 380 506.5 c 128,-1,43
 322 429 322 429 269 356.5 c 128,-1,44
 216 284 216 284 173 221.5 c 128,-1,45
 130 159 130 159 105 120 c 0,46,47
 94 100 94 100 91.5 84 c 128,-1,48
 89 68 89 68 93 55 c 128,-1,49
 97 42 97 42 107.5 30.5 c 128,-1,50
 118 19 118 19 132 8 c 0,51,52
 150 -2 150 -2 159 -3.5 c 128,-1,53
 168 -5 168 -5 179 8 c 0,54,55
 201 42 201 42 239 94 c 128,-1,56
 277 146 277 146 323.5 206.5 c 128,-1,57
 370 267 370 267 422 333 c 128,-1,58
 474 399 474 399 524.5 461 c 128,-1,59
 575 523 575 523 620.5 578 c 128,-1,60
 666 633 666 633 700 672 c 0,0,1
754 291 m 0,61,62
 751 311 751 311 740.5 330 c 128,-1,63
 730 349 730 349 710 365 c 0,64,65
 696 376 696 376 671 386.5 c 128,-1,66
 646 397 646 397 621 403 c 0,67,68
 601 406 601 406 576.5 401.5 c 128,-1,69
 552 397 552 397 534 386 c 0,70,71
 501 364 501 364 477 332 c 128,-1,72
 453 300 453 300 438.5 264 c 128,-1,73
 424 228 424 228 419 190.5 c 128,-1,74
 414 153 414 153 419.5 120 c 128,-1,75
 425 87 425 87 441 60.5 c 128,-1,76
 457 34 457 34 484 20 c 0,77,78
 501 10 501 10 521.5 4.5 c 128,-1,79
 542 -1 542 -1 564 -4 c 0,80,81
 619 -13 619 -13 663 16 c 0,82,83
 686 32 686 32 703.5 55 c 128,-1,84
 721 78 721 78 732.5 104.5 c 128,-1,85
 744 131 744 131 750.5 159.5 c 128,-1,86
 757 188 757 188 758 217 c 0,87,88
 759 237 759 237 758 255.5 c 128,-1,89
 757 274 757 274 754 291 c 0,61,62
1156 290 m 0,90,91
 1154 310 1154 310 1145 329 c 128,-1,92
 1136 348 1136 348 1117 364 c 0,93,94
 1103 375 1103 375 1079.5 385.5 c 128,-1,95
 1056 396 1056 396 1030 402 c 0,96,97
 1011 405 1011 405 986.5 400.5 c 128,-1,98
 962 396 962 396 942 385 c 0,99,100
 907 363 907 363 881 331 c 128,-1,101
 855 299 855 299 838 263 c 128,-1,102
 821 227 821 227 814 189.5 c 128,-1,103
 807 152 807 152 810.5 119 c 128,-1,104
 814 86 814 86 828 59.5 c 128,-1,105
 842 33 842 33 868 19 c 0,106,107
 884 9 884 9 904.5 3.5 c 128,-1,108
 925 -2 925 -2 946 -5 c 0,109,110
 1002 -14 1002 -14 1046 15 c 0,111,112
 1070 31 1070 31 1089 54 c 128,-1,113
 1108 77 1108 77 1122 103.5 c 128,-1,114
 1136 130 1136 130 1144 158.5 c 128,-1,115
 1152 187 1152 187 1155 216 c 0,116,117
 1159 253 1159 253 1156 290 c 0,90,91
176 750 m 0,118,119
 187 746 187 746 191 729 c 128,-1,120
 195 712 195 712 197 689 c 128,-1,121
 199 666 199 666 196.5 638 c 128,-1,122
 194 610 194 610 190 581 c 0,123,124
 179 513 179 513 157.5 482 c 128,-1,125
 136 451 136 451 116 459 c 0,126,127
 94 466 94 466 89.5 511 c 128,-1,128
 85 556 85 556 97 621 c 0,129,130
 102 644 102 644 112 668.5 c 128,-1,131
 122 693 122 693 133.5 712.5 c 128,-1,132
 145 732 145 732 156.5 743 c 128,-1,133
 168 754 168 754 176 750 c 0,118,119
634 319 m 0,134,135
 641 316 641 316 644.5 301 c 128,-1,136
 648 286 648 286 647 264.5 c 128,-1,137
 646 243 646 243 642 217.5 c 128,-1,138
 638 192 638 192 630 170 c 0,139,140
 613 113 613 113 590 85 c 128,-1,141
 567 57 567 57 549 64 c 0,142,143
 528 71 528 71 528 109 c 0,144,145
 528 153 528 153 548 206 c 0,146,147
 554 227 554 227 565.5 248.5 c 128,-1,148
 577 270 577 270 589.5 287 c 128,-1,149
 602 304 602 304 614 313.5 c 128,-1,150
 626 323 626 323 634 319 c 0,134,135
1039 318 m 0,151,152
 1046 315 1046 315 1047.5 300 c 128,-1,153
 1049 285 1049 285 1047 263 c 128,-1,154
 1045 241 1045 241 1039 216 c 128,-1,155
 1033 191 1033 191 1024 169 c 0,156,157
 1002 112 1002 112 977.5 84 c 128,-1,158
 953 56 953 56 935 63 c 0,159,160
 916 70 916 70 918 108 c 0,161,162
 921 152 921 152 944 205 c 0,163,164
 952 226 952 226 964.5 247.5 c 128,-1,165
 977 269 977 269 991 286 c 128,-1,166
 1005 303 1005 303 1018 312.5 c 128,-1,167
 1031 322 1031 322 1039 318 c 0,151,152
EndSplineSet
Validated: 41
EndChar

StartChar: guilsinglleft
Encoding: 8249 8249 117
Width: 522
Flags: W
LayerCount: 2
Fore
SplineSet
403 481 m 0,0,1
 426 488 426 488 429 498 c 128,-1,2
 432 508 432 508 418 525 c 0,3,4
 394 555 394 555 360 586 c 0,5,6
 346 598 346 598 334.5 602 c 128,-1,7
 323 606 323 606 308.5 604.5 c 128,-1,8
 294 603 294 603 275 596 c 128,-1,9
 256 589 256 589 228 580 c 0,10,11
 202 570 202 570 174 558 c 128,-1,12
 146 546 146 546 119 534 c 128,-1,13
 92 522 92 522 67 510 c 128,-1,14
 42 498 42 498 23 488 c 0,15,16
 6 481 6 481 -3 467.5 c 128,-1,17
 -12 454 -12 454 -16 437.5 c 128,-1,18
 -20 421 -20 421 -21 403.5 c 128,-1,19
 -22 386 -22 386 -25 370 c 0,20,21
 -27 365 -27 365 -27 357 c 0,22,23
 -27 350 -27 350 -25 339 c 0,24,25
 -22 328 -22 328 -7 320 c 0,26,27
 74 290 74 290 153.5 259 c 128,-1,28
 233 228 233 228 303 193 c 0,29,30
 325 182 325 182 334.5 185 c 128,-1,31
 344 188 344 188 353 206 c 0,32,33
 363 228 363 228 369 268 c 0,34,35
 371 287 371 287 362.5 298 c 128,-1,36
 354 309 354 309 335 320 c 0,37,38
 306 336 306 336 267 353.5 c 128,-1,39
 228 371 228 371 180 391 c 1,40,41
 237 415 237 415 292 438 c 128,-1,42
 347 461 347 461 403 481 c 0,0,1
EndSplineSet
Validated: 41
EndChar

